<svg width="33" height="34" viewBox="0 0 33 34" fill="none" xmlns="http://www.w3.org/2000/svg">
<path d="M16.2586 0.9375C7.32648 0.9375 0.0576172 8.20636 0.0576172 17.1385C0.0576172 26.0707 7.32648 33.3396 16.2586 33.3396C25.1908 33.3396 32.4597 26.0707 32.4597 17.1385C32.4597 8.20636 25.1908 0.9375 16.2586 0.9375ZM16.2586 3.63767C23.7314 3.63767 29.7595 9.66581 29.7595 17.1385C29.7628 20.3706 28.6038 23.4961 26.4941 25.9446C24.3844 28.3931 21.4646 30.0014 18.2676 30.476V21.0754H22.1126L22.7161 17.1696H18.2676V15.0364C18.2676 13.4163 18.8009 11.9758 20.317 11.9758H22.7539V8.56819C22.3259 8.51013 21.42 8.38457 19.7081 8.38457C16.1331 8.38457 14.0378 10.272 14.0378 14.5734V17.1696H10.3628V21.0754H14.0378V30.4423C10.885 29.9234 8.01939 28.3004 5.95303 25.8633C3.88666 23.4262 2.75413 20.3337 2.75779 17.1385C2.75779 9.66581 8.78592 3.63767 16.2586 3.63767Z" fill="#38446D"/>
</svg>
