<svg width="57" height="57" viewBox="0 0 57 57" fill="none" xmlns="http://www.w3.org/2000/svg">
<path fill-rule="evenodd" clip-rule="evenodd" d="M45.0914 33.2203C46.6686 30.746 47.5043 27.8718 47.4997 24.9375C47.4997 16.4113 40.5884 9.50001 32.0622 9.50001C29.0139 9.50001 26.1722 10.3835 23.7794 11.9071C22.1869 11.9964 20.6107 12.2746 19.084 12.736C20.7478 10.962 22.7583 9.54866 24.9907 8.5835C27.2232 7.61834 29.63 7.12192 32.0622 7.12501C41.8994 7.12501 49.8747 15.1003 49.8747 24.9375C49.8747 30.0533 47.7182 34.6667 44.2637 37.9157C44.7162 36.4159 45 34.8436 45.0914 33.2203Z" fill="#1C994D"/>
<path fill-rule="evenodd" clip-rule="evenodd" d="M47.4201 33.9661C46.5603 35.4254 45.4975 36.7552 44.2637 37.9157C44.7162 36.4159 45 34.8436 45.0914 33.2203C46.6686 30.746 47.5043 27.8718 47.4997 24.9375C47.4997 16.4113 40.5884 9.50002 32.0622 9.50002C29.0139 9.50002 26.1722 10.3835 23.7794 11.9071C22.1869 11.9964 20.6107 12.2746 19.084 12.736C20.2445 11.5022 21.5743 10.4395 23.0336 9.57959C25.7691 7.96773 28.8872 7.12002 32.0622 7.12502C41.8994 7.12502 49.8747 15.1003 49.8747 24.9375C49.8803 28.1126 49.0325 31.2309 47.4201 33.9661Z" fill="#1C994D"/>
<circle cx="25.5" cy="31.5" r="17.5" fill="#1C994D"/>
<path d="M30.9829 28.3945H28.5486C28.4286 27.6211 28.1629 26.9268 27.76 26.3291L30.3743 26.3379L31 24H19.6686L19 26.7158H22.2229C23.8771 26.7158 24.8457 27.3486 25.24 28.3945H19.6171L19 30.6973H25.3257C24.9657 31.9102 23.9114 32.6484 22.2229 32.6484H19.2571L19.2657 34.5996L25.2657 42H28.84V41.8418L23.4229 35.0303L23.5257 34.9951C26.6457 34.5732 28.1714 33 28.54 30.6973H30.3743L30.9829 28.3945Z" fill="white"/>
</svg>
