<svg width="35" height="45" viewBox="0 0 35 45" fill="none" xmlns="http://www.w3.org/2000/svg">
<path d="M17.4992 44.6219C20.6042 41.9734 23.4823 39.0698 26.1033 35.9415C30.0367 31.2437 34.7075 24.2472 34.7075 17.5802C34.7092 14.1754 33.7008 10.8465 31.8099 8.01493C29.919 5.18338 27.2306 2.97641 24.0849 1.67335C20.9392 0.370279 17.4777 0.0296857 14.1384 0.694669C10.799 1.35965 7.73204 3.00032 5.32552 5.40903C3.72329 7.00415 2.45332 8.90119 1.58913 10.9904C0.724926 13.0796 0.283653 15.3194 0.290848 17.5802C0.290848 24.2472 4.96168 31.2437 8.89502 35.9415C11.5161 39.0698 14.3942 41.9734 17.4992 44.6219ZM17.4992 5.28858C20.7579 5.29248 23.8821 6.58875 26.1864 8.89303C28.4907 11.1973 29.7869 14.3215 29.7909 17.5802C29.7909 20.4467 28.4953 25.41 22.3298 32.7875C20.8102 34.6019 19.1979 36.3365 17.4992 37.9844C15.8004 36.3384 14.1873 34.6063 12.6661 32.7949C6.50306 25.4076 5.20752 20.4442 5.20752 17.5802C5.21142 14.3215 6.50768 11.1973 8.81197 8.89303C11.1163 6.58875 14.2404 5.29248 17.4992 5.28858ZM17.4992 24.9552C19.4552 24.9552 21.331 24.1782 22.7141 22.7952C24.0972 21.4121 24.8742 19.5362 24.8742 17.5802C24.8742 15.6243 24.0972 13.7484 22.7141 12.3653C21.331 10.9823 19.4552 10.2052 17.4992 10.2052C15.5432 10.2052 13.6674 10.9823 12.2843 12.3653C10.9012 13.7484 10.1242 15.6243 10.1242 17.5802C10.1242 19.5362 10.9012 21.4121 12.2843 22.7952C13.6674 24.1782 15.5432 24.9552 17.4992 24.9552Z" fill="#9A4AFF"/>
</svg>
