<svg width="47" height="47" viewBox="0 0 47 47" fill="none" xmlns="http://www.w3.org/2000/svg">
<path d="M25.3907 4.37441C24.7374 2.65124 22.2649 2.65124 21.6096 4.37441L17.3833 16.0813C17.0873 16.8572 16.3339 17.3737 15.4927 17.3737H5.10677C3.1876 17.3737 2.35052 19.7625 3.85931 20.9323L11.2501 27.582C11.5812 27.8365 11.8232 28.1894 11.9413 28.5899C12.0594 28.9905 12.0476 29.4181 11.9076 29.8115L9.20848 41.251C8.55106 43.0885 10.6785 44.6667 12.2873 43.5356L22.3262 37.1656C22.67 36.924 23.0799 36.7944 23.5001 36.7944C23.9203 36.7944 24.3303 36.924 24.6741 37.1656L34.713 43.5356C36.3198 44.6667 38.4492 43.0865 37.7918 41.251L35.0927 29.8115C34.9527 29.4181 34.9409 28.9905 35.059 28.5899C35.1771 28.1894 35.4191 27.8365 35.7501 27.582L43.141 20.9323C44.6518 19.7625 43.8106 17.3737 41.8956 17.3737H31.5096C31.1007 17.3751 30.701 17.2522 30.3634 17.0215C30.0258 16.7907 29.7662 16.4628 29.619 16.0813L25.3928 4.37441H25.3907Z" stroke="#FF9A2E" stroke-width="5" stroke-linecap="round" stroke-linejoin="round"/>
</svg>
