<svg width="51" height="48" viewBox="0 0 51 48" fill="none" xmlns="http://www.w3.org/2000/svg">
<path d="M41.2943 1.40392C41.1655 1.18897 40.9832 1.01106 40.7652 0.887561C40.5472 0.764056 40.3008 0.699166 40.0502 0.699219H13.9502C13.6997 0.699166 13.4533 0.764056 13.2353 0.887561C13.0173 1.01106 12.8349 1.18897 12.7061 1.40392L4.00615 15.9039C3.85171 16.1619 3.78131 16.4616 3.80469 16.7614C3.82807 17.0612 3.94407 17.3463 4.13665 17.5772L5.31695 18.9924C6.11354 17.8217 7.18473 16.8638 8.43692 16.2026C9.68912 15.5414 11.0842 15.1969 12.5002 15.1992H7.81094L14.7709 3.59922H20.51L15.87 15.1992H12.5002C15.0783 15.1992 17.3925 16.3186 18.9846 18.0992H35.0332L27.0002 38.7472L26.9132 38.5239L26.8842 38.7762C26.6865 40.3151 26.2047 41.8039 25.4632 43.1668L25.8866 43.6772C26.0227 43.8404 26.193 43.9717 26.3854 44.0618C26.5779 44.1519 26.7878 44.1986 27.0002 44.1986C27.2127 44.1986 27.4226 44.1519 27.615 44.0618C27.8075 43.9717 27.9778 43.8404 28.1138 43.6772L49.8638 17.5772C50.0564 17.3463 50.1724 17.0612 50.1958 16.7614C50.2192 16.4616 50.1488 16.1619 49.9943 15.9039L41.2943 1.40392ZM39.2295 3.59922L46.1895 15.1992H38.1304L33.4904 3.59922H39.2295ZM31.5677 35.0033L38.142 18.0992H45.653L31.5677 35.0033ZM30.3671 3.59922L35.0071 15.1992H18.9933L23.6333 3.59922H30.3642H30.3671ZM23.4158 40.7134C23.7068 39.9691 23.9055 39.1919 24.0074 38.3992C24.07 37.9184 24.101 37.4341 24.1002 36.9492C24.1002 35.7955 23.6419 34.6891 22.8262 33.8733C22.0104 33.0575 20.9039 32.5992 19.7502 32.5992H5.25025C4.09655 32.5992 2.99012 33.0575 2.17434 33.8733C1.35855 34.6891 0.900246 35.7955 0.900246 36.9492C0.900246 40.1856 2.23135 42.7782 4.41505 44.5327C6.56395 46.2582 9.44655 47.0992 12.5002 47.0992C15.5539 47.0992 18.4365 46.2582 20.5854 44.5327C21.8467 43.529 22.8226 42.2121 23.4158 40.7134ZM16.4703 19.671C15.4292 18.6966 14.0343 18.0992 12.5002 18.0992C11.3221 18.0968 10.1715 18.4551 9.20295 19.1258C8.43221 19.6611 7.80217 20.3746 7.36643 21.2057C6.93069 22.0368 6.70216 22.9608 6.70025 23.8992C6.70025 25.4375 7.31132 26.9127 8.39903 28.0004C9.48674 29.0881 10.962 29.6992 12.5002 29.6992C14.0385 29.6992 15.5138 29.0881 16.6015 28.0004C17.6892 26.9127 18.3002 25.4375 18.3002 23.8992C18.3002 22.2317 17.5955 20.7295 16.4703 19.671Z" fill="#C7178B"/>
</svg>
