<svg width="51" height="51" viewBox="0 0 51 51" fill="none" xmlns="http://www.w3.org/2000/svg">
<path d="M25.5006 0.917969C24.8487 0.917969 24.2234 1.17697 23.7623 1.638C23.3013 2.09902 23.0423 2.72431 23.0423 3.3763V5.83464C23.0423 6.48663 23.3013 7.11191 23.7623 7.57294C24.2234 8.03397 24.8487 8.29297 25.5006 8.29297C26.1526 8.29297 26.7779 8.03397 27.239 7.57294C27.7 7.11191 27.959 6.48663 27.959 5.83464V3.3763C27.959 2.72431 27.7 2.09902 27.239 1.638C26.7779 1.17697 26.1526 0.917969 25.5006 0.917969ZM43.2179 7.78409C42.7569 7.32323 42.1317 7.06433 41.4798 7.06433C40.828 7.06433 40.2028 7.32323 39.7418 7.78409L37.2834 10.2424C36.8356 10.7061 36.5878 11.3271 36.5934 11.9716C36.5991 12.6162 36.8576 13.2328 37.3134 13.6886C37.7692 14.1444 38.3858 14.4029 39.0303 14.4085C39.6749 14.4141 40.2959 14.1663 40.7595 13.7185L43.2179 11.2602C43.6787 10.7992 43.9376 10.174 43.9376 9.52214C43.9376 8.87027 43.6787 8.2451 43.2179 7.78409ZM7.78344 7.78409C7.32257 8.2451 7.06367 8.87027 7.06367 9.52214C7.06367 10.174 7.32257 10.7992 7.78344 11.2602L10.2418 13.7185C10.4685 13.9533 10.7398 14.1406 11.0397 14.2694C11.3397 14.3983 11.6622 14.4661 11.9887 14.4689C12.3151 14.4718 12.6388 14.4096 12.9409 14.2859C13.243 14.1623 13.5175 13.9798 13.7483 13.749C13.9791 13.5182 14.1617 13.2437 14.2853 12.9416C14.4089 12.6394 14.4711 12.3157 14.4683 11.9893C14.4654 11.6629 14.3976 11.3403 14.2688 11.0404C14.1399 10.7405 13.9527 10.4692 13.7179 10.2424L11.2595 7.78409C10.7985 7.32323 10.1733 7.06433 9.52148 7.06433C8.86962 7.06433 8.24444 7.32323 7.78344 7.78409ZM25.5006 15.668C28.1086 15.668 30.6098 16.704 32.4539 18.5481C34.298 20.3922 35.334 22.8933 35.334 25.5013C35.334 28.1093 34.298 30.6104 32.4539 32.4545C30.6098 34.2986 28.1086 35.3346 25.5006 35.3346C22.8927 35.3346 20.3915 34.2986 18.5474 32.4545C16.7033 30.6104 15.6673 28.1093 15.6673 25.5013C15.6673 22.8933 16.7033 20.3922 18.5474 18.5481C20.3915 16.704 22.8927 15.668 25.5006 15.668ZM40.2506 25.5013C40.2503 22.9122 39.5684 20.3689 38.2736 18.1268C36.9788 15.8848 35.1166 14.023 32.8743 12.7287C30.632 11.4344 28.0884 10.7532 25.4993 10.7534C22.9103 10.7536 20.3669 11.4353 18.1247 12.73C15.8826 14.0247 14.0208 15.8868 12.7264 18.1291C11.432 20.3713 10.7506 22.9148 10.7506 25.5039C10.7507 28.093 11.4323 30.6364 12.7269 32.8786C14.0215 35.1208 15.8834 36.9827 18.1256 38.2773V42.7096C18.1256 44.6656 18.9027 46.5415 20.2857 47.9246C21.6688 49.3076 23.5447 50.0846 25.5006 50.0846C27.4566 50.0846 29.3325 49.3076 30.7156 47.9246C32.0986 46.5415 32.8756 44.6656 32.8756 42.7096V38.2773C35.1186 36.9829 36.9811 35.1206 38.2757 32.8779C39.5704 30.6351 40.2515 28.0909 40.2506 25.5013ZM27.959 40.0473V42.7096C27.959 43.3616 27.7 43.9869 27.239 44.4479C26.7779 44.909 26.1526 45.168 25.5006 45.168C24.8487 45.168 24.2234 44.909 23.7623 44.4479C23.3013 43.9869 23.0423 43.3616 23.0423 42.7096V40.0473C24.6698 40.3209 26.3315 40.3209 27.959 40.0473ZM50.084 25.5013C50.084 24.8493 49.825 24.224 49.364 23.763C48.9029 23.302 48.2776 23.043 47.6257 23.043H45.1673C44.5153 23.043 43.89 23.302 43.429 23.763C42.968 24.224 42.709 24.8493 42.709 25.5013C42.709 26.1533 42.968 26.7786 43.429 27.2396C43.89 27.7006 44.5153 27.9596 45.1673 27.9596H47.6257C48.2776 27.9596 48.9029 27.7006 49.364 27.2396C49.825 26.7786 50.084 26.1533 50.084 25.5013ZM8.29231 25.5013C8.29231 24.8493 8.03331 24.224 7.57228 23.763C7.11126 23.302 6.48597 23.043 5.83398 23.043H3.37564C2.72365 23.043 2.09837 23.302 1.63734 23.763C1.17631 24.224 0.917309 24.8493 0.917309 25.5013C0.917309 26.1533 1.17631 26.7786 1.63734 27.2396C2.09837 27.7006 2.72365 27.9596 3.37564 27.9596H5.83398C6.48597 27.9596 7.11126 27.7006 7.57228 27.2396C8.03331 26.7786 8.29231 26.1533 8.29231 25.5013Z" fill="#F5674D"/>
</svg>
