<svg width="39" height="51" viewBox="0 0 39 51" fill="none" xmlns="http://www.w3.org/2000/svg">
<path d="M25.01 28.5137L19.5 24.3337L14.0138 28.5137L16.1038 21.745L10.5938 17.375H17.3388L19.5 10.7012L21.6613 17.375H28.4063L22.92 21.745L25.01 28.5137ZM0.500008 19.75C0.500008 9.2525 9.00251 0.75 19.5 0.75C29.9975 0.75 38.5 9.2525 38.5 19.75C38.5 24.5712 36.695 28.9412 33.75 32.29V50.625L19.5 45.875L5.25001 50.625V32.29C2.18761 28.8308 0.497898 24.37 0.500008 19.75ZM19.5 5.5C11.6388 5.5 5.25001 11.8887 5.25001 19.75C5.25001 27.6112 11.6388 34 19.5 34C27.3613 34 33.75 27.6112 33.75 19.75C33.75 11.8887 27.3613 5.5 19.5 5.5ZM19.5 41.125L29 43.5475V36.185C26.1975 37.8 22.9675 38.75 19.5 38.75C16.0325 38.75 12.8025 37.8 10 36.185V43.5475L19.5 41.125Z" fill="#179DC7"/>
</svg>
