<svg width="33" height="34" viewBox="0 0 33 34" fill="none" xmlns="http://www.w3.org/2000/svg">
<path d="M16.192 33.3396C11.7662 33.3396 11.2445 33.3162 9.51732 33.2408C8.17045 33.1966 6.84101 32.9232 5.58625 32.4323C4.5125 32.0151 3.53738 31.3794 2.72282 30.5657C1.90825 29.752 1.27204 28.778 0.85458 27.7057C0.381963 26.4482 0.12705 25.1196 0.10075 23.7767C-1.34045e-08 22.0556 0 21.4915 0 17.1062C0 12.6742 0.0233885 12.1568 0.10075 10.4411C0.127625 9.10003 0.38253 7.77328 0.85458 6.5175C1.27156 5.44378 1.9082 4.4687 2.72385 3.65454C3.5395 2.84037 4.51623 2.20502 5.59165 1.78905C6.84859 1.31513 8.1776 1.05992 9.52092 1.03451C11.2391 0.9375 11.804 0.9375 16.192 0.9375C20.6538 0.9375 21.1666 0.960855 22.8668 1.03451C24.2125 1.05966 25.5474 1.31477 26.8068 1.78905C27.882 2.2055 28.8584 2.84103 29.674 3.65513C30.4896 4.46923 31.1264 5.44406 31.5439 6.5175C32.0243 7.79303 32.2815 9.14042 32.3013 10.5004C32.4021 12.2215 32.4021 12.7838 32.4021 17.1673C32.4021 21.5508 32.3769 22.1257 32.3013 23.827C32.2744 25.1711 32.0189 26.5009 31.5457 27.7596C31.1272 28.8327 30.4898 29.8072 29.674 30.6212C28.8582 31.4352 27.8818 32.0709 26.8068 32.488C25.5474 32.9587 24.2179 33.2138 22.874 33.2408C21.1558 33.3396 20.5927 33.3396 16.192 33.3396ZM16.1309 3.78139C11.7302 3.78139 11.2733 3.80295 9.5551 3.8802C8.52898 3.8936 7.51275 4.08258 6.55058 4.43892C5.8488 4.70753 5.21118 5.12 4.67881 5.64974C4.14644 6.17949 3.73115 6.81474 3.4597 7.51457C3.09988 8.48469 2.91097 9.5105 2.90017 10.5453C2.80482 12.2861 2.80482 12.7424 2.80482 17.1062C2.80482 21.4178 2.82101 21.9406 2.90017 23.6707C2.91637 24.6947 3.10527 25.7097 3.4597 26.6709C4.01023 28.0847 5.13288 29.2022 6.55238 29.7447C7.5133 30.1033 8.52933 30.2924 9.5551 30.3034C11.2966 30.4041 11.7554 30.4041 16.1309 30.4041C20.5441 30.4041 21.0011 30.3825 22.7048 30.3034C23.7311 30.291 24.7475 30.102 25.7094 29.7447C26.4074 29.4741 27.0414 29.0613 27.571 28.5328C28.1007 28.0042 28.5144 27.3713 28.7858 26.6745C29.1457 25.7043 29.3346 24.6767 29.3454 23.6419H29.3652C29.4425 21.9245 29.4425 21.4664 29.4425 17.0775C29.4425 12.6885 29.4227 12.2268 29.3454 10.5112C29.3291 9.48797 29.1399 8.47486 28.7858 7.51457C28.515 6.8167 28.1016 6.18281 27.5719 5.65328C27.0422 5.12375 26.4079 4.71018 25.7094 4.43892C24.7468 4.07962 23.7303 3.89278 22.7048 3.8802C20.9651 3.78139 20.5099 3.78139 16.1309 3.78139ZM16.192 25.4043C14.5469 25.4054 12.9384 24.9192 11.5699 24.0074C10.2015 23.0955 9.13457 21.7989 8.50417 20.2815C7.87377 18.7641 7.70819 17.0941 8.02836 15.4827C8.34853 13.8713 9.14007 12.3909 10.3029 11.2288C11.4657 10.0667 12.9475 9.27499 14.5609 8.95389C16.1744 8.63279 17.8469 8.79669 19.367 9.42486C20.8872 10.053 22.1866 11.1173 23.101 12.483C24.0154 13.8486 24.5036 15.4544 24.504 17.0972C24.5011 19.2983 23.6247 21.4085 22.0667 22.9655C20.5088 24.5226 18.3963 25.3996 16.192 25.4043ZM16.192 11.7041C15.1245 11.7041 14.081 12.0201 13.1934 12.6124C12.3058 13.2046 11.6141 14.0463 11.2055 15.0311C10.797 16.0159 10.6901 17.0996 10.8984 18.1451C11.1067 19.1905 11.6207 20.1509 12.3755 20.9046C13.1304 21.6584 14.0921 22.1717 15.1391 22.3796C16.1861 22.5876 17.2713 22.4809 18.2575 22.0729C19.2437 21.665 20.0867 20.9742 20.6798 20.0879C21.2728 19.2016 21.5894 18.1596 21.5894 17.0936C21.5861 15.6652 21.0163 14.2963 20.0049 13.2863C18.9934 12.2763 17.6225 11.7074 16.192 11.7041ZM24.8278 10.4231C24.5731 10.4222 24.3211 10.3712 24.0861 10.273C23.8512 10.1748 23.6379 10.0313 23.4585 9.85082C23.0961 9.48628 22.8936 8.99293 22.8955 8.4793C22.8975 7.96567 23.1036 7.47383 23.4687 7.11198C23.8337 6.75014 24.3278 6.54793 24.8422 6.54983C25.3566 6.55174 25.8491 6.75761 26.2115 7.12215C26.5738 7.48669 26.7763 7.98004 26.7744 8.49367C26.7725 9.0073 26.5664 9.49914 26.2013 9.86098C25.8362 10.2228 25.3422 10.425 24.8278 10.4231Z" fill="#38446D"/>
</svg>
