<svg width="33" height="34" viewBox="0 0 33 34" fill="none" xmlns="http://www.w3.org/2000/svg">
<path d="M24.4159 18.9648V24.9544H20.944V19.365C20.944 17.962 20.4418 17.0045 19.1846 17.0045C18.2255 17.0045 17.6536 17.6493 17.4024 18.2747C17.3117 18.4983 17.2874 18.8093 17.2874 19.1204V24.9544H13.8139C13.8139 24.9544 13.8609 15.4897 13.8139 14.5096H17.2874V15.9887L17.2647 16.0227H17.2874V15.9903C17.7492 15.2775 18.5722 14.2633 20.4175 14.2633C22.7018 14.2633 24.4159 15.757 24.4159 18.9648ZM10.18 9.47266C8.99249 9.47266 8.21484 10.2535 8.21484 11.2775C8.21484 12.2819 8.96981 13.0839 10.1347 13.0839H10.1573C11.3692 13.0839 12.1225 12.2803 12.1225 11.2775C12.0999 10.2535 11.3692 9.47266 10.18 9.47266ZM8.4206 24.9544H11.8941V14.5096H8.4206V24.9544Z" fill="#38446D"/>
<path d="M16.3158 30.0994C19.7532 30.0994 23.0498 28.7338 25.4805 26.3032C27.9111 23.8726 29.2766 20.576 29.2766 17.1385C29.2766 13.7011 27.9111 10.4045 25.4805 7.97384C23.0498 5.54322 19.7532 4.17771 16.3158 4.17771C12.8784 4.17771 9.58172 5.54322 7.15109 7.97384C4.72046 10.4045 3.35495 13.7011 3.35495 17.1385C3.35495 20.576 4.72046 23.8726 7.15109 26.3032C9.58172 28.7338 12.8784 30.0994 16.3158 30.0994ZM16.3158 33.3396C7.36795 33.3396 0.114746 26.0864 0.114746 17.1385C0.114746 8.1907 7.36795 0.9375 16.3158 0.9375C25.2636 0.9375 32.5168 8.1907 32.5168 17.1385C32.5168 26.0864 25.2636 33.3396 16.3158 33.3396Z" fill="#38446D"/>
</svg>
