<svg width="49" height="48" viewBox="0 0 49 48" fill="none" xmlns="http://www.w3.org/2000/svg">
<path opacity="0.8" d="M47.7137 27.8547C47.7137 32.9931 44.7775 37.7645 40.3731 41.0677L39.7978 44.5195C39.4944 46.34 37.9194 47.6742 36.0738 47.6742H35.2347C33.6131 47.6742 32.2985 46.3596 32.2985 44.738C30.0963 45.105 28.2612 45.4721 25.692 45.4721C23.4898 45.4721 21.2877 45.105 19.0855 44.738C19.0855 46.3596 17.7709 47.6742 16.1493 47.6742H15.2535C13.4268 47.6742 11.8541 46.3849 11.4958 44.5937L10.6438 40.3337C8.07463 38.4985 6.23948 35.9293 5.1384 32.9931L2.37141 32.4002C0.9882 32.1038 0 30.8814 0 29.4668V25.9098C0 24.4797 1.00938 23.2485 2.41165 22.968L5.50543 22.3493C6.23948 20.1471 7.7076 18.312 9.54274 16.4768L8.14146 10.0309C7.96477 9.21815 8.79975 8.55749 9.55009 8.91635L16.1493 12.0725C19.0855 10.9714 22.3887 10.2373 26.059 10.2373C38.171 10.2373 47.7137 18.312 47.7137 27.8547Z" fill="white"/>
<path d="M34.7683 26.4663C42.0768 26.4663 48.0015 20.5416 48.0015 13.2331C48.0015 5.92468 42.0768 0 34.7683 0C27.4598 0 21.5352 5.92468 21.5352 13.2331C21.5352 20.5416 27.4598 26.4663 34.7683 26.4663Z" fill="#FAFAFA"/>
<path d="M32.0298 8.875C34.092 8.875 35.3867 10.0792 35.3867 11.3192H36.8867C36.8867 8.9087 34.5308 7.375 32.0298 7.375V8.875ZM35.3867 11.3192C35.3867 11.8863 35.0471 12.4274 34.3409 12.8635C33.6341 13.2999 32.6468 13.5652 31.622 13.5652V15.0652C32.8788 15.0652 34.1488 14.745 35.129 14.1398C36.1096 13.5342 36.8867 12.5773 36.8867 11.3192H35.3867ZM31.622 13.5652C31.6211 13.5652 31.6202 13.5652 31.6193 13.5652C31.6185 13.5652 31.6176 13.5652 31.6167 13.5652C31.6158 13.5652 31.615 13.5652 31.6141 13.5652C31.6133 13.5652 31.6124 13.5652 31.6116 13.5652C31.6107 13.5652 31.6099 13.5652 31.609 13.5652C31.6082 13.5652 31.6073 13.5652 31.6065 13.5652C31.6057 13.5652 31.6049 13.5652 31.604 13.5652C31.6032 13.5652 31.6024 13.5652 31.6016 13.5652C31.6008 13.5652 31.6 13.5652 31.5992 13.5652C31.5984 13.5652 31.5976 13.5652 31.5968 13.5652C31.596 13.5652 31.5952 13.5652 31.5945 13.5652C31.5937 13.5652 31.5929 13.5652 31.5921 13.5652C31.5914 13.5652 31.5906 13.5652 31.5898 13.5652C31.5891 13.5652 31.5883 13.5652 31.5876 13.5652C31.5868 13.5652 31.5861 13.5652 31.5853 13.5652C31.5846 13.5652 31.5839 13.5652 31.5831 13.5652C31.5824 13.5652 31.5817 13.5652 31.581 13.5652C31.5803 13.5652 31.5795 13.5652 31.5788 13.5652C31.5781 13.5652 31.5774 13.5652 31.5767 13.5652C31.576 13.5652 31.5753 13.5652 31.5746 13.5652C31.5739 13.5652 31.5733 13.5652 31.5726 13.5652C31.5719 13.5652 31.5712 13.5652 31.5705 13.5652C31.5699 13.5652 31.5692 13.5652 31.5685 13.5652C31.5679 13.5652 31.5672 13.5652 31.5666 13.5652C31.5659 13.5652 31.5653 13.5652 31.5646 13.5652C31.564 13.5652 31.5633 13.5652 31.5627 13.5652C31.5621 13.5652 31.5615 13.5652 31.5608 13.5652C31.5602 13.5652 31.5596 13.5652 31.559 13.5652C31.5584 13.5652 31.5577 13.5652 31.5571 13.5652C31.5565 13.5652 31.5559 13.5652 31.5553 13.5652C31.5547 13.5652 31.5541 13.5652 31.5536 13.5652C31.553 13.5652 31.5524 13.5652 31.5518 13.5652C31.5512 13.5652 31.5507 13.5652 31.5501 13.5652C31.5495 13.5652 31.549 13.5652 31.5484 13.5652C31.5478 13.5652 31.5473 13.5652 31.5467 13.5652C31.5462 13.5652 31.5456 13.5652 31.5451 13.5652C31.5446 13.5652 31.544 13.5652 31.5435 13.5652C31.543 13.5652 31.5424 13.5652 31.5419 13.5652C31.5414 13.5652 31.5409 13.5652 31.5403 13.5652C31.5398 13.5652 31.5393 13.5652 31.5388 13.5652C31.5383 13.5652 31.5378 13.5652 31.5373 13.5652C31.5368 13.5652 31.5363 13.5652 31.5358 13.5652C31.5353 13.5652 31.5349 13.5652 31.5344 13.5652C31.5339 13.5652 31.5334 13.5652 31.5329 13.5652C31.5325 13.5652 31.532 13.5652 31.5315 13.5652C31.5311 13.5652 31.5306 13.5652 31.5302 13.5652C31.5297 13.5652 31.5293 13.5652 31.5288 13.5652C31.5284 13.5652 31.5279 13.5652 31.5275 13.5652C31.5271 13.5652 31.5266 13.5652 31.5262 13.5652C31.5258 13.5652 31.5253 13.5652 31.5249 13.5652C31.5245 13.5652 31.5241 13.5652 31.5237 13.5652C31.5233 13.5652 31.5229 13.5652 31.5225 13.5652C31.5221 13.5652 31.5217 13.5652 31.5213 13.5652C31.5209 13.5652 31.5205 13.5652 31.5201 13.5652C31.5197 13.5652 31.5193 13.5652 31.5189 13.5652C31.5186 13.5652 31.5182 13.5652 31.5178 13.5652C31.5174 13.5652 31.5171 13.5652 31.5167 13.5652C31.5164 13.5652 31.516 13.5652 31.5156 13.5652C31.5153 13.5652 31.5149 13.5652 31.5146 13.5652C31.5142 13.5652 31.5139 13.5652 31.5136 13.5652C31.5132 13.5652 31.5129 13.5652 31.5126 13.5652C31.5122 13.5652 31.5119 13.5652 31.5116 13.5652C31.5113 13.5652 31.5109 13.5652 31.5106 13.5652C31.5103 13.5652 31.51 13.5652 31.5097 13.5652C31.5094 13.5652 31.5091 13.5652 31.5088 13.5652C31.5085 13.5652 31.5082 13.5652 31.5079 13.5652C31.5076 13.5652 31.5073 13.5652 31.507 13.5652C31.5068 13.5652 31.5065 13.5652 31.5062 13.5652C31.5059 13.5652 31.5057 13.5652 31.5054 13.5652C31.5051 13.5652 31.5049 13.5652 31.5046 13.5652C31.5043 13.5652 31.5041 13.5652 31.5038 13.5652C31.5036 13.5652 31.5033 13.5652 31.5031 13.5652C31.5028 13.5652 31.5026 13.5652 31.5024 13.5652C31.5021 13.5652 31.5019 13.5652 31.5017 13.5652C31.5014 13.5652 31.5012 13.5652 31.501 13.5652C31.5008 13.5652 31.5005 13.5652 31.5003 13.5652C31.5001 13.5652 31.4999 13.5652 31.4997 13.5652C31.4995 13.5652 31.4993 13.5652 31.4991 13.5652C31.4989 13.5652 31.4987 13.5652 31.4985 13.5652C31.4983 13.5652 31.4981 13.5652 31.4979 13.5652C31.4977 13.5652 31.4976 13.5652 31.4974 13.5652C31.4972 13.5652 31.497 13.5652 31.4968 13.5652C31.4967 13.5652 31.4965 13.5652 31.4963 13.5652C31.4962 13.5652 31.496 13.5652 31.4959 13.5652C31.4957 13.5652 31.4955 13.5652 31.4954 13.5652C31.4952 13.5652 31.4951 13.5652 31.495 13.5652C31.4948 13.5652 31.4947 13.5652 31.4945 13.5652C31.4944 13.5652 31.4943 13.5652 31.4941 13.5652C31.494 13.5652 31.4939 13.5652 31.4937 13.5652C31.4936 13.5652 31.4935 13.5652 31.4934 13.5652C31.4933 13.5652 31.4932 13.5652 31.493 13.5652C31.4929 13.5652 31.4928 13.5652 31.4927 13.5652C31.4926 13.5652 31.4925 13.5652 31.4924 13.5652C31.4923 13.5652 31.4922 13.5652 31.4922 13.5652C31.4921 13.5652 31.492 13.5652 31.4919 13.5652C31.4918 13.5652 31.4917 13.5652 31.4917 13.5652C31.4916 13.5652 31.4915 13.5652 31.4914 13.5652C31.4914 13.5652 31.4913 13.5652 31.4912 13.5652C31.4912 13.5652 31.4911 13.5652 31.4911 13.5652C31.491 13.5652 31.4909 13.5652 31.4909 13.5652C31.4908 13.5652 31.4908 13.5652 31.4907 13.5652C31.4907 13.5652 31.4907 13.5652 31.4906 13.5652C31.4906 13.5652 31.4906 13.5652 31.4905 13.5652C31.4905 13.5652 31.4905 13.5652 31.4904 13.5652C31.4904 13.5652 31.4904 13.5652 31.4904 13.5652C31.4903 13.5652 31.4903 13.5652 31.4903 13.5652C31.4903 13.5652 31.4903 13.5652 31.4903 13.5652C31.4903 13.5652 31.4903 13.5652 31.4903 13.5652C31.4903 14.3152 31.4903 15.0652 31.4903 15.0652C31.4903 15.0652 31.4903 15.0652 31.4903 15.0652C31.4903 15.0652 31.4903 15.0652 31.4903 15.0652C31.4904 15.0652 31.4904 15.0652 31.4904 15.0652C31.4904 15.0652 31.4904 15.0652 31.4905 15.0652C31.4905 15.0652 31.4905 15.0652 31.4906 15.0652C31.4906 15.0652 31.4906 15.0652 31.4907 15.0652C31.4907 15.0652 31.4908 15.0652 31.4908 15.0652C31.4909 15.0652 31.4909 15.0652 31.491 15.0652C31.491 15.0652 31.4911 15.0652 31.4911 15.0652C31.4912 15.0652 31.4912 15.0652 31.4913 15.0652C31.4914 15.0652 31.4914 15.0652 31.4915 15.0652C31.4916 15.0652 31.4916 15.0652 31.4917 15.0652C31.4918 15.0652 31.4919 15.0652 31.4919 15.0652C31.492 15.0652 31.4921 15.0652 31.4922 15.0652C31.4923 15.0652 31.4924 15.0652 31.4924 15.0652C31.4925 15.0652 31.4926 15.0652 31.4927 15.0652C31.4928 15.0652 31.4929 15.0652 31.493 15.0652C31.4931 15.0652 31.4932 15.0652 31.4933 15.0652C31.4934 15.0652 31.4935 15.0652 31.4937 15.0652C31.4938 15.0652 31.4939 15.0652 31.494 15.0652C31.4941 15.0652 31.4942 15.0652 31.4944 15.0652C31.4945 15.0652 31.4946 15.0652 31.4947 15.0652C31.4949 15.0652 31.495 15.0652 31.4951 15.0652C31.4953 15.0652 31.4954 15.0652 31.4955 15.0652C31.4957 15.0652 31.4958 15.0652 31.4959 15.0652C31.4961 15.0652 31.4962 15.0652 31.4964 15.0652C31.4965 15.0652 31.4967 15.0652 31.4968 15.0652C31.497 15.0652 31.4971 15.0652 31.4973 15.0652C31.4974 15.0652 31.4976 15.0652 31.4978 15.0652C31.4979 15.0652 31.4981 15.0652 31.4983 15.0652C31.4984 15.0652 31.4986 15.0652 31.4988 15.0652C31.4989 15.0652 31.4991 15.0652 31.4993 15.0652C31.4995 15.0652 31.4996 15.0652 31.4998 15.0652C31.5 15.0652 31.5002 15.0652 31.5004 15.0652C31.5006 15.0652 31.5007 15.0652 31.5009 15.0652C31.5011 15.0652 31.5013 15.0652 31.5015 15.0652C31.5017 15.0652 31.5019 15.0652 31.5021 15.0652C31.5023 15.0652 31.5025 15.0652 31.5027 15.0652C31.5029 15.0652 31.5031 15.0652 31.5033 15.0652C31.5035 15.0652 31.5037 15.0652 31.5039 15.0652C31.5042 15.0652 31.5044 15.0652 31.5046 15.0652C31.5048 15.0652 31.505 15.0652 31.5052 15.0652C31.5055 15.0652 31.5057 15.0652 31.5059 15.0652C31.5061 15.0652 31.5064 15.0652 31.5066 15.0652C31.5068 15.0652 31.5071 15.0652 31.5073 15.0652C31.5075 15.0652 31.5078 15.0652 31.508 15.0652C31.5082 15.0652 31.5085 15.0652 31.5087 15.0652C31.509 15.0652 31.5092 15.0652 31.5094 15.0652C31.5097 15.0652 31.5099 15.0652 31.5102 15.0652C31.5104 15.0652 31.5107 15.0652 31.5109 15.0652C31.5112 15.0652 31.5114 15.0652 31.5117 15.0652C31.512 15.0652 31.5122 15.0652 31.5125 15.0652C31.5127 15.0652 31.513 15.0652 31.5133 15.0652C31.5135 15.0652 31.5138 15.0652 31.5141 15.0652C31.5143 15.0652 31.5146 15.0652 31.5149 15.0652C31.5152 15.0652 31.5154 15.0652 31.5157 15.0652C31.516 15.0652 31.5163 15.0652 31.5166 15.0652C31.5168 15.0652 31.5171 15.0652 31.5174 15.0652C31.5177 15.0652 31.518 15.0652 31.5183 15.0652C31.5185 15.0652 31.5188 15.0652 31.5191 15.0652C31.5194 15.0652 31.5197 15.0652 31.52 15.0652C31.5203 15.0652 31.5206 15.0652 31.5209 15.0652C31.5212 15.0652 31.5215 15.0652 31.5218 15.0652C31.5221 15.0652 31.5224 15.0652 31.5227 15.0652C31.523 15.0652 31.5233 15.0652 31.5236 15.0652C31.5239 15.0652 31.5242 15.0652 31.5246 15.0652C31.5249 15.0652 31.5252 15.0652 31.5255 15.0652C31.5258 15.0652 31.5261 15.0652 31.5264 15.0652C31.5268 15.0652 31.5271 15.0652 31.5274 15.0652C31.5277 15.0652 31.528 15.0652 31.5284 15.0652C31.5287 15.0652 31.529 15.0652 31.5294 15.0652C31.5297 15.0652 31.53 15.0652 31.5303 15.0652C31.5307 15.0652 31.531 15.0652 31.5313 15.0652C31.5317 15.0652 31.532 15.0652 31.5323 15.0652C31.5327 15.0652 31.533 15.0652 31.5334 15.0652C31.5337 15.0652 31.534 15.0652 31.5344 15.0652C31.5347 15.0652 31.5351 15.0652 31.5354 15.0652C31.5358 15.0652 31.5361 15.0652 31.5365 15.0652C31.5368 15.0652 31.5372 15.0652 31.5375 15.0652C31.5379 15.0652 31.5382 15.0652 31.5386 15.0652C31.5389 15.0652 31.5393 15.0652 31.5396 15.0652C31.54 15.0652 31.5403 15.0652 31.5407 15.0652C31.5411 15.0652 31.5414 15.0652 31.5418 15.0652C31.5421 15.0652 31.5425 15.0652 31.5429 15.0652C31.5432 15.0652 31.5436 15.0652 31.544 15.0652C31.5443 15.0652 31.5447 15.0652 31.5451 15.0652C31.5454 15.0652 31.5458 15.0652 31.5462 15.0652C31.5466 15.0652 31.5469 15.0652 31.5473 15.0652C31.5477 15.0652 31.5481 15.0652 31.5484 15.0652C31.5488 15.0652 31.5492 15.0652 31.5496 15.0652C31.55 15.0652 31.5503 15.0652 31.5507 15.0652C31.5511 15.0652 31.5515 15.0652 31.5519 15.0652C31.5522 15.0652 31.5526 15.0652 31.553 15.0652C31.5534 15.0652 31.5538 15.0652 31.5542 15.0652C31.5546 15.0652 31.555 15.0652 31.5553 15.0652C31.5557 15.0652 31.5561 15.0652 31.5565 15.0652C31.5569 15.0652 31.5573 15.0652 31.5577 15.0652C31.5581 15.0652 31.5585 15.0652 31.5589 15.0652C31.5593 15.0652 31.5597 15.0652 31.5601 15.0652C31.5605 15.0652 31.5609 15.0652 31.5613 15.0652C31.5617 15.0652 31.5621 15.0652 31.5625 15.0652C31.5629 15.0652 31.5633 15.0652 31.5637 15.0652C31.5641 15.0652 31.5645 15.0652 31.5649 15.0652C31.5653 15.0652 31.5657 15.0652 31.5661 15.0652C31.5665 15.0652 31.567 15.0652 31.5674 15.0652C31.5678 15.0652 31.5682 15.0652 31.5686 15.0652C31.569 15.0652 31.5694 15.0652 31.5698 15.0652C31.5702 15.0652 31.5707 15.0652 31.5711 15.0652C31.5715 15.0652 31.5719 15.0652 31.5723 15.0652C31.5727 15.0652 31.5731 15.0652 31.5736 15.0652C31.574 15.0652 31.5744 15.0652 31.5748 15.0652C31.5752 15.0652 31.5757 15.0652 31.5761 15.0652C31.5765 15.0652 31.5769 15.0652 31.5773 15.0652C31.5778 15.0652 31.5782 15.0652 31.5786 15.0652C31.579 15.0652 31.5795 15.0652 31.5799 15.0652C31.5803 15.0652 31.5807 15.0652 31.5812 15.0652C31.5816 15.0652 31.582 15.0652 31.5824 15.0652C31.5829 15.0652 31.5833 15.0652 31.5837 15.0652C31.5842 15.0652 31.5846 15.0652 31.585 15.0652C31.5854 15.0652 31.5859 15.0652 31.5863 15.0652C31.5867 15.0652 31.5872 15.0652 31.5876 15.0652C31.588 15.0652 31.5885 15.0652 31.5889 15.0652C31.5893 15.0652 31.5898 15.0652 31.5902 15.0652C31.5906 15.0652 31.5911 15.0652 31.5915 15.0652C31.5919 15.0652 31.5924 15.0652 31.5928 15.0652C31.5932 15.0652 31.5937 15.0652 31.5941 15.0652C31.5945 15.0652 31.595 15.0652 31.5954 15.0652C31.5959 15.0652 31.5963 15.0652 31.5967 15.0652C31.5972 15.0652 31.5976 15.0652 31.5981 15.0652C31.5985 15.0652 31.5989 15.0652 31.5994 15.0652C31.5998 15.0652 31.6003 15.0652 31.6007 15.0652C31.6011 15.0652 31.6016 15.0652 31.602 15.0652C31.6025 15.0652 31.6029 15.0652 31.6033 15.0652C31.6038 15.0652 31.6042 15.0652 31.6047 15.0652C31.6051 15.0652 31.6055 15.0652 31.606 15.0652C31.6064 15.0652 31.6069 15.0652 31.6073 15.0652C31.6078 15.0652 31.6082 15.0652 31.6086 15.0652C31.6091 15.0652 31.6095 15.0652 31.61 15.0652C31.6104 15.0652 31.6109 15.0652 31.6113 15.0652C31.6118 15.0652 31.6122 15.0652 31.6126 15.0652C31.6131 15.0652 31.6135 15.0652 31.614 15.0652C31.6144 15.0652 31.6149 15.0652 31.6153 15.0652C31.6158 15.0652 31.6162 15.0652 31.6167 15.0652C31.6171 15.0652 31.6175 15.0652 31.618 15.0652C31.6184 15.0652 31.6189 15.0652 31.6193 15.0652C31.6198 15.0652 31.6202 15.0652 31.6207 15.0652C31.6211 15.0652 31.6216 15.0652 31.622 15.0652C31.6224 15.0652 31.6229 15.0652 31.6233 15.0652C31.6238 15.0652 31.6242 15.0652 31.6247 15.0652C31.6251 15.0652 31.6256 15.0652 31.626 15.0652C31.6265 15.0652 31.6269 15.0652 31.6273 15.0652C31.6278 15.0652 31.6282 15.0652 31.6287 15.0652C31.6291 15.0652 31.6296 15.0652 31.63 15.0652C31.6305 15.0652 31.6309 15.0652 31.6313 15.0652C31.6318 15.0652 31.6322 15.0652 31.6327 15.0652C31.6331 15.0652 31.6336 15.0652 31.634 15.0652C31.6345 15.0652 31.6349 15.0652 31.6353 15.0652C31.6358 15.0652 31.6362 15.0652 31.6367 15.0652C31.6371 15.0652 31.6376 15.0652 31.638 15.0652C31.6384 15.0652 31.6389 15.0652 31.6393 15.0652C31.6398 15.0652 31.6402 15.0652 31.6407 15.0652C31.6411 15.0652 31.6415 15.0652 31.642 15.0652C31.6424 15.0652 31.6429 15.0652 31.6433 15.0652C31.6437 15.0652 31.6442 15.0652 31.6446 15.0652C31.6451 15.0652 31.6455 15.0652 31.6459 15.0652C31.6464 15.0652 31.6468 15.0652 31.6473 15.0652C31.6477 15.0652 31.6481 15.0652 31.6486 15.0652C31.649 15.0652 31.6494 15.0652 31.6499 15.0652C31.6503 15.0652 31.6508 15.0652 31.6512 15.0652C31.6516 15.0652 31.6521 15.0652 31.6525 15.0652C31.6529 15.0652 31.6534 15.0652 31.6538 15.0652C31.6542 15.0652 31.6547 15.0652 31.6551 15.0652C31.6555 15.0652 31.656 15.0652 31.6564 15.0652C31.6568 15.0652 31.6573 15.0652 31.6577 15.0652C31.6581 15.0652 31.6586 15.0652 31.659 15.0652C31.6594 15.0652 31.6598 15.0652 31.6603 15.0652C31.6607 15.0652 31.6611 15.0652 31.6616 15.0652C31.662 15.0652 31.6624 15.0652 31.6628 15.0652C31.6633 15.0652 31.6637 15.0652 31.6641 15.0652C31.6645 15.0652 31.665 15.0652 31.6654 15.0652C31.6658 15.0652 31.6662 15.0652 31.6666 15.0652C31.6671 15.0652 31.6675 15.0652 31.6679 15.0652C31.6683 15.0652 31.6688 15.0652 31.6692 15.0652C31.6696 15.0652 31.67 15.0652 31.6704 15.0652C31.6708 15.0652 31.6713 15.0652 31.6717 15.0652C31.6721 15.0652 31.6725 15.0652 31.6729 15.0652C31.6733 15.0652 31.6738 15.0652 31.6742 15.0652C31.6746 15.0652 31.675 15.0652 31.6754 15.0652C31.6758 15.0652 31.6762 15.0652 31.6766 15.0652C31.677 15.0652 31.6775 15.0652 31.6779 15.0652C31.6783 15.0652 31.6787 15.0652 31.6791 15.0652C31.6795 15.0652 31.6799 15.0652 31.6803 15.0652C31.6807 15.0652 31.6811 15.0652 31.6815 15.0652C31.6819 15.0652 31.6823 15.0652 31.6827 15.0652C31.6831 15.0652 31.6835 15.0652 31.6839 15.0652C31.6843 15.0652 31.6847 15.0652 31.6851 15.0652C31.6855 15.0652 31.6859 15.0652 31.6863 15.0652C31.6867 15.0652 31.6871 15.0652 31.6875 15.0652C31.6879 15.0652 31.6883 15.0652 31.6886 15.0652C31.689 15.0652 31.6894 15.0652 31.6898 15.0652C31.6902 15.0652 31.6906 15.0652 31.691 15.0652C31.6914 15.0652 31.6917 15.0652 31.6921 15.0652C31.6925 15.0652 31.6929 15.0652 31.6933 15.0652C31.6937 15.0652 31.694 15.0652 31.6944 15.0652C31.6948 15.0652 31.6952 15.0652 31.6956 15.0652C31.6959 15.0652 31.6963 15.0652 31.6967 15.0652C31.6971 15.0652 31.6974 15.0652 31.6978 15.0652C31.6982 15.0652 31.6985 15.0652 31.6989 15.0652C31.6993 15.0652 31.6997 15.0652 31.7 15.0652C31.7004 15.0652 31.7008 15.0652 31.7011 15.0652C31.7015 15.0652 31.7018 15.0652 31.7022 15.0652C31.7026 15.0652 31.7029 15.0652 31.7033 15.0652C31.7037 15.0652 31.704 15.0652 31.7044 15.0652C31.7047 15.0652 31.7051 15.0652 31.7054 15.0652C31.7058 15.0652 31.7061 15.0652 31.7065 15.0652C31.7068 15.0652 31.7072 15.0652 31.7075 15.0652C31.7079 15.0652 31.7082 15.0652 31.7086 15.0652C31.7089 15.0652 31.7093 15.0652 31.7096 15.0652C31.71 15.0652 31.7103 15.0652 31.7106 15.0652C31.711 15.0652 31.7113 15.0652 31.7117 15.0652C31.712 15.0652 31.7123 15.0652 31.7127 15.0652C31.713 15.0652 31.7133 15.0652 31.7137 15.0652C31.714 15.0652 31.7143 15.0652 31.7146 15.0652C31.715 15.0652 31.7153 15.0652 31.7156 15.0652C31.7159 15.0652 31.7163 15.0652 31.7166 15.0652C31.7169 15.0652 31.7172 15.0652 31.7176 15.0652C31.7179 15.0652 31.7182 15.0652 31.7185 15.0652C31.7188 15.0652 31.7191 15.0652 31.7194 15.0652C31.7198 15.0652 31.7201 15.0652 31.7204 15.0652C31.7207 15.0652 31.721 15.0652 31.7213 15.0652C31.7216 15.0652 31.7219 15.0652 31.7222 15.0652C31.7225 15.0652 31.7228 15.0652 31.7231 15.0652C31.7234 15.0652 31.7237 15.0652 31.724 15.0652C31.7243 15.0652 31.7246 15.0652 31.7249 15.0652C31.7252 15.0652 31.7255 15.0652 31.7257 15.0652C31.726 15.0652 31.7263 15.0652 31.7266 15.0652C31.7269 15.0652 31.7272 15.0652 31.7274 15.0652C31.7277 15.0652 31.728 15.0652 31.7283 15.0652C31.7286 15.0652 31.7288 15.0652 31.7291 15.0652C31.7294 15.0652 31.7296 15.0652 31.7299 15.0652C31.7302 15.0652 31.7305 15.0652 31.7307 15.0652C31.731 15.0652 31.7312 15.0652 31.7315 15.0652C31.7318 15.0652 31.732 15.0652 31.7323 15.0652C31.7325 15.0652 31.7328 15.0652 31.7331 15.0652C31.7333 15.0652 31.7336 15.0652 31.7338 15.0652C31.7341 15.0652 31.7343 15.0652 31.7346 15.0652C31.7348 15.0652 31.735 15.0652 31.7353 15.0652C31.7355 15.0652 31.7358 15.0652 31.736 15.0652C31.7362 15.0652 31.7365 15.0652 31.7367 15.0652C31.7369 15.0652 31.7372 15.0652 31.7374 15.0652C31.7376 15.0652 31.7379 15.0652 31.7381 15.0652C31.7383 15.0652 31.7385 15.0652 31.7388 15.0652C31.739 15.0652 31.7392 15.0652 31.7394 15.0652C31.7396 15.0652 31.7398 15.0652 31.7401 15.0652C31.7403 15.0652 31.7405 15.0652 31.7407 15.0652C31.7409 15.0652 31.7411 15.0652 31.7413 15.0652C31.7415 15.0652 31.7417 15.0652 31.7419 15.0652C31.7421 15.0652 31.7423 15.0652 31.7425 15.0652C31.7427 15.0652 31.7429 15.0652 31.7431 15.0652C31.7433 15.0652 31.7434 15.0652 31.7436 15.0652C31.7438 15.0652 31.744 15.0652 31.7442 15.0652C31.7444 15.0652 31.7445 15.0652 31.7447 15.0652C31.7449 15.0652 31.7451 15.0652 31.7452 15.0652C31.7454 15.0652 31.7456 15.0652 31.7457 15.0652C31.7459 15.0652 31.7461 15.0652 31.7462 15.0652C31.7464 15.0652 31.7466 15.0652 31.7467 15.0652C31.7469 15.0652 31.747 15.0652 31.7472 15.0652C31.7473 15.0652 31.7475 15.0652 31.7476 15.0652C31.7478 15.0652 31.7479 15.0652 31.7481 15.0652C31.7482 15.0652 31.7483 15.0652 31.7485 15.0652C31.7486 15.0652 31.7487 15.0652 31.7489 15.0652C31.749 15.0652 31.7491 15.0652 31.7493 15.0652C31.7494 15.0652 31.7495 15.0652 31.7496 15.0652C31.7498 15.0652 31.7499 15.0652 31.75 15.0652C31.7501 15.0652 31.7502 15.0652 31.7503 15.0652C31.7504 15.0652 31.7506 15.0652 31.7507 15.0652C31.7508 15.0652 31.7509 15.0652 31.751 15.0652C31.7511 15.0652 31.7512 15.0652 31.7513 15.0652C31.7514 15.0652 31.7515 15.0652 31.7515 15.0652C31.7516 15.0652 31.7517 15.0652 31.7518 15.0652C31.7519 15.0652 31.752 15.0652 31.7521 15.0652C31.7521 15.0652 31.7522 15.0652 31.7523 15.0652C31.7524 15.0652 31.7524 15.0652 31.7525 15.0652C31.7526 15.0652 31.7526 15.0652 31.7527 15.0652C31.7528 15.0652 31.7528 15.0652 31.7529 15.0652C31.7529 15.0652 31.753 15.0652 31.753 15.0652C31.7531 15.0652 31.7531 15.0652 31.7532 15.0652C31.7532 15.0652 31.7533 15.0652 31.7533 15.0652C31.7534 15.0652 31.7534 15.0652 31.7534 15.0652C31.7535 15.0652 31.7535 15.0652 31.7535 15.0652C31.7535 15.0652 31.7536 15.0652 31.7536 15.0652C31.7536 15.0652 31.7536 15.0652 31.7537 15.0652C31.7537 15.0652 31.7537 15.0652 31.7537 15.0652C31.7537 15.0652 31.7537 15.0652 31.7537 15.0652C31.7537 15.0652 31.7537 14.3152 31.7537 13.5652C31.7537 13.5652 31.7537 13.5652 31.7537 13.5652C31.7537 13.5652 31.7537 13.5652 31.7537 13.5652C31.7537 13.5652 31.7537 13.5652 31.7536 13.5652C31.7536 13.5652 31.7536 13.5652 31.7536 13.5652C31.7535 13.5652 31.7535 13.5652 31.7535 13.5652C31.7534 13.5652 31.7534 13.5652 31.7534 13.5652C31.7533 13.5652 31.7533 13.5652 31.7532 13.5652C31.7532 13.5652 31.7532 13.5652 31.7531 13.5652C31.7531 13.5652 31.753 13.5652 31.7529 13.5652C31.7529 13.5652 31.7528 13.5652 31.7528 13.5652C31.7527 13.5652 31.7526 13.5652 31.7526 13.5652C31.7525 13.5652 31.7524 13.5652 31.7523 13.5652C31.7523 13.5652 31.7522 13.5652 31.7521 13.5652C31.752 13.5652 31.7519 13.5652 31.7518 13.5652C31.7518 13.5652 31.7517 13.5652 31.7516 13.5652C31.7515 13.5652 31.7514 13.5652 31.7513 13.5652C31.7512 13.5652 31.7511 13.5652 31.7509 13.5652C31.7508 13.5652 31.7507 13.5652 31.7506 13.5652C31.7505 13.5652 31.7504 13.5652 31.7502 13.5652C31.7501 13.5652 31.75 13.5652 31.7499 13.5652C31.7497 13.5652 31.7496 13.5652 31.7495 13.5652C31.7493 13.5652 31.7492 13.5652 31.749 13.5652C31.7489 13.5652 31.7488 13.5652 31.7486 13.5652C31.7485 13.5652 31.7483 13.5652 31.7481 13.5652C31.748 13.5652 31.7478 13.5652 31.7477 13.5652C31.7475 13.5652 31.7473 13.5652 31.7471 13.5652C31.747 13.5652 31.7468 13.5652 31.7466 13.5652C31.7464 13.5652 31.7463 13.5652 31.7461 13.5652C31.7459 13.5652 31.7457 13.5652 31.7455 13.5652C31.7453 13.5652 31.7451 13.5652 31.7449 13.5652C31.7447 13.5652 31.7445 13.5652 31.7443 13.5652C31.7441 13.5652 31.7439 13.5652 31.7437 13.5652C31.7435 13.5652 31.7432 13.5652 31.743 13.5652C31.7428 13.5652 31.7426 13.5652 31.7423 13.5652C31.7421 13.5652 31.7419 13.5652 31.7416 13.5652C31.7414 13.5652 31.7412 13.5652 31.7409 13.5652C31.7407 13.5652 31.7404 13.5652 31.7402 13.5652C31.7399 13.5652 31.7397 13.5652 31.7394 13.5652C31.7391 13.5652 31.7389 13.5652 31.7386 13.5652C31.7383 13.5652 31.7381 13.5652 31.7378 13.5652C31.7375 13.5652 31.7372 13.5652 31.7369 13.5652C31.7367 13.5652 31.7364 13.5652 31.7361 13.5652C31.7358 13.5652 31.7355 13.5652 31.7352 13.5652C31.7349 13.5652 31.7346 13.5652 31.7343 13.5652C31.734 13.5652 31.7337 13.5652 31.7334 13.5652C31.733 13.5652 31.7327 13.5652 31.7324 13.5652C31.7321 13.5652 31.7318 13.5652 31.7314 13.5652C31.7311 13.5652 31.7308 13.5652 31.7304 13.5652C31.7301 13.5652 31.7297 13.5652 31.7294 13.5652C31.7291 13.5652 31.7287 13.5652 31.7284 13.5652C31.728 13.5652 31.7276 13.5652 31.7273 13.5652C31.7269 13.5652 31.7265 13.5652 31.7262 13.5652C31.7258 13.5652 31.7254 13.5652 31.7251 13.5652C31.7247 13.5652 31.7243 13.5652 31.7239 13.5652C31.7235 13.5652 31.7231 13.5652 31.7227 13.5652C31.7223 13.5652 31.7219 13.5652 31.7215 13.5652C31.7211 13.5652 31.7207 13.5652 31.7203 13.5652C31.7199 13.5652 31.7195 13.5652 31.7191 13.5652C31.7186 13.5652 31.7182 13.5652 31.7178 13.5652C31.7174 13.5652 31.7169 13.5652 31.7165 13.5652C31.7161 13.5652 31.7156 13.5652 31.7152 13.5652C31.7147 13.5652 31.7143 13.5652 31.7138 13.5652C31.7134 13.5652 31.7129 13.5652 31.7124 13.5652C31.712 13.5652 31.7115 13.5652 31.711 13.5652C31.7106 13.5652 31.7101 13.5652 31.7096 13.5652C31.7091 13.5652 31.7087 13.5652 31.7082 13.5652C31.7077 13.5652 31.7072 13.5652 31.7067 13.5652C31.7062 13.5652 31.7057 13.5652 31.7052 13.5652C31.7047 13.5652 31.7042 13.5652 31.7037 13.5652C31.7031 13.5652 31.7026 13.5652 31.7021 13.5652C31.7016 13.5652 31.701 13.5652 31.7005 13.5652C31.7 13.5652 31.6994 13.5652 31.6989 13.5652C31.6984 13.5652 31.6978 13.5652 31.6973 13.5652C31.6967 13.5652 31.6962 13.5652 31.6956 13.5652C31.695 13.5652 31.6945 13.5652 31.6939 13.5652C31.6933 13.5652 31.6928 13.5652 31.6922 13.5652C31.6916 13.5652 31.691 13.5652 31.6904 13.5652C31.6898 13.5652 31.6893 13.5652 31.6887 13.5652C31.6881 13.5652 31.6875 13.5652 31.6869 13.5652C31.6863 13.5652 31.6856 13.5652 31.685 13.5652C31.6844 13.5652 31.6838 13.5652 31.6832 13.5652C31.6825 13.5652 31.6819 13.5652 31.6813 13.5652C31.6806 13.5652 31.68 13.5652 31.6794 13.5652C31.6787 13.5652 31.6781 13.5652 31.6774 13.5652C31.6768 13.5652 31.6761 13.5652 31.6755 13.5652C31.6748 13.5652 31.6741 13.5652 31.6735 13.5652C31.6728 13.5652 31.6721 13.5652 31.6714 13.5652C31.6707 13.5652 31.6701 13.5652 31.6694 13.5652C31.6687 13.5652 31.668 13.5652 31.6673 13.5652C31.6666 13.5652 31.6659 13.5652 31.6652 13.5652C31.6645 13.5652 31.6637 13.5652 31.663 13.5652C31.6623 13.5652 31.6616 13.5652 31.6609 13.5652C31.6601 13.5652 31.6594 13.5652 31.6586 13.5652C31.6579 13.5652 31.6572 13.5652 31.6564 13.5652C31.6557 13.5652 31.6549 13.5652 31.6542 13.5652C31.6534 13.5652 31.6526 13.5652 31.6519 13.5652C31.6511 13.5652 31.6503 13.5652 31.6495 13.5652C31.6488 13.5652 31.648 13.5652 31.6472 13.5652C31.6464 13.5652 31.6456 13.5652 31.6448 13.5652C31.644 13.5652 31.6432 13.5652 31.6424 13.5652C31.6416 13.5652 31.6408 13.5652 31.64 13.5652C31.6391 13.5652 31.6383 13.5652 31.6375 13.5652C31.6367 13.5652 31.6358 13.5652 31.635 13.5652C31.6341 13.5652 31.6333 13.5652 31.6324 13.5652C31.6316 13.5652 31.6307 13.5652 31.6299 13.5652C31.629 13.5652 31.6282 13.5652 31.6273 13.5652C31.6264 13.5652 31.6255 13.5652 31.6247 13.5652C31.6238 13.5652 31.6229 13.5652 31.622 13.5652V15.0652C31.6229 15.0652 31.6238 15.0652 31.6247 15.0652C31.6255 15.0652 31.6264 15.0652 31.6273 15.0652C31.6282 15.0652 31.629 15.0652 31.6299 15.0652C31.6307 15.0652 31.6316 15.0652 31.6324 15.0652C31.6333 15.0652 31.6341 15.0652 31.635 15.0652C31.6358 15.0652 31.6367 15.0652 31.6375 15.0652C31.6383 15.0652 31.6391 15.0652 31.64 15.0652C31.6408 15.0652 31.6416 15.0652 31.6424 15.0652C31.6432 15.0652 31.644 15.0652 31.6448 15.0652C31.6456 15.0652 31.6464 15.0652 31.6472 15.0652C31.648 15.0652 31.6488 15.0652 31.6495 15.0652C31.6503 15.0652 31.6511 15.0652 31.6519 15.0652C31.6526 15.0652 31.6534 15.0652 31.6542 15.0652C31.6549 15.0652 31.6557 15.0652 31.6564 15.0652C31.6572 15.0652 31.6579 15.0652 31.6586 15.0652C31.6594 15.0652 31.6601 15.0652 31.6609 15.0652C31.6616 15.0652 31.6623 15.0652 31.663 15.0652C31.6637 15.0652 31.6645 15.0652 31.6652 15.0652C31.6659 15.0652 31.6666 15.0652 31.6673 15.0652C31.668 15.0652 31.6687 15.0652 31.6694 15.0652C31.6701 15.0652 31.6707 15.0652 31.6714 15.0652C31.6721 15.0652 31.6728 15.0652 31.6735 15.0652C31.6741 15.0652 31.6748 15.0652 31.6755 15.0652C31.6761 15.0652 31.6768 15.0652 31.6774 15.0652C31.6781 15.0652 31.6787 15.0652 31.6794 15.0652C31.68 15.0652 31.6806 15.0652 31.6813 15.0652C31.6819 15.0652 31.6825 15.0652 31.6832 15.0652C31.6838 15.0652 31.6844 15.0652 31.685 15.0652C31.6856 15.0652 31.6863 15.0652 31.6869 15.0652C31.6875 15.0652 31.6881 15.0652 31.6887 15.0652C31.6893 15.0652 31.6898 15.0652 31.6904 15.0652C31.691 15.0652 31.6916 15.0652 31.6922 15.0652C31.6928 15.0652 31.6933 15.0652 31.6939 15.0652C31.6945 15.0652 31.695 15.0652 31.6956 15.0652C31.6962 15.0652 31.6967 15.0652 31.6973 15.0652C31.6978 15.0652 31.6984 15.0652 31.6989 15.0652C31.6994 15.0652 31.7 15.0652 31.7005 15.0652C31.701 15.0652 31.7016 15.0652 31.7021 15.0652C31.7026 15.0652 31.7031 15.0652 31.7037 15.0652C31.7042 15.0652 31.7047 15.0652 31.7052 15.0652C31.7057 15.0652 31.7062 15.0652 31.7067 15.0652C31.7072 15.0652 31.7077 15.0652 31.7082 15.0652C31.7087 15.0652 31.7091 15.0652 31.7096 15.0652C31.7101 15.0652 31.7106 15.0652 31.711 15.0652C31.7115 15.0652 31.712 15.0652 31.7124 15.0652C31.7129 15.0652 31.7134 15.0652 31.7138 15.0652C31.7143 15.0652 31.7147 15.0652 31.7152 15.0652C31.7156 15.0652 31.7161 15.0652 31.7165 15.0652C31.7169 15.0652 31.7174 15.0652 31.7178 15.0652C31.7182 15.0652 31.7186 15.0652 31.7191 15.0652C31.7195 15.0652 31.7199 15.0652 31.7203 15.0652C31.7207 15.0652 31.7211 15.0652 31.7215 15.0652C31.7219 15.0652 31.7223 15.0652 31.7227 15.0652C31.7231 15.0652 31.7235 15.0652 31.7239 15.0652C31.7243 15.0652 31.7247 15.0652 31.7251 15.0652C31.7254 15.0652 31.7258 15.0652 31.7262 15.0652C31.7265 15.0652 31.7269 15.0652 31.7273 15.0652C31.7276 15.0652 31.728 15.0652 31.7284 15.0652C31.7287 15.0652 31.7291 15.0652 31.7294 15.0652C31.7297 15.0652 31.7301 15.0652 31.7304 15.0652C31.7308 15.0652 31.7311 15.0652 31.7314 15.0652C31.7318 15.0652 31.7321 15.0652 31.7324 15.0652C31.7327 15.0652 31.733 15.0652 31.7334 15.0652C31.7337 15.0652 31.734 15.0652 31.7343 15.0652C31.7346 15.0652 31.7349 15.0652 31.7352 15.0652C31.7355 15.0652 31.7358 15.0652 31.7361 15.0652C31.7364 15.0652 31.7367 15.0652 31.7369 15.0652C31.7372 15.0652 31.7375 15.0652 31.7378 15.0652C31.7381 15.0652 31.7383 15.0652 31.7386 15.0652C31.7389 15.0652 31.7391 15.0652 31.7394 15.0652C31.7397 15.0652 31.7399 15.0652 31.7402 15.0652C31.7404 15.0652 31.7407 15.0652 31.7409 15.0652C31.7412 15.0652 31.7414 15.0652 31.7416 15.0652C31.7419 15.0652 31.7421 15.0652 31.7423 15.0652C31.7426 15.0652 31.7428 15.0652 31.743 15.0652C31.7432 15.0652 31.7435 15.0652 31.7437 15.0652C31.7439 15.0652 31.7441 15.0652 31.7443 15.0652C31.7445 15.0652 31.7447 15.0652 31.7449 15.0652C31.7451 15.0652 31.7453 15.0652 31.7455 15.0652C31.7457 15.0652 31.7459 15.0652 31.7461 15.0652C31.7463 15.0652 31.7464 15.0652 31.7466 15.0652C31.7468 15.0652 31.747 15.0652 31.7471 15.0652C31.7473 15.0652 31.7475 15.0652 31.7477 15.0652C31.7478 15.0652 31.748 15.0652 31.7481 15.0652C31.7483 15.0652 31.7485 15.0652 31.7486 15.0652C31.7488 15.0652 31.7489 15.0652 31.749 15.0652C31.7492 15.0652 31.7493 15.0652 31.7495 15.0652C31.7496 15.0652 31.7497 15.0652 31.7499 15.0652C31.75 15.0652 31.7501 15.0652 31.7502 15.0652C31.7504 15.0652 31.7505 15.0652 31.7506 15.0652C31.7507 15.0652 31.7508 15.0652 31.7509 15.0652C31.7511 15.0652 31.7512 15.0652 31.7513 15.0652C31.7514 15.0652 31.7515 15.0652 31.7516 15.0652C31.7517 15.0652 31.7518 15.0652 31.7518 15.0652C31.7519 15.0652 31.752 15.0652 31.7521 15.0652C31.7522 15.0652 31.7523 15.0652 31.7523 15.0652C31.7524 15.0652 31.7525 15.0652 31.7526 15.0652C31.7526 15.0652 31.7527 15.0652 31.7528 15.0652C31.7528 15.0652 31.7529 15.0652 31.7529 15.0652C31.753 15.0652 31.7531 15.0652 31.7531 15.0652C31.7532 15.0652 31.7532 15.0652 31.7532 15.0652C31.7533 15.0652 31.7533 15.0652 31.7534 15.0652C31.7534 15.0652 31.7534 15.0652 31.7535 15.0652C31.7535 15.0652 31.7535 15.0652 31.7536 15.0652C31.7536 15.0652 31.7536 15.0652 31.7536 15.0652C31.7537 15.0652 31.7537 15.0652 31.7537 15.0652C31.7537 15.0652 31.7537 15.0652 31.7537 15.0652C31.7537 15.0652 31.7537 15.0652 31.7537 15.0652C31.7537 14.3152 31.7537 13.5652 31.7537 13.5652C31.7537 13.5652 31.7537 13.5652 31.7537 13.5652C31.7537 13.5652 31.7537 13.5652 31.7537 13.5652C31.7536 13.5652 31.7536 13.5652 31.7536 13.5652C31.7536 13.5652 31.7535 13.5652 31.7535 13.5652C31.7535 13.5652 31.7535 13.5652 31.7534 13.5652C31.7534 13.5652 31.7534 13.5652 31.7533 13.5652C31.7533 13.5652 31.7532 13.5652 31.7532 13.5652C31.7531 13.5652 31.7531 13.5652 31.753 13.5652C31.753 13.5652 31.7529 13.5652 31.7529 13.5652C31.7528 13.5652 31.7528 13.5652 31.7527 13.5652C31.7526 13.5652 31.7526 13.5652 31.7525 13.5652C31.7524 13.5652 31.7524 13.5652 31.7523 13.5652C31.7522 13.5652 31.7521 13.5652 31.7521 13.5652C31.752 13.5652 31.7519 13.5652 31.7518 13.5652C31.7517 13.5652 31.7516 13.5652 31.7515 13.5652C31.7515 13.5652 31.7514 13.5652 31.7513 13.5652C31.7512 13.5652 31.7511 13.5652 31.751 13.5652C31.7509 13.5652 31.7508 13.5652 31.7507 13.5652C31.7506 13.5652 31.7504 13.5652 31.7503 13.5652C31.7502 13.5652 31.7501 13.5652 31.75 13.5652C31.7499 13.5652 31.7498 13.5652 31.7496 13.5652C31.7495 13.5652 31.7494 13.5652 31.7493 13.5652C31.7491 13.5652 31.749 13.5652 31.7489 13.5652C31.7487 13.5652 31.7486 13.5652 31.7485 13.5652C31.7483 13.5652 31.7482 13.5652 31.7481 13.5652C31.7479 13.5652 31.7478 13.5652 31.7476 13.5652C31.7475 13.5652 31.7473 13.5652 31.7472 13.5652C31.747 13.5652 31.7469 13.5652 31.7467 13.5652C31.7466 13.5652 31.7464 13.5652 31.7462 13.5652C31.7461 13.5652 31.7459 13.5652 31.7457 13.5652C31.7456 13.5652 31.7454 13.5652 31.7452 13.5652C31.7451 13.5652 31.7449 13.5652 31.7447 13.5652C31.7445 13.5652 31.7444 13.5652 31.7442 13.5652C31.744 13.5652 31.7438 13.5652 31.7436 13.5652C31.7434 13.5652 31.7433 13.5652 31.7431 13.5652C31.7429 13.5652 31.7427 13.5652 31.7425 13.5652C31.7423 13.5652 31.7421 13.5652 31.7419 13.5652C31.7417 13.5652 31.7415 13.5652 31.7413 13.5652C31.7411 13.5652 31.7409 13.5652 31.7407 13.5652C31.7405 13.5652 31.7403 13.5652 31.7401 13.5652C31.7398 13.5652 31.7396 13.5652 31.7394 13.5652C31.7392 13.5652 31.739 13.5652 31.7388 13.5652C31.7385 13.5652 31.7383 13.5652 31.7381 13.5652C31.7379 13.5652 31.7376 13.5652 31.7374 13.5652C31.7372 13.5652 31.7369 13.5652 31.7367 13.5652C31.7365 13.5652 31.7362 13.5652 31.736 13.5652C31.7358 13.5652 31.7355 13.5652 31.7353 13.5652C31.735 13.5652 31.7348 13.5652 31.7346 13.5652C31.7343 13.5652 31.7341 13.5652 31.7338 13.5652C31.7336 13.5652 31.7333 13.5652 31.7331 13.5652C31.7328 13.5652 31.7325 13.5652 31.7323 13.5652C31.732 13.5652 31.7318 13.5652 31.7315 13.5652C31.7312 13.5652 31.731 13.5652 31.7307 13.5652C31.7305 13.5652 31.7302 13.5652 31.7299 13.5652C31.7296 13.5652 31.7294 13.5652 31.7291 13.5652C31.7288 13.5652 31.7286 13.5652 31.7283 13.5652C31.728 13.5652 31.7277 13.5652 31.7274 13.5652C31.7272 13.5652 31.7269 13.5652 31.7266 13.5652C31.7263 13.5652 31.726 13.5652 31.7257 13.5652C31.7255 13.5652 31.7252 13.5652 31.7249 13.5652C31.7246 13.5652 31.7243 13.5652 31.724 13.5652C31.7237 13.5652 31.7234 13.5652 31.7231 13.5652C31.7228 13.5652 31.7225 13.5652 31.7222 13.5652C31.7219 13.5652 31.7216 13.5652 31.7213 13.5652C31.721 13.5652 31.7207 13.5652 31.7204 13.5652C31.7201 13.5652 31.7198 13.5652 31.7194 13.5652C31.7191 13.5652 31.7188 13.5652 31.7185 13.5652C31.7182 13.5652 31.7179 13.5652 31.7176 13.5652C31.7172 13.5652 31.7169 13.5652 31.7166 13.5652C31.7163 13.5652 31.7159 13.5652 31.7156 13.5652C31.7153 13.5652 31.715 13.5652 31.7146 13.5652C31.7143 13.5652 31.714 13.5652 31.7137 13.5652C31.7133 13.5652 31.713 13.5652 31.7127 13.5652C31.7123 13.5652 31.712 13.5652 31.7117 13.5652C31.7113 13.5652 31.711 13.5652 31.7106 13.5652C31.7103 13.5652 31.71 13.5652 31.7096 13.5652C31.7093 13.5652 31.7089 13.5652 31.7086 13.5652C31.7082 13.5652 31.7079 13.5652 31.7075 13.5652C31.7072 13.5652 31.7068 13.5652 31.7065 13.5652C31.7061 13.5652 31.7058 13.5652 31.7054 13.5652C31.7051 13.5652 31.7047 13.5652 31.7044 13.5652C31.704 13.5652 31.7037 13.5652 31.7033 13.5652C31.7029 13.5652 31.7026 13.5652 31.7022 13.5652C31.7018 13.5652 31.7015 13.5652 31.7011 13.5652C31.7008 13.5652 31.7004 13.5652 31.7 13.5652C31.6997 13.5652 31.6993 13.5652 31.6989 13.5652C31.6985 13.5652 31.6982 13.5652 31.6978 13.5652C31.6974 13.5652 31.6971 13.5652 31.6967 13.5652C31.6963 13.5652 31.6959 13.5652 31.6956 13.5652C31.6952 13.5652 31.6948 13.5652 31.6944 13.5652C31.694 13.5652 31.6937 13.5652 31.6933 13.5652C31.6929 13.5652 31.6925 13.5652 31.6921 13.5652C31.6917 13.5652 31.6914 13.5652 31.691 13.5652C31.6906 13.5652 31.6902 13.5652 31.6898 13.5652C31.6894 13.5652 31.689 13.5652 31.6886 13.5652C31.6883 13.5652 31.6879 13.5652 31.6875 13.5652C31.6871 13.5652 31.6867 13.5652 31.6863 13.5652C31.6859 13.5652 31.6855 13.5652 31.6851 13.5652C31.6847 13.5652 31.6843 13.5652 31.6839 13.5652C31.6835 13.5652 31.6831 13.5652 31.6827 13.5652C31.6823 13.5652 31.6819 13.5652 31.6815 13.5652C31.6811 13.5652 31.6807 13.5652 31.6803 13.5652C31.6799 13.5652 31.6795 13.5652 31.6791 13.5652C31.6787 13.5652 31.6783 13.5652 31.6779 13.5652C31.6775 13.5652 31.677 13.5652 31.6766 13.5652C31.6762 13.5652 31.6758 13.5652 31.6754 13.5652C31.675 13.5652 31.6746 13.5652 31.6742 13.5652C31.6738 13.5652 31.6733 13.5652 31.6729 13.5652C31.6725 13.5652 31.6721 13.5652 31.6717 13.5652C31.6713 13.5652 31.6708 13.5652 31.6704 13.5652C31.67 13.5652 31.6696 13.5652 31.6692 13.5652C31.6688 13.5652 31.6683 13.5652 31.6679 13.5652C31.6675 13.5652 31.6671 13.5652 31.6666 13.5652C31.6662 13.5652 31.6658 13.5652 31.6654 13.5652C31.665 13.5652 31.6645 13.5652 31.6641 13.5652C31.6637 13.5652 31.6633 13.5652 31.6628 13.5652C31.6624 13.5652 31.662 13.5652 31.6616 13.5652C31.6611 13.5652 31.6607 13.5652 31.6603 13.5652C31.6598 13.5652 31.6594 13.5652 31.659 13.5652C31.6586 13.5652 31.6581 13.5652 31.6577 13.5652C31.6573 13.5652 31.6568 13.5652 31.6564 13.5652C31.656 13.5652 31.6555 13.5652 31.6551 13.5652C31.6547 13.5652 31.6542 13.5652 31.6538 13.5652C31.6534 13.5652 31.6529 13.5652 31.6525 13.5652C31.6521 13.5652 31.6516 13.5652 31.6512 13.5652C31.6508 13.5652 31.6503 13.5652 31.6499 13.5652C31.6494 13.5652 31.649 13.5652 31.6486 13.5652C31.6481 13.5652 31.6477 13.5652 31.6473 13.5652C31.6468 13.5652 31.6464 13.5652 31.6459 13.5652C31.6455 13.5652 31.6451 13.5652 31.6446 13.5652C31.6442 13.5652 31.6437 13.5652 31.6433 13.5652C31.6429 13.5652 31.6424 13.5652 31.642 13.5652C31.6415 13.5652 31.6411 13.5652 31.6407 13.5652C31.6402 13.5652 31.6398 13.5652 31.6393 13.5652C31.6389 13.5652 31.6384 13.5652 31.638 13.5652C31.6376 13.5652 31.6371 13.5652 31.6367 13.5652C31.6362 13.5652 31.6358 13.5652 31.6353 13.5652C31.6349 13.5652 31.6345 13.5652 31.634 13.5652C31.6336 13.5652 31.6331 13.5652 31.6327 13.5652C31.6322 13.5652 31.6318 13.5652 31.6313 13.5652C31.6309 13.5652 31.6305 13.5652 31.63 13.5652C31.6296 13.5652 31.6291 13.5652 31.6287 13.5652C31.6282 13.5652 31.6278 13.5652 31.6273 13.5652C31.6269 13.5652 31.6265 13.5652 31.626 13.5652C31.6256 13.5652 31.6251 13.5652 31.6247 13.5652C31.6242 13.5652 31.6238 13.5652 31.6233 13.5652C31.6229 13.5652 31.6224 13.5652 31.622 13.5652C31.6216 13.5652 31.6211 13.5652 31.6207 13.5652C31.6202 13.5652 31.6198 13.5652 31.6193 13.5652C31.6189 13.5652 31.6184 13.5652 31.618 13.5652C31.6175 13.5652 31.6171 13.5652 31.6167 13.5652C31.6162 13.5652 31.6158 13.5652 31.6153 13.5652C31.6149 13.5652 31.6144 13.5652 31.614 13.5652C31.6135 13.5652 31.6131 13.5652 31.6126 13.5652C31.6122 13.5652 31.6118 13.5652 31.6113 13.5652C31.6109 13.5652 31.6104 13.5652 31.61 13.5652C31.6095 13.5652 31.6091 13.5652 31.6086 13.5652C31.6082 13.5652 31.6078 13.5652 31.6073 13.5652C31.6069 13.5652 31.6064 13.5652 31.606 13.5652C31.6055 13.5652 31.6051 13.5652 31.6047 13.5652C31.6042 13.5652 31.6038 13.5652 31.6033 13.5652C31.6029 13.5652 31.6025 13.5652 31.602 13.5652C31.6016 13.5652 31.6011 13.5652 31.6007 13.5652C31.6003 13.5652 31.5998 13.5652 31.5994 13.5652C31.5989 13.5652 31.5985 13.5652 31.5981 13.5652C31.5976 13.5652 31.5972 13.5652 31.5967 13.5652C31.5963 13.5652 31.5959 13.5652 31.5954 13.5652C31.595 13.5652 31.5945 13.5652 31.5941 13.5652C31.5937 13.5652 31.5932 13.5652 31.5928 13.5652C31.5924 13.5652 31.5919 13.5652 31.5915 13.5652C31.5911 13.5652 31.5906 13.5652 31.5902 13.5652C31.5898 13.5652 31.5893 13.5652 31.5889 13.5652C31.5885 13.5652 31.588 13.5652 31.5876 13.5652C31.5872 13.5652 31.5867 13.5652 31.5863 13.5652C31.5859 13.5652 31.5854 13.5652 31.585 13.5652C31.5846 13.5652 31.5842 13.5652 31.5837 13.5652C31.5833 13.5652 31.5829 13.5652 31.5824 13.5652C31.582 13.5652 31.5816 13.5652 31.5812 13.5652C31.5807 13.5652 31.5803 13.5652 31.5799 13.5652C31.5795 13.5652 31.579 13.5652 31.5786 13.5652C31.5782 13.5652 31.5778 13.5652 31.5773 13.5652C31.5769 13.5652 31.5765 13.5652 31.5761 13.5652C31.5757 13.5652 31.5752 13.5652 31.5748 13.5652C31.5744 13.5652 31.574 13.5652 31.5736 13.5652C31.5731 13.5652 31.5727 13.5652 31.5723 13.5652C31.5719 13.5652 31.5715 13.5652 31.5711 13.5652C31.5707 13.5652 31.5702 13.5652 31.5698 13.5652C31.5694 13.5652 31.569 13.5652 31.5686 13.5652C31.5682 13.5652 31.5678 13.5652 31.5674 13.5652C31.567 13.5652 31.5665 13.5652 31.5661 13.5652C31.5657 13.5652 31.5653 13.5652 31.5649 13.5652C31.5645 13.5652 31.5641 13.5652 31.5637 13.5652C31.5633 13.5652 31.5629 13.5652 31.5625 13.5652C31.5621 13.5652 31.5617 13.5652 31.5613 13.5652C31.5609 13.5652 31.5605 13.5652 31.5601 13.5652C31.5597 13.5652 31.5593 13.5652 31.5589 13.5652C31.5585 13.5652 31.5581 13.5652 31.5577 13.5652C31.5573 13.5652 31.5569 13.5652 31.5565 13.5652C31.5561 13.5652 31.5557 13.5652 31.5553 13.5652C31.555 13.5652 31.5546 13.5652 31.5542 13.5652C31.5538 13.5652 31.5534 13.5652 31.553 13.5652C31.5526 13.5652 31.5522 13.5652 31.5519 13.5652C31.5515 13.5652 31.5511 13.5652 31.5507 13.5652C31.5503 13.5652 31.55 13.5652 31.5496 13.5652C31.5492 13.5652 31.5488 13.5652 31.5484 13.5652C31.5481 13.5652 31.5477 13.5652 31.5473 13.5652C31.5469 13.5652 31.5466 13.5652 31.5462 13.5652C31.5458 13.5652 31.5454 13.5652 31.5451 13.5652C31.5447 13.5652 31.5443 13.5652 31.544 13.5652C31.5436 13.5652 31.5432 13.5652 31.5429 13.5652C31.5425 13.5652 31.5421 13.5652 31.5418 13.5652C31.5414 13.5652 31.5411 13.5652 31.5407 13.5652C31.5403 13.5652 31.54 13.5652 31.5396 13.5652C31.5393 13.5652 31.5389 13.5652 31.5386 13.5652C31.5382 13.5652 31.5379 13.5652 31.5375 13.5652C31.5372 13.5652 31.5368 13.5652 31.5365 13.5652C31.5361 13.5652 31.5358 13.5652 31.5354 13.5652C31.5351 13.5652 31.5347 13.5652 31.5344 13.5652C31.534 13.5652 31.5337 13.5652 31.5334 13.5652C31.533 13.5652 31.5327 13.5652 31.5323 13.5652C31.532 13.5652 31.5317 13.5652 31.5313 13.5652C31.531 13.5652 31.5307 13.5652 31.5303 13.5652C31.53 13.5652 31.5297 13.5652 31.5294 13.5652C31.529 13.5652 31.5287 13.5652 31.5284 13.5652C31.528 13.5652 31.5277 13.5652 31.5274 13.5652C31.5271 13.5652 31.5268 13.5652 31.5264 13.5652C31.5261 13.5652 31.5258 13.5652 31.5255 13.5652C31.5252 13.5652 31.5249 13.5652 31.5246 13.5652C31.5242 13.5652 31.5239 13.5652 31.5236 13.5652C31.5233 13.5652 31.523 13.5652 31.5227 13.5652C31.5224 13.5652 31.5221 13.5652 31.5218 13.5652C31.5215 13.5652 31.5212 13.5652 31.5209 13.5652C31.5206 13.5652 31.5203 13.5652 31.52 13.5652C31.5197 13.5652 31.5194 13.5652 31.5191 13.5652C31.5188 13.5652 31.5185 13.5652 31.5183 13.5652C31.518 13.5652 31.5177 13.5652 31.5174 13.5652C31.5171 13.5652 31.5168 13.5652 31.5166 13.5652C31.5163 13.5652 31.516 13.5652 31.5157 13.5652C31.5154 13.5652 31.5152 13.5652 31.5149 13.5652C31.5146 13.5652 31.5143 13.5652 31.5141 13.5652C31.5138 13.5652 31.5135 13.5652 31.5133 13.5652C31.513 13.5652 31.5127 13.5652 31.5125 13.5652C31.5122 13.5652 31.512 13.5652 31.5117 13.5652C31.5114 13.5652 31.5112 13.5652 31.5109 13.5652C31.5107 13.5652 31.5104 13.5652 31.5102 13.5652C31.5099 13.5652 31.5097 13.5652 31.5094 13.5652C31.5092 13.5652 31.509 13.5652 31.5087 13.5652C31.5085 13.5652 31.5082 13.5652 31.508 13.5652C31.5078 13.5652 31.5075 13.5652 31.5073 13.5652C31.5071 13.5652 31.5068 13.5652 31.5066 13.5652C31.5064 13.5652 31.5061 13.5652 31.5059 13.5652C31.5057 13.5652 31.5055 13.5652 31.5052 13.5652C31.505 13.5652 31.5048 13.5652 31.5046 13.5652C31.5044 13.5652 31.5042 13.5652 31.5039 13.5652C31.5037 13.5652 31.5035 13.5652 31.5033 13.5652C31.5031 13.5652 31.5029 13.5652 31.5027 13.5652C31.5025 13.5652 31.5023 13.5652 31.5021 13.5652C31.5019 13.5652 31.5017 13.5652 31.5015 13.5652C31.5013 13.5652 31.5011 13.5652 31.5009 13.5652C31.5007 13.5652 31.5006 13.5652 31.5004 13.5652C31.5002 13.5652 31.5 13.5652 31.4998 13.5652C31.4996 13.5652 31.4995 13.5652 31.4993 13.5652C31.4991 13.5652 31.4989 13.5652 31.4988 13.5652C31.4986 13.5652 31.4984 13.5652 31.4983 13.5652C31.4981 13.5652 31.4979 13.5652 31.4978 13.5652C31.4976 13.5652 31.4974 13.5652 31.4973 13.5652C31.4971 13.5652 31.497 13.5652 31.4968 13.5652C31.4967 13.5652 31.4965 13.5652 31.4964 13.5652C31.4962 13.5652 31.4961 13.5652 31.4959 13.5652C31.4958 13.5652 31.4957 13.5652 31.4955 13.5652C31.4954 13.5652 31.4953 13.5652 31.4951 13.5652C31.495 13.5652 31.4949 13.5652 31.4947 13.5652C31.4946 13.5652 31.4945 13.5652 31.4944 13.5652C31.4942 13.5652 31.4941 13.5652 31.494 13.5652C31.4939 13.5652 31.4938 13.5652 31.4937 13.5652C31.4935 13.5652 31.4934 13.5652 31.4933 13.5652C31.4932 13.5652 31.4931 13.5652 31.493 13.5652C31.4929 13.5652 31.4928 13.5652 31.4927 13.5652C31.4926 13.5652 31.4925 13.5652 31.4924 13.5652C31.4924 13.5652 31.4923 13.5652 31.4922 13.5652C31.4921 13.5652 31.492 13.5652 31.4919 13.5652C31.4919 13.5652 31.4918 13.5652 31.4917 13.5652C31.4916 13.5652 31.4916 13.5652 31.4915 13.5652C31.4914 13.5652 31.4914 13.5652 31.4913 13.5652C31.4912 13.5652 31.4912 13.5652 31.4911 13.5652C31.4911 13.5652 31.491 13.5652 31.491 13.5652C31.4909 13.5652 31.4909 13.5652 31.4908 13.5652C31.4908 13.5652 31.4907 13.5652 31.4907 13.5652C31.4906 13.5652 31.4906 13.5652 31.4906 13.5652C31.4905 13.5652 31.4905 13.5652 31.4905 13.5652C31.4904 13.5652 31.4904 13.5652 31.4904 13.5652C31.4904 13.5652 31.4904 13.5652 31.4903 13.5652C31.4903 13.5652 31.4903 13.5652 31.4903 13.5652C31.4903 13.5652 31.4903 13.5652 31.4903 13.5652C31.4903 13.5652 31.4903 14.3152 31.4903 15.0652C31.4903 15.0652 31.4903 15.0652 31.4903 15.0652C31.4903 15.0652 31.4903 15.0652 31.4903 15.0652C31.4903 15.0652 31.4903 15.0652 31.4904 15.0652C31.4904 15.0652 31.4904 15.0652 31.4904 15.0652C31.4905 15.0652 31.4905 15.0652 31.4905 15.0652C31.4906 15.0652 31.4906 15.0652 31.4906 15.0652C31.4907 15.0652 31.4907 15.0652 31.4907 15.0652C31.4908 15.0652 31.4908 15.0652 31.4909 15.0652C31.4909 15.0652 31.491 15.0652 31.4911 15.0652C31.4911 15.0652 31.4912 15.0652 31.4912 15.0652C31.4913 15.0652 31.4914 15.0652 31.4914 15.0652C31.4915 15.0652 31.4916 15.0652 31.4917 15.0652C31.4917 15.0652 31.4918 15.0652 31.4919 15.0652C31.492 15.0652 31.4921 15.0652 31.4922 15.0652C31.4922 15.0652 31.4923 15.0652 31.4924 15.0652C31.4925 15.0652 31.4926 15.0652 31.4927 15.0652C31.4928 15.0652 31.4929 15.0652 31.493 15.0652C31.4932 15.0652 31.4933 15.0652 31.4934 15.0652C31.4935 15.0652 31.4936 15.0652 31.4937 15.0652C31.4939 15.0652 31.494 15.0652 31.4941 15.0652C31.4943 15.0652 31.4944 15.0652 31.4945 15.0652C31.4947 15.0652 31.4948 15.0652 31.495 15.0652C31.4951 15.0652 31.4952 15.0652 31.4954 15.0652C31.4955 15.0652 31.4957 15.0652 31.4959 15.0652C31.496 15.0652 31.4962 15.0652 31.4963 15.0652C31.4965 15.0652 31.4967 15.0652 31.4968 15.0652C31.497 15.0652 31.4972 15.0652 31.4974 15.0652C31.4976 15.0652 31.4977 15.0652 31.4979 15.0652C31.4981 15.0652 31.4983 15.0652 31.4985 15.0652C31.4987 15.0652 31.4989 15.0652 31.4991 15.0652C31.4993 15.0652 31.4995 15.0652 31.4997 15.0652C31.4999 15.0652 31.5001 15.0652 31.5003 15.0652C31.5005 15.0652 31.5008 15.0652 31.501 15.0652C31.5012 15.0652 31.5014 15.0652 31.5017 15.0652C31.5019 15.0652 31.5021 15.0652 31.5024 15.0652C31.5026 15.0652 31.5028 15.0652 31.5031 15.0652C31.5033 15.0652 31.5036 15.0652 31.5038 15.0652C31.5041 15.0652 31.5043 15.0652 31.5046 15.0652C31.5049 15.0652 31.5051 15.0652 31.5054 15.0652C31.5057 15.0652 31.5059 15.0652 31.5062 15.0652C31.5065 15.0652 31.5068 15.0652 31.507 15.0652C31.5073 15.0652 31.5076 15.0652 31.5079 15.0652C31.5082 15.0652 31.5085 15.0652 31.5088 15.0652C31.5091 15.0652 31.5094 15.0652 31.5097 15.0652C31.51 15.0652 31.5103 15.0652 31.5106 15.0652C31.5109 15.0652 31.5113 15.0652 31.5116 15.0652C31.5119 15.0652 31.5122 15.0652 31.5126 15.0652C31.5129 15.0652 31.5132 15.0652 31.5136 15.0652C31.5139 15.0652 31.5142 15.0652 31.5146 15.0652C31.5149 15.0652 31.5153 15.0652 31.5156 15.0652C31.516 15.0652 31.5164 15.0652 31.5167 15.0652C31.5171 15.0652 31.5174 15.0652 31.5178 15.0652C31.5182 15.0652 31.5186 15.0652 31.5189 15.0652C31.5193 15.0652 31.5197 15.0652 31.5201 15.0652C31.5205 15.0652 31.5209 15.0652 31.5213 15.0652C31.5217 15.0652 31.5221 15.0652 31.5225 15.0652C31.5229 15.0652 31.5233 15.0652 31.5237 15.0652C31.5241 15.0652 31.5245 15.0652 31.5249 15.0652C31.5253 15.0652 31.5258 15.0652 31.5262 15.0652C31.5266 15.0652 31.5271 15.0652 31.5275 15.0652C31.5279 15.0652 31.5284 15.0652 31.5288 15.0652C31.5293 15.0652 31.5297 15.0652 31.5302 15.0652C31.5306 15.0652 31.5311 15.0652 31.5315 15.0652C31.532 15.0652 31.5325 15.0652 31.5329 15.0652C31.5334 15.0652 31.5339 15.0652 31.5344 15.0652C31.5349 15.0652 31.5353 15.0652 31.5358 15.0652C31.5363 15.0652 31.5368 15.0652 31.5373 15.0652C31.5378 15.0652 31.5383 15.0652 31.5388 15.0652C31.5393 15.0652 31.5398 15.0652 31.5403 15.0652C31.5409 15.0652 31.5414 15.0652 31.5419 15.0652C31.5424 15.0652 31.543 15.0652 31.5435 15.0652C31.544 15.0652 31.5446 15.0652 31.5451 15.0652C31.5456 15.0652 31.5462 15.0652 31.5467 15.0652C31.5473 15.0652 31.5478 15.0652 31.5484 15.0652C31.549 15.0652 31.5495 15.0652 31.5501 15.0652C31.5507 15.0652 31.5512 15.0652 31.5518 15.0652C31.5524 15.0652 31.553 15.0652 31.5536 15.0652C31.5541 15.0652 31.5547 15.0652 31.5553 15.0652C31.5559 15.0652 31.5565 15.0652 31.5571 15.0652C31.5577 15.0652 31.5584 15.0652 31.559 15.0652C31.5596 15.0652 31.5602 15.0652 31.5608 15.0652C31.5615 15.0652 31.5621 15.0652 31.5627 15.0652C31.5633 15.0652 31.564 15.0652 31.5646 15.0652C31.5653 15.0652 31.5659 15.0652 31.5666 15.0652C31.5672 15.0652 31.5679 15.0652 31.5685 15.0652C31.5692 15.0652 31.5699 15.0652 31.5705 15.0652C31.5712 15.0652 31.5719 15.0652 31.5726 15.0652C31.5733 15.0652 31.5739 15.0652 31.5746 15.0652C31.5753 15.0652 31.576 15.0652 31.5767 15.0652C31.5774 15.0652 31.5781 15.0652 31.5788 15.0652C31.5795 15.0652 31.5803 15.0652 31.581 15.0652C31.5817 15.0652 31.5824 15.0652 31.5831 15.0652C31.5839 15.0652 31.5846 15.0652 31.5853 15.0652C31.5861 15.0652 31.5868 15.0652 31.5876 15.0652C31.5883 15.0652 31.5891 15.0652 31.5898 15.0652C31.5906 15.0652 31.5914 15.0652 31.5921 15.0652C31.5929 15.0652 31.5937 15.0652 31.5945 15.0652C31.5952 15.0652 31.596 15.0652 31.5968 15.0652C31.5976 15.0652 31.5984 15.0652 31.5992 15.0652C31.6 15.0652 31.6008 15.0652 31.6016 15.0652C31.6024 15.0652 31.6032 15.0652 31.604 15.0652C31.6049 15.0652 31.6057 15.0652 31.6065 15.0652C31.6073 15.0652 31.6082 15.0652 31.609 15.0652C31.6099 15.0652 31.6107 15.0652 31.6116 15.0652C31.6124 15.0652 31.6133 15.0652 31.6141 15.0652C31.615 15.0652 31.6158 15.0652 31.6167 15.0652C31.6176 15.0652 31.6185 15.0652 31.6193 15.0652C31.6202 15.0652 31.6211 15.0652 31.622 15.0652V13.5652ZM31.1172 8.875H38.8746V7.375H31.1172V8.875ZM31.1172 11.6129H38.8746V10.1129H31.1172V11.6129ZM31.0275 14.7725L35.9683 21.1954L37.1572 20.2809L32.2165 13.8579L31.0275 14.7725Z" fill="#FDBF53"/>
</svg>
