<svg width="38" height="48" viewBox="0 0 38 48" fill="none" xmlns="http://www.w3.org/2000/svg">
<path opacity="0.8" d="M22.8083 24C22.8083 24.8 23.2084 24.8 25.2091 26.8C32.8119 32 33.6122 40.8 33.6122 42.8H35.0136C36.4496 42.8 37.6136 43.9641 37.6136 45.4C37.6136 46.8359 36.4496 48 35.0136 48H2.8C1.2536 48 0 46.7464 0 45.2C0 43.6536 1.2536 42.4 2.8 42.4H4.00145C4.00145 40.4 4.80174 31.6 12.4045 26.4C14.4052 24.8 14.8054 24.8 14.8054 24C14.8054 23.2 14.8054 23.2 12.8046 21.2C5.20188 16.4 4.00145 8 4.00145 5.6H2.8C1.2536 5.6 0 4.3464 0 2.8C0 1.2536 1.2536 0 2.8 0H34.4135C35.9599 0 37.2135 1.2536 37.2135 2.8C37.2135 4.3464 35.9599 5.6 34.4135 5.6H33.212C33.212 8 32.0116 16.4 24.809 21.2C22.8083 23.2 22.8083 22.8 22.8083 24Z" fill="white"/>
<path d="M27.6086 39.5992H10.0022C9.20189 39.5992 8.4016 38.7992 8.80175 37.9992C10.0022 33.9992 13.6035 31.1992 16.0044 29.5992C16.8046 28.7992 17.6049 27.5992 17.6049 26.3992V21.9992C17.2048 21.1992 16.8046 19.9992 16.0044 19.5992L11.6028 15.1992C10.8025 14.3992 11.6028 13.1992 12.4031 13.1992H25.2077C26.008 13.1992 26.4081 14.3992 26.008 14.7992L21.2062 19.5992C20.406 19.9992 20.0058 21.1992 20.0058 21.9992V26.3992C20.0058 27.5992 20.406 28.7992 21.6064 29.5992C23.6071 31.1992 27.6086 34.3992 28.809 37.9992C28.809 38.7992 28.4089 39.5992 27.6086 39.5992Z" fill="white"/>
</svg>
