<svg width="48" height="44" viewBox="0 0 48 44" fill="none" xmlns="http://www.w3.org/2000/svg">
<path opacity="0.8" d="M33.1636 43.2H4.36364C1.92 43.2 0 41.28 0 38.8364V4.36364C0 1.92 1.92 0 4.36364 0H33.1636C35.6073 0 37.5273 1.92 37.5273 4.36364V38.8364C37.5273 41.28 35.6073 43.2 33.1636 43.2Z" fill="white"/>
<path d="M30.3715 13.177H6.89513C6.0224 13.177 5.32422 12.4788 5.32422 11.6061C5.32422 10.7333 6.0224 10.0352 6.89513 10.0352H30.2842C31.1569 10.0352 31.8551 10.7333 31.8551 11.6061C31.9424 12.4788 31.2442 13.177 30.3715 13.177Z" fill="#2351D5"/>
<path d="M12.9169 23.216H6.89513C6.0224 23.216 5.32422 22.5179 5.32422 21.6451C5.32422 20.7724 6.0224 20.0742 6.89513 20.0742H12.8297C13.7024 20.0742 14.4006 20.7724 14.4006 21.6451C14.4879 22.5179 13.7897 23.216 12.9169 23.216Z" fill="#2351D5"/>
<path d="M36.2193 39.2746C42.7262 39.2746 48.0011 33.9997 48.0011 27.4928C48.0011 20.9858 42.7262 15.7109 36.2193 15.7109C29.7124 15.7109 24.4375 20.9858 24.4375 27.4928C24.4375 33.9997 29.7124 39.2746 36.2193 39.2746Z" fill="white"/>
<path d="M30.1914 27.4218L34.2804 31.5108L42.3827 23.4961" stroke="#F579A0" stroke-width="2" stroke-miterlimit="10"/>
</svg>
