<svg width="577" height="590" viewBox="0 0 577 590" fill="none" xmlns="http://www.w3.org/2000/svg">
<rect y="159" width="301.941" height="334" rx="12" fill="white"/>
<path d="M56.26 192V178.66H53.42V187.04L47.24 178.66H44.32V192H47.16V183.3L53.52 192H56.26ZM63.9503 192C68.1303 192 71.0303 189.36 71.0303 185.34C71.0303 181.32 68.1303 178.66 63.9503 178.66H58.6903V192H63.9503ZM63.9503 189.5H61.5303V181.16H63.9503C66.6903 181.16 68.1303 182.98 68.1303 185.34C68.1303 187.6 66.5903 189.5 63.9503 189.5ZM83.6458 192L80.6458 186.92C82.0858 186.58 83.5658 185.32 83.5658 182.96C83.5658 180.48 81.8658 178.66 79.0858 178.66H72.8458V192H75.6858V187.26H77.7658L80.3858 192H83.6458ZM78.6658 184.76H75.6858V181.16H78.6658C79.8058 181.16 80.6658 181.84 80.6658 182.96C80.6658 184.08 79.8058 184.76 78.6658 184.76ZM93.2545 192V187.26H96.6545C99.5345 187.26 101.135 185.28 101.135 182.96C101.135 180.62 99.5545 178.66 96.6545 178.66H90.4145V192H93.2545ZM96.2745 184.76H93.2545V181.16H96.2745C97.3945 181.16 98.2345 181.84 98.2345 182.96C98.2345 184.06 97.3945 184.76 96.2745 184.76ZM106.843 192.24C108.343 192.24 109.863 191.78 110.823 190.9L109.703 189.26C109.083 189.86 107.943 190.22 107.123 190.22C105.483 190.22 104.503 189.2 104.343 187.98H111.523V187.42C111.523 184.26 109.563 182.1 106.683 182.1C103.743 182.1 101.683 184.36 101.683 187.16C101.683 190.26 103.903 192.24 106.843 192.24ZM109.063 186.26H104.303C104.423 185.3 105.103 184.12 106.683 184.12C108.363 184.12 109.003 185.34 109.063 186.26ZM122.218 192V185.18C122.218 183.3 121.198 182.1 119.078 182.1C117.498 182.1 116.318 182.86 115.698 183.6V182.34H113.158V192H115.698V185.5C116.118 184.92 116.898 184.36 117.898 184.36C118.978 184.36 119.678 184.82 119.678 186.16V192H122.218ZM133.74 192V178.66H131.18V183.58C130.42 182.6 129.34 182.1 128.2 182.1C125.74 182.1 123.92 184.02 123.92 187.18C123.92 190.4 125.76 192.24 128.2 192.24C129.36 192.24 130.42 191.72 131.18 190.76V192H133.74ZM128.98 189.98C127.54 189.98 126.54 188.84 126.54 187.18C126.54 185.5 127.54 184.36 128.98 184.36C129.84 184.36 130.76 184.82 131.18 185.46V188.88C130.76 189.52 129.84 189.98 128.98 189.98ZM137.318 181.3C138.158 181.3 138.838 180.62 138.838 179.78C138.838 178.94 138.158 178.28 137.318 178.28C136.498 178.28 135.798 178.94 135.798 179.78C135.798 180.62 136.498 181.3 137.318 181.3ZM138.598 192V182.34H136.058V192H138.598ZM149.977 192V185.18C149.977 183.3 148.957 182.1 146.837 182.1C145.257 182.1 144.077 182.86 143.457 183.6V182.34H140.917V192H143.457V185.5C143.877 184.92 144.657 184.36 145.657 184.36C146.737 184.36 147.437 184.82 147.437 186.16V192H149.977ZM156.259 195.92C158.639 195.92 161.479 195.02 161.479 191.34V182.34H158.919V183.58C158.139 182.6 157.099 182.1 155.939 182.1C153.499 182.1 151.679 183.86 151.679 187.02C151.679 190.24 153.519 191.94 155.939 191.94C157.119 191.94 158.159 191.38 158.919 190.42V191.4C158.919 193.3 157.479 193.84 156.259 193.84C155.039 193.84 154.019 193.5 153.239 192.64L152.099 194.48C153.319 195.54 154.599 195.92 156.259 195.92ZM156.739 189.68C155.299 189.68 154.299 188.68 154.299 187.02C154.299 185.36 155.299 184.36 156.739 184.36C157.579 184.36 158.499 184.82 158.919 185.46V188.58C158.499 189.2 157.579 189.68 156.739 189.68ZM181.215 192L176.075 178.66H172.515L167.355 192H170.595L171.435 189.74H177.155L177.975 192H181.215ZM176.375 187.24H172.215L174.295 181.5L176.375 187.24ZM186.147 195.92C188.527 195.92 191.367 195.02 191.367 191.34V182.34H188.807V183.58C188.027 182.6 186.987 182.1 185.827 182.1C183.387 182.1 181.567 183.86 181.567 187.02C181.567 190.24 183.407 191.94 185.827 191.94C187.007 191.94 188.047 191.38 188.807 190.42V191.4C188.807 193.3 187.367 193.84 186.147 193.84C184.927 193.84 183.907 193.5 183.127 192.64L181.987 194.48C183.207 195.54 184.487 195.92 186.147 195.92ZM186.627 189.68C185.187 189.68 184.187 188.68 184.187 187.02C184.187 185.36 185.187 184.36 186.627 184.36C187.467 184.36 188.387 184.82 188.807 185.46V188.58C188.387 189.2 187.467 189.68 186.627 189.68ZM198.227 192.24C199.727 192.24 201.247 191.78 202.207 190.9L201.087 189.26C200.467 189.86 199.327 190.22 198.507 190.22C196.867 190.22 195.887 189.2 195.727 187.98H202.907V187.42C202.907 184.26 200.947 182.1 198.067 182.1C195.127 182.1 193.067 184.36 193.067 187.16C193.067 190.26 195.287 192.24 198.227 192.24ZM200.447 186.26H195.687C195.807 185.3 196.487 184.12 198.067 184.12C199.747 184.12 200.387 185.34 200.447 186.26Z" fill="#263F97"/>
<path d="M19.8081 179.04C19.2756 179.232 18.7887 179.531 18.3779 179.919C17.9671 180.306 17.6411 180.774 17.4204 181.292C17.1997 181.81 17.0889 182.367 17.095 182.93C17.101 183.492 17.2239 184.047 17.4557 184.56C17.6876 185.074 18.0236 185.534 18.4427 185.912C18.8617 186.291 19.355 186.58 19.8915 186.761C20.4281 186.942 20.9965 187.011 21.5612 186.964C22.1259 186.918 22.6749 186.756 23.1738 186.489L21.7477 183.861C21.6127 183.933 21.4641 183.977 21.3112 183.99C21.1584 184.002 21.0046 183.983 20.8593 183.934C20.7141 183.885 20.5806 183.807 20.4672 183.705C20.3538 183.602 20.2629 183.478 20.2001 183.339C20.1374 183.2 20.1041 183.05 20.1025 182.898C20.1008 182.745 20.1308 182.594 20.1906 182.454C20.2503 182.314 20.3385 182.188 20.4497 182.083C20.5609 181.978 20.6926 181.897 20.8368 181.845L19.8081 179.04Z" fill="#FF756C"/>
<path d="M19.8438 175.043L26.7167 177.678V186.639L19.8438 184.004V175.043Z" fill="#334FB3"/>
<path d="M19.8438 175.042L26.7167 177.677L33.5896 175.042L26.7167 172.406L19.8438 175.042Z" fill="#303B91"/>
<path d="M22.936 175.725L26.7161 177.679L33.5891 175.043L29.809 173.09L22.936 175.725Z" fill="#5770C9"/>
<path d="M19.8438 175.042L23.6239 175.631L30.4968 172.995L26.7167 172.406L19.8438 175.042Z" fill="#758CDE"/>
<path d="M33.5897 175.043L26.7168 177.678V186.639L33.5897 184.004V175.043Z" fill="#303B91"/>
<path d="M102.051 239.199C111.683 228.173 124.801 220.719 139.258 218.056C153.715 215.394 168.655 217.681 181.632 224.544L169.42 247.289C161.634 243.172 152.67 241.8 143.996 243.397C135.322 244.994 127.451 249.467 121.671 256.083L102.051 239.199Z" fill="#FFC83D"/>
<path d="M216.024 281.406C216.024 292.002 213.391 302.435 208.359 311.78C203.326 321.124 196.048 329.093 187.171 334.98C178.294 340.867 168.091 344.49 157.466 345.529C146.841 346.567 136.122 344.989 126.259 340.934C116.395 336.88 107.691 330.473 100.918 322.282C94.1451 314.091 89.5119 304.369 87.4291 293.976C85.3462 283.584 85.8779 272.842 88.9771 262.702C92.0763 252.562 97.6473 243.337 105.197 235.845L123.559 254.069C119.03 258.565 115.687 264.1 113.827 270.184C111.968 276.267 111.649 282.713 112.899 288.948C114.148 295.184 116.928 301.017 120.992 305.932C125.056 310.846 130.278 314.69 136.196 317.123C142.115 319.556 148.546 320.503 154.921 319.88C161.296 319.257 167.418 317.083 172.744 313.55C178.07 310.018 182.437 305.237 185.456 299.63C188.476 294.023 190.056 287.764 190.056 281.406H216.024Z" fill="#263F97"/>
<path d="M143.123 345.351C130.731 343.827 119.044 338.789 109.464 330.841C99.8836 322.892 92.8163 312.37 89.109 300.536C85.4017 288.702 85.2117 276.057 88.5618 264.119C91.912 252.18 98.6601 241.454 107.997 233.225L125.24 252.498C119.637 257.435 115.588 263.871 113.578 271.034C111.568 278.197 111.682 285.783 113.907 292.884C116.131 299.984 120.371 306.298 126.119 311.067C131.868 315.836 138.88 318.859 146.315 319.773L143.123 345.351Z" fill="#198BFB"/>
<path d="M167.389 219.033C179.243 222.082 189.987 228.396 198.38 237.247C206.773 246.098 212.472 257.124 214.82 269.052C217.168 280.981 216.069 293.325 211.649 304.66C207.229 315.995 199.67 325.858 189.843 333.11L174.347 312.429C180.243 308.077 184.779 302.159 187.431 295.358C190.082 288.557 190.742 281.151 189.333 273.994C187.924 266.837 184.505 260.221 179.469 254.91C174.433 249.6 167.987 245.811 160.874 243.982L167.389 219.033Z" fill="#FF756C"/>
<g filter="url(#filter0_d_2839_1833)">
<rect x="43.5234" y="292.484" width="96.7905" height="43.5156" rx="5" fill="white"/>
<rect x="44.0234" y="292.984" width="95.7905" height="42.5156" rx="4.5" stroke="#198BFB"/>
</g>
<path d="M54.45 311V304.33H53.21L51.11 306.44L51.92 307.29L53.03 306.16V311H54.45ZM60.9599 311C63.0499 311 64.4999 309.68 64.4999 307.67C64.4999 305.66 63.0499 304.33 60.9599 304.33H58.3299V311H60.9599ZM60.9599 309.75H59.7499V305.58H60.9599C62.3299 305.58 63.0499 306.49 63.0499 307.67C63.0499 308.8 62.2799 309.75 60.9599 309.75ZM69.6477 311V307.88C69.6477 306.49 68.6377 306.05 67.5377 306.05C66.7777 306.05 66.0177 306.29 65.4277 306.81L65.9077 307.66C66.3177 307.28 66.7977 307.09 67.3177 307.09C67.9577 307.09 68.3777 307.41 68.3777 307.9V308.55C68.0577 308.17 67.4877 307.96 66.8477 307.96C66.0777 307.96 65.1677 308.39 65.1677 309.52C65.1677 310.6 66.0777 311.12 66.8477 311.12C67.4777 311.12 68.0477 310.89 68.3777 310.5V311H69.6477ZM67.3577 310.26C66.8577 310.26 66.4477 310 66.4477 309.55C66.4477 309.08 66.8577 308.82 67.3577 308.82C67.7677 308.82 68.1677 308.96 68.3777 309.24V309.84C68.1677 310.12 67.7677 310.26 67.3577 310.26ZM70.7373 312.89C70.8973 312.93 71.2173 312.96 71.3673 312.96C72.1973 312.94 72.8373 312.7 73.1973 311.79L75.4673 306.17H74.0973L72.8373 309.53L71.5773 306.17H70.2173L72.1773 311.07L71.9973 311.48C71.8773 311.74 71.6573 311.83 71.3273 311.83C71.2073 311.83 71.0373 311.8 70.9273 311.75L70.7373 312.89ZM80.0429 311V308.63H81.7429C83.1829 308.63 83.9829 307.64 83.9829 306.48C83.9829 305.31 83.1929 304.33 81.7429 304.33H78.6229V311H80.0429ZM81.5529 307.38H80.0429V305.58H81.5529C82.1129 305.58 82.5329 305.92 82.5329 306.48C82.5329 307.03 82.1129 307.38 81.5529 307.38ZM86.9371 311.12C87.6871 311.12 88.4471 310.89 88.9271 310.45L88.3671 309.63C88.0571 309.93 87.4871 310.11 87.0771 310.11C86.2571 310.11 85.7671 309.6 85.6871 308.99H89.2771V308.71C89.2771 307.13 88.2971 306.05 86.8571 306.05C85.3871 306.05 84.3571 307.18 84.3571 308.58C84.3571 310.13 85.4671 311.12 86.9371 311.12ZM88.0471 308.13H85.6671C85.7271 307.65 86.0671 307.06 86.8571 307.06C87.6971 307.06 88.0171 307.67 88.0471 308.13ZM94.7245 311V307.59C94.7245 306.65 94.2145 306.05 93.1545 306.05C92.3645 306.05 91.7745 306.43 91.4645 306.8V306.17H90.1945V311H91.4645V307.75C91.6745 307.46 92.0645 307.18 92.5645 307.18C93.1045 307.18 93.4545 307.41 93.4545 308.08V311H94.7245ZM100.585 311V304.33H99.3055V306.79C98.9255 306.3 98.3855 306.05 97.8155 306.05C96.5855 306.05 95.6755 307.01 95.6755 308.59C95.6755 310.2 96.5955 311.12 97.8155 311.12C98.3955 311.12 98.9255 310.86 99.3055 310.38V311H100.585ZM98.2055 309.99C97.4855 309.99 96.9855 309.42 96.9855 308.59C96.9855 307.75 97.4855 307.18 98.2055 307.18C98.6355 307.18 99.0955 307.41 99.3055 307.73V309.44C99.0955 309.76 98.6355 309.99 98.2055 309.99ZM102.475 305.65C102.895 305.65 103.235 305.31 103.235 304.89C103.235 304.47 102.895 304.14 102.475 304.14C102.065 304.14 101.715 304.47 101.715 304.89C101.715 305.31 102.065 305.65 102.475 305.65ZM103.115 311V306.17H101.845V311H103.115ZM108.904 311V307.59C108.904 306.65 108.394 306.05 107.334 306.05C106.544 306.05 105.954 306.43 105.644 306.8V306.17H104.374V311H105.644V307.75C105.854 307.46 106.244 307.18 106.744 307.18C107.284 307.18 107.634 307.41 107.634 308.08V311H108.904ZM112.145 312.96C113.335 312.96 114.755 312.51 114.755 310.67V306.17H113.475V306.79C113.085 306.3 112.565 306.05 111.985 306.05C110.765 306.05 109.855 306.93 109.855 308.51C109.855 310.12 110.775 310.97 111.985 310.97C112.575 310.97 113.095 310.69 113.475 310.21V310.7C113.475 311.65 112.755 311.92 112.145 311.92C111.535 311.92 111.025 311.75 110.635 311.32L110.065 312.24C110.675 312.77 111.315 312.96 112.145 312.96ZM112.385 309.84C111.665 309.84 111.165 309.34 111.165 308.51C111.165 307.68 111.665 307.18 112.385 307.18C112.805 307.18 113.265 307.41 113.475 307.73V309.29C113.265 309.6 112.805 309.84 112.385 309.84ZM124.823 311L122.253 304.33H120.473L117.893 311H119.513L119.933 309.87H122.793L123.203 311H124.823ZM122.403 308.62H120.323L121.363 305.75L122.403 308.62ZM127.389 312.96C128.579 312.96 129.999 312.51 129.999 310.67V306.17H128.719V306.79C128.329 306.3 127.809 306.05 127.229 306.05C126.009 306.05 125.099 306.93 125.099 308.51C125.099 310.12 126.019 310.97 127.229 310.97C127.819 310.97 128.339 310.69 128.719 310.21V310.7C128.719 311.65 127.999 311.92 127.389 311.92C126.779 311.92 126.269 311.75 125.879 311.32L125.309 312.24C125.919 312.77 126.559 312.96 127.389 312.96ZM127.629 309.84C126.909 309.84 126.409 309.34 126.409 308.51C126.409 307.68 126.909 307.18 127.629 307.18C128.049 307.18 128.509 307.41 128.719 307.73V309.29C128.509 309.6 128.049 309.84 127.629 309.84ZM133.529 311.12C134.279 311.12 135.039 310.89 135.519 310.45L134.959 309.63C134.649 309.93 134.079 310.11 133.669 310.11C132.849 310.11 132.359 309.6 132.279 308.99H135.869V308.71C135.869 307.13 134.889 306.05 133.449 306.05C131.979 306.05 130.949 307.18 130.949 308.58C130.949 310.13 132.059 311.12 133.529 311.12ZM134.639 308.13H132.259C132.319 307.65 132.659 307.06 133.449 307.06C134.289 307.06 134.609 307.67 134.639 308.13Z" fill="#198BFB"/>
<path d="M56.49 324V322.75H53.77C55.5 321.49 56.44 320.5 56.44 319.36C56.44 318.03 55.31 317.23 53.89 317.23C52.96 317.23 51.97 317.57 51.32 318.32L52.13 319.26C52.58 318.79 53.16 318.49 53.92 318.49C54.47 318.49 55 318.78 55 319.36C55 320.18 54.2 320.87 51.47 322.89V324H56.49ZM59.6661 324L62.1461 318.32V317.33H57.1361V318.58H60.4961L58.1061 324H59.6661ZM67.4939 325.37C66.8239 324.17 66.4839 323.07 66.4839 321.57C66.4839 320.07 66.8239 318.97 67.4939 317.75L66.6939 317.15C65.7239 318.25 65.1139 319.96 65.1139 321.57C65.1139 323.18 65.7239 324.9 66.6939 325.99L67.4939 325.37ZM73.0627 324V322.75H70.3427C72.0727 321.49 73.0127 320.5 73.0127 319.36C73.0127 318.03 71.8827 317.23 70.4627 317.23C69.5327 317.23 68.5427 317.57 67.8927 318.32L68.7027 319.26C69.1527 318.79 69.7327 318.49 70.4927 318.49C71.0427 318.49 71.5727 318.78 71.5727 319.36C71.5727 320.18 70.7727 320.87 68.0427 322.89V324H73.0627ZM76.9188 324V317.33H75.6788L73.5788 319.44L74.3888 320.29L75.4988 319.16V324H76.9188ZM78.7601 324.11C79.2001 324.11 79.5701 323.74 79.5701 323.3C79.5701 322.86 79.2001 322.49 78.7601 322.49C78.3201 322.49 77.9501 322.86 77.9501 323.3C77.9501 323.74 78.3201 324.11 78.7601 324.11ZM82.7687 324.12C84.3687 324.12 85.3987 323.31 85.3987 322.16C85.3987 321.16 84.5187 320.63 83.8387 320.56C84.5787 320.43 85.2987 319.88 85.2987 319.04C85.2987 317.93 84.3387 317.23 82.7787 317.23C81.6087 317.23 80.7687 317.68 80.2287 318.29L80.9387 319.18C81.4087 318.73 81.9887 318.49 82.6287 318.49C83.3287 318.49 83.8687 318.75 83.8687 319.28C83.8687 319.77 83.3787 319.99 82.6387 319.99C82.3887 319.99 81.9287 319.99 81.8087 319.98V321.26C81.9087 321.25 82.3587 321.24 82.6387 321.24C83.5687 321.24 83.9787 321.48 83.9787 322.01C83.9787 322.51 83.5287 322.86 82.7187 322.86C82.0687 322.86 81.3387 322.58 80.8787 322.1L80.1387 323.05C80.6287 323.65 81.5387 324.12 82.7687 324.12ZM87.6578 320.55C88.6878 320.55 89.3578 319.84 89.3578 318.91C89.3578 317.97 88.6878 317.23 87.6578 317.23C86.6378 317.23 85.9678 317.97 85.9678 318.91C85.9678 319.84 86.6378 320.55 87.6578 320.55ZM87.7578 324L92.0278 317.33H91.2678L87.0078 324H87.7578ZM91.3278 324.12C92.3478 324.12 93.0278 323.4 93.0278 322.47C93.0278 321.53 92.3478 320.79 91.3278 320.79C90.3078 320.79 89.6378 321.53 89.6378 322.47C89.6378 323.4 90.3078 324.12 91.3278 324.12ZM87.6578 319.77C87.2078 319.77 86.8678 319.43 86.8678 318.91C86.8678 318.35 87.2078 318.02 87.6578 318.02C88.1178 318.02 88.4478 318.35 88.4478 318.91C88.4478 319.43 88.1178 319.77 87.6578 319.77ZM91.3278 323.34C90.8678 323.34 90.5378 323.01 90.5378 322.47C90.5378 321.92 90.8678 321.58 91.3278 321.58C91.7878 321.58 92.1278 321.92 92.1278 322.47C92.1278 323.01 91.7878 323.34 91.3278 323.34ZM94.1462 325.99C95.1262 324.9 95.7462 323.18 95.7462 321.57C95.7462 319.96 95.1262 318.25 94.1462 317.15L93.3462 317.75C94.0362 318.97 94.3662 320.07 94.3662 321.57C94.3662 323.07 94.0362 324.17 93.3462 325.37L94.1462 325.99Z" fill="#198BFB"/>
<rect x="43" y="383.414" width="9.32635" height="9.32635" fill="#263F97"/>
<rect x="43" y="406.148" width="9.32635" height="9.32635" fill="#198BFB"/>
<rect x="43" y="428.883" width="9.32635" height="9.32635" fill="#FFC83D"/>
<rect x="43" y="451.031" width="9.32635" height="9.32635" fill="#FF756C"/>
<path d="M64.8443 392.582V386.078H67.1723V384.578H60.7883V386.078H63.1283V392.582H64.8443ZM69.7448 392.726C71.6648 392.726 72.8168 391.334 72.8168 389.678C72.8168 388.034 71.6648 386.642 69.7448 386.642C67.8368 386.642 66.6848 388.034 66.6848 389.678C66.6848 391.334 67.8368 392.726 69.7448 392.726ZM69.7448 391.37C68.7968 391.37 68.2688 390.59 68.2688 389.678C68.2688 388.778 68.7968 387.998 69.7448 387.998C70.6928 387.998 71.2328 388.778 71.2328 389.678C71.2328 390.59 70.6928 391.37 69.7448 391.37ZM79.4674 392.582V384.578H77.9314V387.53C77.4754 386.942 76.8274 386.642 76.1434 386.642C74.6674 386.642 73.5754 387.794 73.5754 389.69C73.5754 391.622 74.6794 392.726 76.1434 392.726C76.8394 392.726 77.4754 392.414 77.9314 391.838V392.582H79.4674ZM76.6114 391.37C75.7474 391.37 75.1474 390.686 75.1474 389.69C75.1474 388.682 75.7474 387.998 76.6114 387.998C77.1274 387.998 77.6794 388.274 77.9314 388.658V390.71C77.6794 391.094 77.1274 391.37 76.6114 391.37ZM85.9827 392.582V388.838C85.9827 387.17 84.7707 386.642 83.4507 386.642C82.5387 386.642 81.6267 386.93 80.9187 387.554L81.4947 388.574C81.9867 388.118 82.5627 387.89 83.1867 387.89C83.9547 387.89 84.4587 388.274 84.4587 388.862V389.642C84.0747 389.186 83.3907 388.934 82.6227 388.934C81.6987 388.934 80.6067 389.45 80.6067 390.806C80.6067 392.102 81.6987 392.726 82.6227 392.726C83.3787 392.726 84.0627 392.45 84.4587 391.982V392.582H85.9827ZM83.2347 391.694C82.6347 391.694 82.1427 391.382 82.1427 390.842C82.1427 390.278 82.6347 389.966 83.2347 389.966C83.7267 389.966 84.2067 390.134 84.4587 390.47V391.19C84.2067 391.526 83.7267 391.694 83.2347 391.694ZM87.2903 394.85C87.4823 394.898 87.8663 394.934 88.0463 394.934C89.0423 394.91 89.8103 394.622 90.2423 393.53L92.9663 386.786H91.3223L89.8103 390.818L88.2983 386.786H86.6663L89.0183 392.666L88.8023 393.158C88.6583 393.47 88.3943 393.578 87.9983 393.578C87.8543 393.578 87.6503 393.542 87.5183 393.482L87.2903 394.85Z" fill="#263F97"/>
<path d="M64.6283 415.312V407.308H63.1403L60.6203 409.84L61.5923 410.86L62.9243 409.504V415.312H64.6283ZM74.7682 415.312V407.308H73.2322V410.26C72.7762 409.672 72.1282 409.372 71.4442 409.372C69.9682 409.372 68.8762 410.524 68.8762 412.42C68.8762 414.352 69.9802 415.457 71.4442 415.457C72.1402 415.457 72.7762 415.144 73.2322 414.568V415.312H74.7682ZM71.9122 414.1C71.0482 414.1 70.4482 413.416 70.4482 412.42C70.4482 411.412 71.0482 410.728 71.9122 410.728C72.4282 410.728 72.9802 411.004 73.2322 411.388V413.44C72.9802 413.824 72.4282 414.1 71.9122 414.1ZM81.2834 415.312V411.568C81.2834 409.9 80.0714 409.372 78.7514 409.372C77.8394 409.372 76.9274 409.66 76.2194 410.284L76.7954 411.304C77.2874 410.848 77.8634 410.62 78.4874 410.62C79.2554 410.62 79.7594 411.004 79.7594 411.592V412.372C79.3754 411.916 78.6914 411.664 77.9234 411.664C76.9994 411.664 75.9074 412.18 75.9074 413.536C75.9074 414.832 76.9994 415.457 77.9234 415.457C78.6794 415.457 79.3634 415.18 79.7594 414.712V415.312H81.2834ZM78.5354 414.424C77.9354 414.424 77.4434 414.112 77.4434 413.572C77.4434 413.008 77.9354 412.696 78.5354 412.696C79.0274 412.696 79.5074 412.864 79.7594 413.2V413.92C79.5074 414.256 79.0274 414.424 78.5354 414.424ZM82.5911 417.581C82.7831 417.629 83.1671 417.665 83.3471 417.665C84.3431 417.641 85.1111 417.353 85.5431 416.261L88.2671 409.516H86.6231L85.1111 413.549L83.5991 409.516H81.9671L84.3191 415.397L84.1031 415.889C83.9591 416.201 83.6951 416.309 83.2991 416.309C83.1551 416.309 82.9511 416.273 82.8191 416.213L82.5911 417.581Z" fill="#263F97"/>
<path d="M67.0763 438.047V436.547H63.8123C65.8883 435.035 67.0163 433.847 67.0163 432.479C67.0163 430.883 65.6603 429.923 63.9563 429.923C62.8403 429.923 61.6523 430.331 60.8723 431.231L61.8443 432.359C62.3843 431.795 63.0803 431.435 63.9923 431.435C64.6523 431.435 65.2883 431.783 65.2883 432.479C65.2883 433.463 64.3283 434.291 61.0523 436.715V438.047H67.0763ZM77.0299 438.047V430.043H75.4939V432.995C75.0379 432.407 74.3899 432.107 73.7059 432.107C72.2299 432.107 71.1379 433.259 71.1379 435.155C71.1379 437.087 72.2419 438.191 73.7059 438.191C74.4019 438.191 75.0379 437.879 75.4939 437.303V438.047H77.0299ZM74.1739 436.835C73.3099 436.835 72.7099 436.151 72.7099 435.155C72.7099 434.147 73.3099 433.463 74.1739 433.463C74.6899 433.463 75.2419 433.739 75.4939 434.123V436.175C75.2419 436.559 74.6899 436.835 74.1739 436.835ZM83.5452 438.047V434.303C83.5452 432.635 82.3332 432.107 81.0132 432.107C80.1012 432.107 79.1892 432.395 78.4812 433.019L79.0572 434.039C79.5492 433.583 80.1252 433.355 80.7492 433.355C81.5172 433.355 82.0212 433.739 82.0212 434.327V435.107C81.6372 434.651 80.9532 434.399 80.1852 434.399C79.2612 434.399 78.1692 434.915 78.1692 436.271C78.1692 437.567 79.2612 438.191 80.1852 438.191C80.9412 438.191 81.6252 437.915 82.0212 437.447V438.047H83.5452ZM80.7972 437.159C80.1972 437.159 79.7052 436.847 79.7052 436.307C79.7052 435.743 80.1972 435.431 80.7972 435.431C81.2892 435.431 81.7692 435.599 82.0212 435.935V436.655C81.7692 436.991 81.2892 437.159 80.7972 437.159ZM84.8528 440.315C85.0448 440.363 85.4288 440.399 85.6088 440.399C86.6048 440.375 87.3728 440.087 87.8048 438.995L90.5288 432.251H88.8848L87.3728 436.283L85.8608 432.251H84.2288L86.5808 438.131L86.3648 438.623C86.2208 438.935 85.9568 439.043 85.5608 439.043C85.4168 439.043 85.2128 439.007 85.0808 438.947L84.8528 440.315ZM93.2971 438.191C94.9051 438.191 95.8051 437.387 95.8051 436.331C95.8051 433.991 92.3731 434.711 92.3731 433.847C92.3731 433.523 92.7331 433.271 93.2851 433.271C93.9931 433.271 94.6531 433.571 95.0011 433.943L95.6131 432.899C95.0371 432.443 94.2571 432.107 93.2731 432.107C91.7491 432.107 90.8971 432.959 90.8971 433.931C90.8971 436.211 94.3411 435.431 94.3411 436.391C94.3411 436.751 94.0291 437.015 93.3691 437.015C92.6491 437.015 91.7851 436.619 91.3651 436.223L90.7051 437.291C91.3171 437.855 92.2891 438.191 93.2971 438.191Z" fill="#263F97"/>
<path d="M69.9563 455.695V447.691H67.5563L65.6123 452.527L63.6683 447.691H61.2803V455.695H62.9843V450.091L65.2403 455.695H65.9843L68.2403 450.091V455.695H69.9563ZM74.1979 455.839C76.1179 455.839 77.2699 454.447 77.2699 452.791C77.2699 451.147 76.1179 449.755 74.1979 449.755C72.2899 449.755 71.1379 451.147 71.1379 452.791C71.1379 454.447 72.2899 455.839 74.1979 455.839ZM74.1979 454.483C73.2499 454.483 72.7219 453.703 72.7219 452.791C72.7219 451.891 73.2499 451.111 74.1979 451.111C75.1459 451.111 75.6859 451.891 75.6859 452.791C75.6859 453.703 75.1459 454.483 74.1979 454.483ZM79.9245 455.695V451.867C80.1765 451.495 80.8485 451.207 81.3525 451.207C81.5205 451.207 81.6645 451.219 81.7725 451.243V449.755C81.0525 449.755 80.3325 450.175 79.9245 450.691V449.899H78.4005V455.695H79.9245ZM85.4488 455.839C86.3488 455.839 87.2608 455.563 87.8368 455.035L87.1648 454.051C86.7928 454.411 86.1088 454.627 85.6168 454.627C84.6328 454.627 84.0448 454.015 83.9488 453.283H88.2568V452.947C88.2568 451.051 87.0808 449.755 85.3528 449.755C83.5888 449.755 82.3528 451.111 82.3528 452.791C82.3528 454.651 83.6848 455.839 85.4488 455.839ZM86.7808 452.251H83.9248C83.9968 451.675 84.4048 450.967 85.3528 450.967C86.3608 450.967 86.7448 451.699 86.7808 452.251ZM94.3719 455.839C95.0079 455.839 95.4159 455.671 95.6439 455.467L95.3199 454.315C95.2359 454.399 95.0199 454.483 94.7919 454.483C94.4559 454.483 94.2639 454.207 94.2639 453.847V451.231H95.4399V449.899H94.2639V448.315H92.7279V449.899H91.7679V451.231H92.7279V454.255C92.7279 455.287 93.3039 455.839 94.3719 455.839ZM101.931 455.695V451.579C101.931 450.451 101.319 449.755 100.047 449.755C99.0986 449.755 98.3786 450.211 98.0066 450.655V447.691H96.4826V455.695H98.0066V451.795C98.2706 451.447 98.7386 451.111 99.3266 451.111C99.9866 451.111 100.407 451.363 100.407 452.167V455.695H101.931ZM108.448 455.695V451.951C108.448 450.283 107.236 449.755 105.916 449.755C105.004 449.755 104.092 450.043 103.384 450.667L103.96 451.687C104.451 451.231 105.028 451.003 105.652 451.003C106.42 451.003 106.924 451.387 106.924 451.975V452.755C106.54 452.299 105.855 452.047 105.088 452.047C104.164 452.047 103.072 452.563 103.072 453.919C103.072 455.215 104.164 455.839 105.088 455.839C105.844 455.839 106.528 455.563 106.924 455.095V455.695H108.448ZM105.7 454.807C105.1 454.807 104.608 454.495 104.608 453.955C104.608 453.391 105.1 453.079 105.7 453.079C106.192 453.079 106.672 453.247 106.924 453.583V454.303C106.672 454.639 106.192 454.807 105.7 454.807ZM115.395 455.695V451.603C115.395 450.475 114.783 449.755 113.511 449.755C112.563 449.755 111.855 450.211 111.483 450.655V449.899H109.959V455.695H111.483V451.795C111.735 451.447 112.203 451.111 112.803 451.111C113.451 451.111 113.871 451.387 113.871 452.191V455.695H115.395ZM125.811 455.695V454.195H122.547C124.623 452.683 125.751 451.495 125.751 450.127C125.751 448.531 124.395 447.571 122.691 447.571C121.575 447.571 120.387 447.979 119.607 448.879L120.579 450.007C121.119 449.443 121.815 449.083 122.727 449.083C123.387 449.083 124.023 449.431 124.023 450.127C124.023 451.111 123.063 451.939 119.787 454.363V455.695H125.811ZM135.764 455.695V447.691H134.228V450.643C133.772 450.055 133.124 449.755 132.44 449.755C130.964 449.755 129.872 450.907 129.872 452.803C129.872 454.735 130.976 455.839 132.44 455.839C133.136 455.839 133.772 455.527 134.228 454.951V455.695H135.764ZM132.908 454.483C132.044 454.483 131.444 453.799 131.444 452.803C131.444 451.795 132.044 451.111 132.908 451.111C133.424 451.111 133.976 451.387 134.228 451.771V453.823C133.976 454.207 133.424 454.483 132.908 454.483ZM142.28 455.695V451.951C142.28 450.283 141.068 449.755 139.748 449.755C138.836 449.755 137.924 450.043 137.216 450.667L137.792 451.687C138.284 451.231 138.86 451.003 139.484 451.003C140.252 451.003 140.756 451.387 140.756 451.975V452.755C140.372 452.299 139.688 452.047 138.92 452.047C137.996 452.047 136.904 452.563 136.904 453.919C136.904 455.215 137.996 455.839 138.92 455.839C139.676 455.839 140.36 455.563 140.756 455.095V455.695H142.28ZM139.532 454.807C138.932 454.807 138.44 454.495 138.44 453.955C138.44 453.391 138.932 453.079 139.532 453.079C140.024 453.079 140.504 453.247 140.756 453.583V454.303C140.504 454.639 140.024 454.807 139.532 454.807ZM143.587 457.963C143.779 458.011 144.163 458.047 144.343 458.047C145.339 458.023 146.107 457.735 146.539 456.643L149.263 449.899H147.619L146.107 453.931L144.595 449.899H142.963L145.315 455.779L145.099 456.271C144.955 456.583 144.691 456.691 144.295 456.691C144.151 456.691 143.947 456.655 143.815 456.595L143.587 457.963ZM152.032 455.839C153.64 455.839 154.54 455.035 154.54 453.979C154.54 451.639 151.108 452.359 151.108 451.495C151.108 451.171 151.468 450.919 152.02 450.919C152.728 450.919 153.388 451.219 153.736 451.591L154.348 450.547C153.772 450.091 152.992 449.755 152.008 449.755C150.484 449.755 149.632 450.607 149.632 451.579C149.632 453.859 153.076 453.079 153.076 454.039C153.076 454.399 152.764 454.663 152.104 454.663C151.384 454.663 150.52 454.267 150.1 453.871L149.44 454.939C150.052 455.503 151.024 455.839 152.032 455.839Z" fill="#263F97"/>
<path d="M206.601 392.082V391.194H202.677C204.909 389.43 206.565 387.942 206.565 386.31C206.565 384.714 205.209 383.958 203.877 383.958C202.749 383.958 201.705 384.402 201.093 385.218L201.705 385.854C202.173 385.254 202.917 384.846 203.877 384.846C204.705 384.846 205.557 385.278 205.557 386.31C205.557 387.69 203.985 389.022 201.105 391.278V392.082H206.601Z" fill="#263F97"/>
<path d="M200.425 414.398V413.51H196.501C198.733 411.746 200.389 410.258 200.389 408.626C200.389 407.03 199.033 406.274 197.701 406.274C196.573 406.274 195.529 406.718 194.917 407.534L195.529 408.17C195.997 407.57 196.741 407.162 197.701 407.162C198.529 407.162 199.381 407.594 199.381 408.626C199.381 410.006 197.809 411.338 194.929 413.594V414.398H200.425ZM203.892 414.398L207.168 407.078V406.394H201.708V407.282H206.016L202.788 414.398H203.892Z" fill="#263F97"/>
<path d="M197.344 437.277C199.108 437.277 200.188 436.305 200.188 434.973C200.188 433.677 199.06 433.065 198.34 432.993C199.084 432.873 200.056 432.297 200.056 431.133C200.056 429.789 198.892 429.009 197.356 429.009C196.108 429.009 195.184 429.537 194.608 430.245L195.16 430.869C195.748 430.233 196.396 429.897 197.272 429.897C198.244 429.897 199.06 430.377 199.06 431.265C199.06 432.189 198.208 432.585 197.2 432.585C196.876 432.585 196.504 432.585 196.372 432.573V433.485C196.492 433.473 196.864 433.473 197.2 433.473C198.376 433.473 199.192 433.893 199.192 434.889C199.192 435.801 198.484 436.389 197.32 436.389C196.372 436.389 195.556 435.957 195.088 435.333L194.5 435.957C194.992 436.677 195.988 437.277 197.344 437.277ZM204.024 437.277C205.788 437.277 206.868 436.305 206.868 434.973C206.868 433.677 205.74 433.065 205.02 432.993C205.764 432.873 206.736 432.297 206.736 431.133C206.736 429.789 205.572 429.009 204.036 429.009C202.788 429.009 201.864 429.537 201.288 430.245L201.84 430.869C202.428 430.233 203.076 429.897 203.952 429.897C204.924 429.897 205.74 430.377 205.74 431.265C205.74 432.189 204.888 432.585 203.88 432.585C203.556 432.585 203.184 432.585 203.052 432.573V433.485C203.172 433.473 203.544 433.473 203.88 433.473C205.056 433.473 205.872 433.893 205.872 434.889C205.872 435.801 205.164 436.389 204 436.389C203.052 436.389 202.236 435.957 201.768 435.333L201.18 435.957C201.672 436.677 202.668 437.277 204.024 437.277Z" fill="#263F97"/>
<path d="M197.353 461.011C198.961 461.011 200.209 459.991 200.209 458.371C200.209 456.715 198.997 455.815 197.653 455.815C196.849 455.815 196.177 456.151 195.781 456.535V453.751H199.681V452.863H194.785V457.171L195.517 457.423C196.057 456.907 196.669 456.679 197.365 456.679C198.445 456.679 199.201 457.351 199.201 458.407C199.201 459.379 198.445 460.123 197.353 460.123C196.381 460.123 195.673 459.739 195.145 459.055L194.533 459.727C195.133 460.519 196.009 461.011 197.353 461.011ZM206.003 460.867V458.839H207.131V457.963H206.003V452.863H204.635L201.203 458.011V458.839H205.007V460.867H206.003ZM205.007 457.963H202.199L205.007 453.787V457.963Z" fill="#263F97"/>
<g filter="url(#filter1_d_2839_1833)">
<rect x="212" y="20" width="341" height="542" rx="12" fill="white"/>
</g>
<path d="M280.58 62C284.76 62 287.66 59.36 287.66 55.34C287.66 51.32 284.76 48.66 280.58 48.66H275.32V62H280.58ZM280.58 59.5H278.16V51.16H280.58C283.32 51.16 284.76 52.98 284.76 55.34C284.76 57.6 283.22 59.5 280.58 59.5ZM293.955 62.24C295.455 62.24 296.975 61.78 297.935 60.9L296.815 59.26C296.195 59.86 295.055 60.22 294.235 60.22C292.595 60.22 291.615 59.2 291.455 57.98H298.635V57.42C298.635 54.26 296.675 52.1 293.795 52.1C290.855 52.1 288.795 54.36 288.795 57.16C288.795 60.26 291.015 62.24 293.955 62.24ZM296.175 56.26H291.415C291.535 55.3 292.215 54.12 293.795 54.12C295.475 54.12 296.115 55.34 296.175 56.26ZM302.81 62V48.66H300.27V62H302.81ZM306.389 51.3C307.229 51.3 307.909 50.62 307.909 49.78C307.909 48.94 307.229 48.28 306.389 48.28C305.569 48.28 304.869 48.94 304.869 49.78C304.869 50.62 305.569 51.3 306.389 51.3ZM307.669 62V52.34H305.129V62H307.669ZM315.227 62L319.107 52.34H316.367L313.847 59.06L311.327 52.34H308.607L312.487 62H315.227ZM324.581 62.24C326.081 62.24 327.601 61.78 328.561 60.9L327.441 59.26C326.821 59.86 325.681 60.22 324.861 60.22C323.221 60.22 322.241 59.2 322.081 57.98H329.261V57.42C329.261 54.26 327.301 52.1 324.421 52.1C321.481 52.1 319.421 54.36 319.421 57.16C319.421 60.26 321.641 62.24 324.581 62.24ZM326.801 56.26H322.041C322.161 55.3 322.841 54.12 324.421 54.12C326.101 54.12 326.741 55.34 326.801 56.26ZM333.436 62V55.62C333.856 55 334.976 54.52 335.816 54.52C336.096 54.52 336.336 54.54 336.516 54.58V52.1C335.316 52.1 334.116 52.8 333.436 53.66V52.34H330.896V62H333.436ZM337.563 65.78C337.883 65.86 338.523 65.92 338.823 65.92C340.483 65.88 341.763 65.4 342.483 63.58L347.023 52.34H344.283L341.763 59.06L339.243 52.34H336.523L340.443 62.14L340.083 62.96C339.843 63.48 339.403 63.66 338.743 63.66C338.503 63.66 338.163 63.6 337.943 63.5L337.563 65.78ZM365.374 62L360.234 48.66H356.674L351.514 62H354.754L355.594 59.74H361.314L362.134 62H365.374ZM360.534 57.24H356.374L358.454 51.5L360.534 57.24ZM369.117 62.24C370.177 62.24 370.857 61.96 371.237 61.62L370.697 59.7C370.557 59.84 370.197 59.98 369.817 59.98C369.257 59.98 368.937 59.52 368.937 58.92V54.56H370.897V52.34H368.937V49.7H366.377V52.34H364.777V54.56H366.377V59.6C366.377 61.32 367.337 62.24 369.117 62.24ZM375.675 62.24C376.735 62.24 377.415 61.96 377.795 61.62L377.255 59.7C377.115 59.84 376.755 59.98 376.375 59.98C375.815 59.98 375.495 59.52 375.495 58.92V54.56H377.455V52.34H375.495V49.7H372.935V52.34H371.335V54.56H372.935V59.6C372.935 61.32 373.895 62.24 375.675 62.24ZM383.533 62.24C385.033 62.24 386.553 61.78 387.513 60.9L386.393 59.26C385.773 59.86 384.633 60.22 383.813 60.22C382.173 60.22 381.193 59.2 381.033 57.98H388.213V57.42C388.213 54.26 386.253 52.1 383.373 52.1C380.433 52.1 378.373 54.36 378.373 57.16C378.373 60.26 380.593 62.24 383.533 62.24ZM385.753 56.26H380.993C381.113 55.3 381.793 54.12 383.373 54.12C385.053 54.12 385.693 55.34 385.753 56.26ZM404.388 62V55.02C404.388 53.04 403.328 52.1 401.548 52.1C400.068 52.1 398.788 52.98 398.228 53.86C397.868 52.76 396.968 52.1 395.548 52.1C394.068 52.1 392.788 53.02 392.388 53.6V52.34H389.848V62H392.388V55.5C392.768 54.96 393.508 54.36 394.388 54.36C395.428 54.36 395.828 55 395.828 55.9V62H398.388V55.48C398.748 54.96 399.488 54.36 400.388 54.36C401.428 54.36 401.828 55 401.828 55.9V62H404.388ZM412.199 62.24C414.679 62.24 416.479 60.38 416.479 57.16C416.479 53.94 414.679 52.1 412.199 52.1C411.019 52.1 409.959 52.62 409.219 53.56V52.34H406.679V65.68H409.219V60.76C409.999 61.76 411.059 62.24 412.199 62.24ZM411.399 59.98C410.579 59.98 409.639 59.48 409.219 58.88V55.46C409.639 54.84 410.579 54.36 411.399 54.36C412.859 54.36 413.839 55.5 413.839 57.16C413.839 58.84 412.859 59.98 411.399 59.98ZM421.379 62.24C422.439 62.24 423.119 61.96 423.499 61.62L422.959 59.7C422.819 59.84 422.459 59.98 422.079 59.98C421.519 59.98 421.199 59.52 421.199 58.92V54.56H423.159V52.34H421.199V49.7H418.639V52.34H417.039V54.56H418.639V59.6C418.639 61.32 419.599 62.24 421.379 62.24ZM428.177 62.24C430.857 62.24 432.357 60.9 432.357 59.14C432.357 55.24 426.637 56.44 426.637 55C426.637 54.46 427.237 54.04 428.157 54.04C429.337 54.04 430.437 54.54 431.017 55.16L432.037 53.42C431.077 52.66 429.777 52.1 428.137 52.1C425.597 52.1 424.177 53.52 424.177 55.14C424.177 58.94 429.917 57.64 429.917 59.24C429.917 59.84 429.397 60.28 428.297 60.28C427.097 60.28 425.657 59.62 424.957 58.96L423.857 60.74C424.877 61.68 426.497 62.24 428.177 62.24Z" fill="#263F97"/>
<path d="M259 344C259 339.582 262.582 336 267 336H492C496.418 336 500 339.582 500 344V529C500 533.418 496.418 537 492 537H267C262.582 537 259 533.418 259 529V344Z" fill="#EDF0F9"/>
<path d="M405.663 125.809C426.433 131.374 444.505 144.231 456.573 162.028C468.642 179.825 473.899 201.372 471.384 222.727L435.83 218.54C437.339 205.727 434.184 192.799 426.943 182.121C419.702 171.442 408.859 163.728 396.397 160.389L405.663 125.809Z" fill="#FFC83D"/>
<path d="M472 212.258C472 226.976 468.37 241.467 461.432 254.448C454.494 267.428 444.461 278.497 432.224 286.674C419.986 294.851 405.92 299.884 391.273 301.327C376.625 302.77 361.848 300.577 348.25 294.945C334.652 289.313 322.653 280.413 313.316 269.036C303.978 257.659 297.591 244.154 294.72 229.718C291.848 215.283 292.581 200.362 296.854 186.277C301.126 172.193 308.806 159.379 319.214 148.972L344.528 174.286C338.284 180.531 333.676 188.219 331.112 196.67C328.549 205.12 328.109 214.073 329.832 222.734C331.555 231.396 335.387 239.498 340.989 246.325C346.592 253.151 353.791 258.491 361.95 261.87C370.109 265.25 378.975 266.565 387.764 265.699C396.552 264.834 404.991 261.814 412.334 256.908C419.677 252.001 425.696 245.36 429.859 237.572C434.022 229.784 436.2 221.089 436.2 212.258H472Z" fill="#125CCC"/>
<path d="M319.214 148.972C334.419 133.767 354.589 124.545 376.036 122.992C397.482 121.439 418.771 127.659 436.008 140.514L414.605 169.212C404.263 161.498 391.489 157.766 378.621 158.698C365.754 159.63 353.651 165.163 344.528 174.286L319.214 148.972Z" fill="#198BFB"/>
<g filter="url(#filter2_d_2839_1833)">
<rect x="403" y="94" width="79" height="43" rx="5" fill="white"/>
<rect x="403.5" y="94.5" width="78" height="42" rx="4.5" stroke="#198BFB"/>
</g>
<path d="M419.49 110.758V109.508H416.77C418.5 108.248 419.44 107.258 419.44 106.118C419.44 104.788 418.31 103.988 416.89 103.988C415.96 103.988 414.97 104.328 414.32 105.078L415.13 106.018C415.58 105.548 416.16 105.248 416.92 105.248C417.47 105.248 418 105.538 418 106.118C418 106.938 417.2 107.628 414.47 109.648V110.758H419.49ZM425.056 110.758V107.348C425.056 106.408 424.546 105.808 423.486 105.808C422.696 105.808 422.106 106.188 421.796 106.558V105.928H420.526V110.758H421.796V107.508C422.006 107.218 422.396 106.938 422.896 106.938C423.436 106.938 423.786 107.168 423.786 107.838V110.758H425.056ZM430.817 110.758V104.088H429.537V106.548C429.157 106.058 428.617 105.808 428.047 105.808C426.817 105.808 425.907 106.768 425.907 108.348C425.907 109.958 426.827 110.878 428.047 110.878C428.627 110.878 429.157 110.618 429.537 110.138V110.758H430.817ZM428.437 109.748C427.717 109.748 427.217 109.178 427.217 108.348C427.217 107.508 427.717 106.938 428.437 106.938C428.867 106.938 429.327 107.168 429.537 107.488V109.198C429.327 109.518 428.867 109.748 428.437 109.748ZM440.685 110.758L438.115 104.088H436.335L433.755 110.758H435.375L435.795 109.628H438.655L439.065 110.758H440.685ZM438.265 108.378H436.185L437.225 105.508L438.265 108.378ZM442.557 110.878C443.087 110.878 443.427 110.738 443.617 110.568L443.347 109.608C443.277 109.678 443.097 109.748 442.907 109.748C442.627 109.748 442.467 109.518 442.467 109.218V107.038H443.447V105.928H442.467V104.608H441.187V105.928H440.387V107.038H441.187V109.558C441.187 110.418 441.667 110.878 442.557 110.878ZM445.836 110.878C446.366 110.878 446.706 110.738 446.896 110.568L446.626 109.608C446.556 109.678 446.376 109.748 446.186 109.748C445.906 109.748 445.746 109.518 445.746 109.218V107.038H446.726V105.928H445.746V104.608H444.466V105.928H443.666V107.038H444.466V109.558C444.466 110.418 444.946 110.878 445.836 110.878ZM449.764 110.878C450.514 110.878 451.274 110.648 451.754 110.208L451.194 109.388C450.884 109.688 450.314 109.868 449.904 109.868C449.084 109.868 448.594 109.358 448.514 108.748H452.104V108.468C452.104 106.888 451.124 105.808 449.684 105.808C448.214 105.808 447.184 106.938 447.184 108.338C447.184 109.888 448.294 110.878 449.764 110.878ZM450.874 107.888H448.494C448.554 107.408 448.894 106.818 449.684 106.818C450.524 106.818 450.844 107.428 450.874 107.888ZM460.192 110.758V107.268C460.192 106.278 459.662 105.808 458.772 105.808C458.032 105.808 457.392 106.248 457.112 106.688C456.932 106.138 456.482 105.808 455.772 105.808C455.032 105.808 454.392 106.268 454.192 106.558V105.928H452.922V110.758H454.192V107.508C454.382 107.238 454.752 106.938 455.192 106.938C455.712 106.938 455.912 107.258 455.912 107.708V110.758H457.192V107.498C457.372 107.238 457.742 106.938 458.192 106.938C458.712 106.938 458.912 107.258 458.912 107.708V110.758H460.192ZM464.097 110.878C465.337 110.878 466.237 109.948 466.237 108.338C466.237 106.728 465.337 105.808 464.097 105.808C463.507 105.808 462.977 106.068 462.607 106.538V105.928H461.337V112.598H462.607V110.138C462.997 110.638 463.527 110.878 464.097 110.878ZM463.697 109.748C463.287 109.748 462.817 109.498 462.607 109.198V107.488C462.817 107.178 463.287 106.938 463.697 106.938C464.427 106.938 464.917 107.508 464.917 108.338C464.917 109.178 464.427 109.748 463.697 109.748ZM468.688 110.878C469.218 110.878 469.558 110.738 469.748 110.568L469.478 109.608C469.408 109.678 469.228 109.748 469.038 109.748C468.758 109.748 468.598 109.518 468.598 109.218V107.038H469.578V105.928H468.598V104.608H467.318V105.928H466.518V107.038H467.318V109.558C467.318 110.418 467.798 110.878 468.688 110.878Z" fill="#198BFB"/>
<path d="M417.962 128.926C420.202 128.926 421.644 127.792 421.644 126.182C421.644 124.782 420.412 124.04 419.46 123.942C420.496 123.76 421.504 122.99 421.504 121.814C421.504 120.26 420.16 119.28 417.976 119.28C416.338 119.28 415.162 119.91 414.406 120.764L415.4 122.01C416.058 121.38 416.87 121.044 417.766 121.044C418.746 121.044 419.502 121.408 419.502 122.15C419.502 122.836 418.816 123.144 417.78 123.144C417.43 123.144 416.786 123.144 416.618 123.13V124.922C416.758 124.908 417.388 124.894 417.78 124.894C419.082 124.894 419.656 125.23 419.656 125.972C419.656 126.672 419.026 127.162 417.892 127.162C416.982 127.162 415.96 126.77 415.316 126.098L414.28 127.428C414.966 128.268 416.24 128.926 417.962 128.926ZM429.763 128.758V127.008H425.955C428.377 125.244 429.693 123.858 429.693 122.262C429.693 120.4 428.111 119.28 426.123 119.28C424.821 119.28 423.435 119.756 422.525 120.806L423.659 122.122C424.289 121.464 425.101 121.044 426.165 121.044C426.935 121.044 427.677 121.45 427.677 122.262C427.677 123.41 426.557 124.376 422.735 127.204V128.758H429.763ZM433.061 123.928C434.503 123.928 435.441 122.934 435.441 121.632C435.441 120.316 434.503 119.28 433.061 119.28C431.633 119.28 430.695 120.316 430.695 121.632C430.695 122.934 431.633 123.928 433.061 123.928ZM433.201 128.758L439.179 119.42H438.115L432.151 128.758H433.201ZM438.199 128.926C439.627 128.926 440.579 127.918 440.579 126.616C440.579 125.3 439.627 124.264 438.199 124.264C436.771 124.264 435.833 125.3 435.833 126.616C435.833 127.918 436.771 128.926 438.199 128.926ZM433.061 122.836C432.431 122.836 431.955 122.36 431.955 121.632C431.955 120.848 432.431 120.386 433.061 120.386C433.705 120.386 434.167 120.848 434.167 121.632C434.167 122.36 433.705 122.836 433.061 122.836ZM438.199 127.834C437.555 127.834 437.093 127.372 437.093 126.616C437.093 125.846 437.555 125.37 438.199 125.37C438.843 125.37 439.319 125.846 439.319 126.616C439.319 127.372 438.843 127.834 438.199 127.834Z" fill="#198BFB"/>
<g filter="url(#filter3_d_2839_1833)">
<rect x="235" y="174.758" width="77" height="43" rx="5" fill="white"/>
<rect x="235.5" y="175.258" width="76" height="42" rx="4.5" stroke="#263F97"/>
</g>
<path d="M250.053 191.758V185.088H248.813L246.713 187.198L247.523 188.048L248.633 186.918V191.758H250.053ZM252.984 191.878C254.324 191.878 255.074 191.208 255.074 190.328C255.074 188.378 252.214 188.978 252.214 188.258C252.214 187.988 252.514 187.778 252.974 187.778C253.564 187.778 254.114 188.028 254.404 188.338L254.914 187.468C254.434 187.088 253.784 186.808 252.964 186.808C251.694 186.808 250.984 187.518 250.984 188.328C250.984 190.228 253.854 189.578 253.854 190.378C253.854 190.678 253.594 190.898 253.044 190.898C252.444 190.898 251.724 190.568 251.374 190.238L250.824 191.128C251.334 191.598 252.144 191.878 252.984 191.878ZM257.529 191.878C258.059 191.878 258.399 191.738 258.589 191.568L258.319 190.608C258.249 190.678 258.069 190.748 257.879 190.748C257.599 190.748 257.439 190.518 257.439 190.218V188.038H258.419V186.928H257.439V185.608H256.159V186.928H255.359V188.038H256.159V190.558C256.159 191.418 256.639 191.878 257.529 191.878ZM265.817 191.758V188.638C265.817 187.248 264.807 186.808 263.707 186.808C262.947 186.808 262.187 187.048 261.597 187.568L262.077 188.418C262.487 188.038 262.967 187.848 263.487 187.848C264.127 187.848 264.547 188.168 264.547 188.658V189.308C264.227 188.928 263.657 188.718 263.017 188.718C262.247 188.718 261.337 189.148 261.337 190.278C261.337 191.358 262.247 191.878 263.017 191.878C263.647 191.878 264.217 191.648 264.547 191.258V191.758H265.817ZM263.527 191.018C263.027 191.018 262.617 190.758 262.617 190.308C262.617 189.838 263.027 189.578 263.527 189.578C263.937 189.578 264.337 189.718 264.547 189.998V190.598C264.337 190.878 263.937 191.018 263.527 191.018ZM268.597 191.878C269.127 191.878 269.467 191.738 269.657 191.568L269.387 190.608C269.317 190.678 269.137 190.748 268.947 190.748C268.667 190.748 268.507 190.518 268.507 190.218V188.038H269.487V186.928H268.507V185.608H267.227V186.928H266.427V188.038H267.227V190.558C267.227 191.418 267.707 191.878 268.597 191.878ZM271.876 191.878C272.406 191.878 272.746 191.738 272.936 191.568L272.666 190.608C272.596 190.678 272.416 190.748 272.226 190.748C271.946 190.748 271.786 190.518 271.786 190.218V188.038H272.766V186.928H271.786V185.608H270.506V186.928H269.706V188.038H270.506V190.558C270.506 191.418 270.986 191.878 271.876 191.878ZM275.804 191.878C276.554 191.878 277.314 191.648 277.794 191.208L277.234 190.388C276.924 190.688 276.354 190.868 275.944 190.868C275.124 190.868 274.634 190.358 274.554 189.748H278.144V189.468C278.144 187.888 277.164 186.808 275.724 186.808C274.254 186.808 273.224 187.938 273.224 189.338C273.224 190.888 274.334 191.878 275.804 191.878ZM276.914 188.888H274.534C274.594 188.408 274.934 187.818 275.724 187.818C276.564 187.818 276.884 188.428 276.914 188.888ZM286.232 191.758V188.268C286.232 187.278 285.702 186.808 284.812 186.808C284.072 186.808 283.432 187.248 283.152 187.688C282.972 187.138 282.522 186.808 281.812 186.808C281.072 186.808 280.432 187.268 280.232 187.558V186.928H278.962V191.758H280.232V188.508C280.422 188.238 280.792 187.938 281.232 187.938C281.752 187.938 281.952 188.258 281.952 188.708V191.758H283.232V188.498C283.412 188.238 283.782 187.938 284.232 187.938C284.752 187.938 284.952 188.258 284.952 188.708V191.758H286.232ZM290.137 191.878C291.377 191.878 292.277 190.948 292.277 189.338C292.277 187.728 291.377 186.808 290.137 186.808C289.547 186.808 289.017 187.068 288.647 187.538V186.928H287.377V193.598H288.647V191.138C289.037 191.638 289.567 191.878 290.137 191.878ZM289.737 190.748C289.327 190.748 288.857 190.498 288.647 190.198V188.488C288.857 188.178 289.327 187.938 289.737 187.938C290.467 187.938 290.957 188.508 290.957 189.338C290.957 190.178 290.467 190.748 289.737 190.748ZM294.728 191.878C295.258 191.878 295.598 191.738 295.788 191.568L295.518 190.608C295.448 190.678 295.268 190.748 295.078 190.748C294.798 190.748 294.638 190.518 294.638 190.218V188.038H295.618V186.928H294.638V185.608H293.358V186.928H292.558V188.038H293.358V190.558C293.358 191.418 293.838 191.878 294.728 191.878Z" fill="#263F97"/>
<path d="M251.111 209.926C253.239 209.926 254.681 208.54 254.681 206.72C254.681 204.732 253.183 203.682 251.503 203.682C250.481 203.682 249.543 204.256 249.109 204.886C249.095 204.816 249.095 204.76 249.095 204.69C249.095 203.206 250.061 202.044 251.433 202.044C252.259 202.044 252.791 202.296 253.295 202.772L254.191 201.246C253.519 200.672 252.567 200.28 251.433 200.28C248.675 200.28 247.079 202.282 247.079 205.11C247.079 207.742 248.269 209.926 251.111 209.926ZM250.999 208.162C249.697 208.162 249.193 207.168 249.109 206.272C249.557 205.712 250.229 205.39 250.929 205.39C251.825 205.39 252.665 205.81 252.665 206.79C252.665 207.448 252.077 208.162 250.999 208.162ZM261.784 209.758V207.826H262.988V206.076H261.784V200.42H259.04L255.33 206.258V207.826H259.796V209.758H261.784ZM259.796 206.076H257.276L259.796 202.184V206.076ZM265.924 204.928C267.366 204.928 268.304 203.934 268.304 202.632C268.304 201.316 267.366 200.28 265.924 200.28C264.496 200.28 263.558 201.316 263.558 202.632C263.558 203.934 264.496 204.928 265.924 204.928ZM266.064 209.758L272.042 200.42H270.978L265.014 209.758H266.064ZM271.062 209.926C272.49 209.926 273.442 208.918 273.442 207.616C273.442 206.3 272.49 205.264 271.062 205.264C269.634 205.264 268.696 206.3 268.696 207.616C268.696 208.918 269.634 209.926 271.062 209.926ZM265.924 203.836C265.294 203.836 264.818 203.36 264.818 202.632C264.818 201.848 265.294 201.386 265.924 201.386C266.568 201.386 267.03 201.848 267.03 202.632C267.03 203.36 266.568 203.836 265.924 203.836ZM271.062 208.834C270.418 208.834 269.956 208.372 269.956 207.616C269.956 206.846 270.418 206.37 271.062 206.37C271.706 206.37 272.182 206.846 272.182 207.616C272.182 208.372 271.706 208.834 271.062 208.834Z" fill="#263F97"/>
<rect x="282" y="359" width="16" height="16" fill="#263F97"/>
<rect x="282" y="404" width="16" height="16" fill="#198BFB"/>
<rect x="282" y="447" width="16" height="16" fill="#FF756C"/>
<rect x="282" y="492" width="16" height="16" fill="#FFC83D"/>
<path d="M310.45 370V363.33H309.21L307.11 365.44L307.92 366.29L309.03 365.16V370H310.45ZM313.381 370.12C314.721 370.12 315.471 369.45 315.471 368.57C315.471 366.62 312.611 367.22 312.611 366.5C312.611 366.23 312.911 366.02 313.371 366.02C313.961 366.02 314.511 366.27 314.801 366.58L315.311 365.71C314.831 365.33 314.181 365.05 313.361 365.05C312.091 365.05 311.381 365.76 311.381 366.57C311.381 368.47 314.251 367.82 314.251 368.62C314.251 368.92 313.991 369.14 313.441 369.14C312.841 369.14 312.121 368.81 311.771 368.48L311.221 369.37C311.731 369.84 312.541 370.12 313.381 370.12ZM317.927 370.12C318.457 370.12 318.797 369.98 318.987 369.81L318.717 368.85C318.647 368.92 318.467 368.99 318.277 368.99C317.997 368.99 317.837 368.76 317.837 368.46V366.28H318.817V365.17H317.837V363.85H316.557V365.17H315.757V366.28H316.557V368.8C316.557 369.66 317.037 370.12 317.927 370.12ZM328.294 370L325.724 363.33H323.944L321.364 370H322.984L323.404 368.87H326.264L326.674 370H328.294ZM325.874 367.62H323.794L324.834 364.75L325.874 367.62ZM330.166 370.12C330.696 370.12 331.036 369.98 331.226 369.81L330.956 368.85C330.886 368.92 330.706 368.99 330.516 368.99C330.236 368.99 330.076 368.76 330.076 368.46V366.28H331.056V365.17H330.076V363.85H328.796V365.17H327.996V366.28H328.796V368.8C328.796 369.66 329.276 370.12 330.166 370.12ZM333.445 370.12C333.975 370.12 334.315 369.98 334.505 369.81L334.235 368.85C334.165 368.92 333.985 368.99 333.795 368.99C333.515 368.99 333.355 368.76 333.355 368.46V366.28H334.335V365.17H333.355V363.85H332.075V365.17H331.275V366.28H332.075V368.8C332.075 369.66 332.555 370.12 333.445 370.12ZM337.374 370.12C338.124 370.12 338.884 369.89 339.364 369.45L338.804 368.63C338.494 368.93 337.924 369.11 337.514 369.11C336.694 369.11 336.204 368.6 336.124 367.99H339.714V367.71C339.714 366.13 338.734 365.05 337.294 365.05C335.824 365.05 334.794 366.18 334.794 367.58C334.794 369.13 335.904 370.12 337.374 370.12ZM338.484 367.13H336.104C336.164 366.65 336.504 366.06 337.294 366.06C338.134 366.06 338.454 366.67 338.484 367.13ZM347.801 370V366.51C347.801 365.52 347.271 365.05 346.381 365.05C345.641 365.05 345.001 365.49 344.721 365.93C344.541 365.38 344.091 365.05 343.381 365.05C342.641 365.05 342.001 365.51 341.801 365.8V365.17H340.531V370H341.801V366.75C341.991 366.48 342.361 366.18 342.801 366.18C343.321 366.18 343.521 366.5 343.521 366.95V370H344.801V366.74C344.981 366.48 345.351 366.18 345.801 366.18C346.321 366.18 346.521 366.5 346.521 366.95V370H347.801ZM351.707 370.12C352.947 370.12 353.847 369.19 353.847 367.58C353.847 365.97 352.947 365.05 351.707 365.05C351.117 365.05 350.587 365.31 350.217 365.78V365.17H348.947V371.84H350.217V369.38C350.607 369.88 351.137 370.12 351.707 370.12ZM351.307 368.99C350.897 368.99 350.427 368.74 350.217 368.44V366.73C350.427 366.42 350.897 366.18 351.307 366.18C352.037 366.18 352.527 366.75 352.527 367.58C352.527 368.42 352.037 368.99 351.307 368.99ZM356.297 370.12C356.827 370.12 357.167 369.98 357.357 369.81L357.087 368.85C357.017 368.92 356.837 368.99 356.647 368.99C356.367 368.99 356.207 368.76 356.207 368.46V366.28H357.187V365.17H356.207V363.85H354.927V365.17H354.127V366.28H354.927V368.8C354.927 369.66 355.407 370.12 356.297 370.12Z" fill="#263F97"/>
<path d="M312.49 415V413.75H309.77C311.5 412.49 312.44 411.5 312.44 410.36C312.44 409.03 311.31 408.23 309.89 408.23C308.96 408.23 307.97 408.57 307.32 409.32L308.13 410.26C308.58 409.79 309.16 409.49 309.92 409.49C310.47 409.49 311 409.78 311 410.36C311 411.18 310.2 411.87 307.47 413.89V415H312.49ZM318.056 415V411.59C318.056 410.65 317.546 410.05 316.486 410.05C315.696 410.05 315.106 410.43 314.796 410.8V410.17H313.526V415H314.796V411.75C315.006 411.46 315.396 411.18 315.896 411.18C316.436 411.18 316.786 411.41 316.786 412.08V415H318.056ZM323.817 415V408.33H322.537V410.79C322.157 410.3 321.617 410.05 321.047 410.05C319.817 410.05 318.907 411.01 318.907 412.59C318.907 414.2 319.827 415.12 321.047 415.12C321.627 415.12 322.157 414.86 322.537 414.38V415H323.817ZM321.437 413.99C320.717 413.99 320.217 413.42 320.217 412.59C320.217 411.75 320.717 411.18 321.437 411.18C321.867 411.18 322.327 411.41 322.537 411.73V413.44C322.327 413.76 321.867 413.99 321.437 413.99ZM333.685 415L331.115 408.33H329.335L326.755 415H328.375L328.795 413.87H331.655L332.065 415H333.685ZM331.265 412.62H329.185L330.225 409.75L331.265 412.62ZM335.557 415.12C336.087 415.12 336.427 414.98 336.617 414.81L336.347 413.85C336.277 413.92 336.097 413.99 335.907 413.99C335.627 413.99 335.467 413.76 335.467 413.46V411.28H336.447V410.17H335.467V408.85H334.187V410.17H333.387V411.28H334.187V413.8C334.187 414.66 334.667 415.12 335.557 415.12ZM338.836 415.12C339.366 415.12 339.706 414.98 339.896 414.81L339.626 413.85C339.556 413.92 339.376 413.99 339.186 413.99C338.906 413.99 338.746 413.76 338.746 413.46V411.28H339.726V410.17H338.746V408.85H337.466V410.17H336.666V411.28H337.466V413.8C337.466 414.66 337.946 415.12 338.836 415.12ZM342.764 415.12C343.514 415.12 344.274 414.89 344.754 414.45L344.194 413.63C343.884 413.93 343.314 414.11 342.904 414.11C342.084 414.11 341.594 413.6 341.514 412.99H345.104V412.71C345.104 411.13 344.124 410.05 342.684 410.05C341.214 410.05 340.184 411.18 340.184 412.58C340.184 414.13 341.294 415.12 342.764 415.12ZM343.874 412.13H341.494C341.554 411.65 341.894 411.06 342.684 411.06C343.524 411.06 343.844 411.67 343.874 412.13ZM353.192 415V411.51C353.192 410.52 352.662 410.05 351.772 410.05C351.032 410.05 350.392 410.49 350.112 410.93C349.932 410.38 349.482 410.05 348.772 410.05C348.032 410.05 347.392 410.51 347.192 410.8V410.17H345.922V415H347.192V411.75C347.382 411.48 347.752 411.18 348.192 411.18C348.712 411.18 348.912 411.5 348.912 411.95V415H350.192V411.74C350.372 411.48 350.742 411.18 351.192 411.18C351.712 411.18 351.912 411.5 351.912 411.95V415H353.192ZM357.097 415.12C358.337 415.12 359.237 414.19 359.237 412.58C359.237 410.97 358.337 410.05 357.097 410.05C356.507 410.05 355.977 410.31 355.607 410.78V410.17H354.337V416.84H355.607V414.38C355.997 414.88 356.527 415.12 357.097 415.12ZM356.697 413.99C356.287 413.99 355.817 413.74 355.607 413.44V411.73C355.817 411.42 356.287 411.18 356.697 411.18C357.427 411.18 357.917 411.75 357.917 412.58C357.917 413.42 357.427 413.99 356.697 413.99ZM361.688 415.12C362.218 415.12 362.558 414.98 362.748 414.81L362.478 413.85C362.408 413.92 362.228 413.99 362.038 413.99C361.758 413.99 361.598 413.76 361.598 413.46V411.28H362.578V410.17H361.598V408.85H360.318V410.17H359.518V411.28H360.318V413.8C360.318 414.66 360.798 415.12 361.688 415.12Z" fill="#263F97"/>
<path d="M309.83 458.12C311.43 458.12 312.46 457.31 312.46 456.16C312.46 455.16 311.58 454.63 310.9 454.56C311.64 454.43 312.36 453.88 312.36 453.04C312.36 451.93 311.4 451.23 309.84 451.23C308.67 451.23 307.83 451.68 307.29 452.29L308 453.18C308.47 452.73 309.05 452.49 309.69 452.49C310.39 452.49 310.93 452.75 310.93 453.28C310.93 453.77 310.44 453.99 309.7 453.99C309.45 453.99 308.99 453.99 308.87 453.98V455.26C308.97 455.25 309.42 455.24 309.7 455.24C310.63 455.24 311.04 455.48 311.04 456.01C311.04 456.51 310.59 456.86 309.78 456.86C309.13 456.86 308.4 456.58 307.94 456.1L307.2 457.05C307.69 457.65 308.6 458.12 309.83 458.12ZM314.669 458V454.81C314.879 454.5 315.439 454.26 315.859 454.26C315.999 454.26 316.119 454.27 316.209 454.29V453.05C315.609 453.05 315.009 453.4 314.669 453.83V453.17H313.399V458H314.669ZM321.503 458V451.33H320.223V453.79C319.843 453.3 319.303 453.05 318.733 453.05C317.503 453.05 316.593 454.01 316.593 455.59C316.593 457.2 317.513 458.12 318.733 458.12C319.313 458.12 319.843 457.86 320.223 457.38V458H321.503ZM319.123 456.99C318.403 456.99 317.903 456.42 317.903 455.59C317.903 454.75 318.403 454.18 319.123 454.18C319.553 454.18 320.013 454.41 320.223 454.73V456.44C320.013 456.76 319.553 456.99 319.123 456.99ZM331.371 458L328.801 451.33H327.021L324.441 458H326.061L326.481 456.87H329.341L329.751 458H331.371ZM328.951 455.62H326.871L327.911 452.75L328.951 455.62ZM333.242 458.12C333.772 458.12 334.112 457.98 334.302 457.81L334.032 456.85C333.962 456.92 333.782 456.99 333.592 456.99C333.312 456.99 333.152 456.76 333.152 456.46V454.28H334.132V453.17H333.152V451.85H331.872V453.17H331.072V454.28H331.872V456.8C331.872 457.66 332.352 458.12 333.242 458.12ZM336.521 458.12C337.051 458.12 337.391 457.98 337.581 457.81L337.311 456.85C337.241 456.92 337.061 456.99 336.871 456.99C336.591 456.99 336.431 456.76 336.431 456.46V454.28H337.411V453.17H336.431V451.85H335.151V453.17H334.351V454.28H335.151V456.8C335.151 457.66 335.631 458.12 336.521 458.12ZM340.45 458.12C341.2 458.12 341.96 457.89 342.44 457.45L341.88 456.63C341.57 456.93 341 457.11 340.59 457.11C339.77 457.11 339.28 456.6 339.2 455.99H342.79V455.71C342.79 454.13 341.81 453.05 340.37 453.05C338.9 453.05 337.87 454.18 337.87 455.58C337.87 457.13 338.98 458.12 340.45 458.12ZM341.56 455.13H339.18C339.24 454.65 339.58 454.06 340.37 454.06C341.21 454.06 341.53 454.67 341.56 455.13ZM350.877 458V454.51C350.877 453.52 350.347 453.05 349.457 453.05C348.717 453.05 348.077 453.49 347.797 453.93C347.617 453.38 347.167 453.05 346.457 453.05C345.717 453.05 345.077 453.51 344.877 453.8V453.17H343.607V458H344.877V454.75C345.067 454.48 345.437 454.18 345.877 454.18C346.397 454.18 346.597 454.5 346.597 454.95V458H347.877V454.74C348.057 454.48 348.427 454.18 348.877 454.18C349.397 454.18 349.597 454.5 349.597 454.95V458H350.877ZM354.783 458.12C356.023 458.12 356.923 457.19 356.923 455.58C356.923 453.97 356.023 453.05 354.783 453.05C354.193 453.05 353.663 453.31 353.293 453.78V453.17H352.023V459.84H353.293V457.38C353.683 457.88 354.213 458.12 354.783 458.12ZM354.383 456.99C353.973 456.99 353.503 456.74 353.293 456.44V454.73C353.503 454.42 353.973 454.18 354.383 454.18C355.113 454.18 355.603 454.75 355.603 455.58C355.603 456.42 355.113 456.99 354.383 456.99ZM359.373 458.12C359.903 458.12 360.243 457.98 360.433 457.81L360.163 456.85C360.093 456.92 359.913 456.99 359.723 456.99C359.443 456.99 359.283 456.76 359.283 456.46V454.28H360.263V453.17H359.283V451.85H358.003V453.17H357.203V454.28H358.003V456.8C358.003 457.66 358.483 458.12 359.373 458.12Z" fill="#263F97"/>
<path d="M311.86 503V501.62H312.72V500.37H311.86V496.33H309.9L307.25 500.5V501.62H310.44V503H311.86ZM310.44 500.37H308.64L310.44 497.59V500.37ZM317.617 500.02V499.23H315.827V497.28H314.957V499.23H313.157V500.02H314.957V502.05H315.827V500.02H317.617ZM327.144 503L324.574 496.33H322.794L320.214 503H321.834L322.254 501.87H325.114L325.524 503H327.144ZM324.724 500.62H322.644L323.684 497.75L324.724 500.62ZM329.016 503.12C329.546 503.12 329.886 502.98 330.076 502.81L329.806 501.85C329.736 501.92 329.556 501.99 329.366 501.99C329.086 501.99 328.926 501.76 328.926 501.46V499.28H329.906V498.17H328.926V496.85H327.646V498.17H326.846V499.28H327.646V501.8C327.646 502.66 328.126 503.12 329.016 503.12ZM332.295 503.12C332.825 503.12 333.165 502.98 333.355 502.81L333.085 501.85C333.015 501.92 332.835 501.99 332.645 501.99C332.365 501.99 332.205 501.76 332.205 501.46V499.28H333.185V498.17H332.205V496.85H330.925V498.17H330.125V499.28H330.925V501.8C330.925 502.66 331.405 503.12 332.295 503.12ZM336.224 503.12C336.974 503.12 337.734 502.89 338.214 502.45L337.654 501.63C337.344 501.93 336.774 502.11 336.364 502.11C335.544 502.11 335.054 501.6 334.974 500.99H338.564V500.71C338.564 499.13 337.584 498.05 336.144 498.05C334.674 498.05 333.644 499.18 333.644 500.58C333.644 502.13 334.754 503.12 336.224 503.12ZM337.334 500.13H334.954C335.014 499.65 335.354 499.06 336.144 499.06C336.984 499.06 337.304 499.67 337.334 500.13ZM346.651 503V499.51C346.651 498.52 346.121 498.05 345.231 498.05C344.491 498.05 343.851 498.49 343.571 498.93C343.391 498.38 342.941 498.05 342.231 498.05C341.491 498.05 340.851 498.51 340.651 498.8V498.17H339.381V503H340.651V499.75C340.841 499.48 341.211 499.18 341.651 499.18C342.171 499.18 342.371 499.5 342.371 499.95V503H343.651V499.74C343.831 499.48 344.201 499.18 344.651 499.18C345.171 499.18 345.371 499.5 345.371 499.95V503H346.651ZM350.557 503.12C351.797 503.12 352.697 502.19 352.697 500.58C352.697 498.97 351.797 498.05 350.557 498.05C349.967 498.05 349.437 498.31 349.067 498.78V498.17H347.797V504.84H349.067V502.38C349.457 502.88 349.987 503.12 350.557 503.12ZM350.157 501.99C349.747 501.99 349.277 501.74 349.067 501.44V499.73C349.277 499.42 349.747 499.18 350.157 499.18C350.887 499.18 351.377 499.75 351.377 500.58C351.377 501.42 350.887 501.99 350.157 501.99ZM355.147 503.12C355.677 503.12 356.017 502.98 356.207 502.81L355.937 501.85C355.867 501.92 355.687 501.99 355.497 501.99C355.217 501.99 355.057 501.76 355.057 501.46V499.28H356.037V498.17H355.057V496.85H353.777V498.17H352.977V499.28H353.777V501.8C353.777 502.66 354.257 503.12 355.147 503.12ZM358.546 503.12C359.886 503.12 360.636 502.45 360.636 501.57C360.636 499.62 357.776 500.22 357.776 499.5C357.776 499.23 358.076 499.02 358.536 499.02C359.126 499.02 359.676 499.27 359.966 499.58L360.476 498.71C359.996 498.33 359.346 498.05 358.526 498.05C357.256 498.05 356.546 498.76 356.546 499.57C356.546 501.47 359.416 500.82 359.416 501.62C359.416 501.92 359.156 502.14 358.606 502.14C358.006 502.14 357.286 501.81 356.936 501.48L356.386 502.37C356.896 502.84 357.706 503.12 358.546 503.12Z" fill="#263F97"/>
<path d="M234.62 54.3805C233.713 54.7105 232.884 55.2238 232.185 55.8885C231.485 56.5532 230.93 57.3549 230.555 58.2436C230.179 59.1323 229.99 60.0889 230 61.0537C230.011 62.0186 230.22 62.9709 230.615 63.8514C231.009 64.7318 231.582 65.5214 232.295 66.1709C233.009 66.8204 233.848 67.3159 234.762 67.6264C235.676 67.9369 236.643 68.0557 237.605 67.9755C238.566 67.8953 239.501 67.6178 240.351 67.1603L237.922 62.6515C237.693 62.7753 237.44 62.8504 237.179 62.8721C236.919 62.8938 236.657 62.8617 236.41 62.7776C236.163 62.6936 235.935 62.5595 235.742 62.3837C235.549 62.2079 235.394 61.9942 235.287 61.756C235.181 61.5177 235.124 61.2599 235.121 60.9988C235.118 60.7377 235.169 60.4788 235.271 60.2383C235.373 59.9977 235.523 59.7808 235.712 59.6009C235.902 59.421 236.126 59.2821 236.371 59.1927L234.62 54.3805Z" fill="#FF756C"/>
<path d="M234.682 47.5234L246.384 52.0448V67.4174L234.682 62.896V47.5234Z" fill="#334FB3"/>
<path d="M234.682 47.5214L246.384 52.0427L258.086 47.5214L246.384 43L234.682 47.5214Z" fill="#303B91"/>
<path d="M239.947 48.6932L246.384 52.0443L258.086 47.523L251.65 44.1719L239.947 48.6932Z" fill="#5770C9"/>
<path d="M234.682 47.5214L241.118 48.532L252.82 44.0107L246.384 43L234.682 47.5214Z" fill="#758CDE"/>
<path d="M258.087 47.5234L246.385 52.0448V67.4174L258.087 62.896V47.5234Z" fill="#303B91"/>
<path d="M419.144 370V369.112H415.22C417.452 367.348 419.108 365.86 419.108 364.228C419.108 362.632 417.752 361.876 416.42 361.876C415.292 361.876 414.248 362.32 413.636 363.136L414.248 363.772C414.716 363.172 415.46 362.764 416.42 362.764C417.248 362.764 418.1 363.196 418.1 364.228C418.1 365.608 416.528 366.94 413.648 369.196V370H419.144ZM423.727 370.144C425.911 370.144 426.787 367.948 426.787 366.004C426.787 364.048 425.911 361.876 423.727 361.876C421.531 361.876 420.667 364.048 420.667 366.004C420.667 367.948 421.531 370.144 423.727 370.144ZM423.727 369.256C422.203 369.256 421.687 367.6 421.687 366.004C421.687 364.408 422.203 362.764 423.727 362.764C425.251 362.764 425.767 364.408 425.767 366.004C425.767 367.6 425.251 369.256 423.727 369.256ZM431.074 370.144C433.258 370.144 434.134 367.948 434.134 366.004C434.134 364.048 433.258 361.876 431.074 361.876C428.878 361.876 428.014 364.048 428.014 366.004C428.014 367.948 428.878 370.144 431.074 370.144ZM431.074 369.256C429.55 369.256 429.034 367.6 429.034 366.004C429.034 364.408 429.55 362.764 431.074 362.764C432.598 362.764 433.114 364.408 433.114 366.004C433.114 367.6 432.598 369.256 431.074 369.256ZM438.422 370.144C440.606 370.144 441.482 367.948 441.482 366.004C441.482 364.048 440.606 361.876 438.422 361.876C436.226 361.876 435.362 364.048 435.362 366.004C435.362 367.948 436.226 370.144 438.422 370.144ZM438.422 369.256C436.898 369.256 436.382 367.6 436.382 366.004C436.382 364.408 436.898 362.764 438.422 362.764C439.946 362.764 440.462 364.408 440.462 366.004C440.462 367.6 439.946 369.256 438.422 369.256ZM449.787 370.144C452.151 370.144 453.771 368.368 453.771 366.004C453.771 363.64 452.151 361.864 449.787 361.864C447.423 361.864 445.815 363.64 445.815 366.004C445.815 368.368 447.423 370.144 449.787 370.144ZM449.787 369.256C447.987 369.256 446.847 367.864 446.847 366.004C446.847 364.132 447.987 362.752 449.787 362.752C451.575 362.752 452.739 364.132 452.739 366.004C452.739 367.864 451.575 369.256 449.787 369.256ZM456.179 370V365.896C456.443 365.428 457.199 364.972 457.763 364.972C457.895 364.972 458.003 364.984 458.111 364.996V364.072C457.319 364.072 456.647 364.528 456.179 365.128V364.204H455.279V370H456.179ZM464.34 370V361.996H463.44V365.08C462.972 364.444 462.264 364.06 461.484 364.06C459.972 364.06 458.904 365.248 458.904 367.108C458.904 368.992 459.972 370.144 461.484 370.144C462.3 370.144 463.008 369.724 463.44 369.136V370H464.34ZM461.712 369.34C460.536 369.34 459.84 368.392 459.84 367.108C459.84 365.824 460.536 364.864 461.712 364.864C462.42 364.864 463.128 365.296 463.44 365.8V368.416C463.128 368.92 462.42 369.34 461.712 369.34ZM468.77 370.144C469.706 370.144 470.486 369.82 471.074 369.244L470.642 368.656C470.174 369.136 469.514 369.4 468.842 369.4C467.594 369.4 466.838 368.488 466.766 367.396H471.446V367.168C471.446 365.428 470.414 364.06 468.662 364.06C467.006 364.06 465.806 365.416 465.806 367.096C465.806 368.908 467.042 370.144 468.77 370.144ZM470.558 366.724H466.754C466.802 365.848 467.414 364.804 468.65 364.804C469.97 364.804 470.546 365.872 470.558 366.724ZM473.804 370V365.896C474.068 365.428 474.824 364.972 475.388 364.972C475.52 364.972 475.628 364.984 475.736 364.996V364.072C474.944 364.072 474.272 364.528 473.804 365.128V364.204H472.904V370H473.804ZM478.713 370.144C480.201 370.144 480.981 369.364 480.981 368.392C480.981 366.136 477.393 366.964 477.393 365.704C477.393 365.188 477.885 364.792 478.677 364.792C479.433 364.792 480.057 365.104 480.405 365.524L480.825 364.9C480.369 364.432 479.673 364.06 478.677 364.06C477.297 364.06 476.529 364.816 476.529 365.728C476.529 367.876 480.117 367.012 480.117 368.416C480.117 368.992 479.625 369.412 478.737 369.412C477.945 369.412 477.213 369.028 476.829 368.584L476.373 369.232C476.961 369.844 477.753 370.144 478.713 370.144Z" fill="#263F97"/>
<path d="M416.492 416.144C418.064 416.144 419.36 415.328 419.36 413.972C419.36 412.904 418.448 412.172 417.452 411.872C418.376 411.608 419.24 410.996 419.24 409.952C419.24 408.512 417.812 407.876 416.492 407.876C415.16 407.876 413.756 408.512 413.756 409.952C413.756 410.996 414.608 411.608 415.532 411.872C414.536 412.172 413.624 412.904 413.624 413.972C413.624 415.34 414.908 416.144 416.492 416.144ZM416.492 411.464C416.012 411.38 414.764 411.056 414.764 410.084C414.764 409.256 415.52 408.764 416.492 408.764C417.452 408.764 418.232 409.256 418.232 410.084C418.232 411.056 416.984 411.38 416.492 411.464ZM416.492 415.256C415.496 415.256 414.632 414.728 414.632 413.864C414.632 412.82 416 412.376 416.492 412.316C416.984 412.376 418.352 412.82 418.352 413.864C418.352 414.728 417.476 415.256 416.492 415.256ZM423.656 416.144C425.84 416.144 426.716 413.948 426.716 412.004C426.716 410.048 425.84 407.876 423.656 407.876C421.46 407.876 420.596 410.048 420.596 412.004C420.596 413.948 421.46 416.144 423.656 416.144ZM423.656 415.256C422.132 415.256 421.616 413.6 421.616 412.004C421.616 410.408 422.132 408.764 423.656 408.764C425.18 408.764 425.696 410.408 425.696 412.004C425.696 413.6 425.18 415.256 423.656 415.256ZM431.004 416.144C433.188 416.144 434.064 413.948 434.064 412.004C434.064 410.048 433.188 407.876 431.004 407.876C428.808 407.876 427.944 410.048 427.944 412.004C427.944 413.948 428.808 416.144 431.004 416.144ZM431.004 415.256C429.48 415.256 428.964 413.6 428.964 412.004C428.964 410.408 429.48 408.764 431.004 408.764C432.528 408.764 433.044 410.408 433.044 412.004C433.044 413.6 432.528 415.256 431.004 415.256ZM442.369 416.144C444.733 416.144 446.353 414.368 446.353 412.004C446.353 409.64 444.733 407.864 442.369 407.864C440.005 407.864 438.397 409.64 438.397 412.004C438.397 414.368 440.005 416.144 442.369 416.144ZM442.369 415.256C440.569 415.256 439.429 413.864 439.429 412.004C439.429 410.132 440.569 408.752 442.369 408.752C444.157 408.752 445.321 410.132 445.321 412.004C445.321 413.864 444.157 415.256 442.369 415.256ZM448.761 416V411.896C449.025 411.428 449.781 410.972 450.345 410.972C450.477 410.972 450.585 410.984 450.693 410.996V410.072C449.901 410.072 449.229 410.528 448.761 411.128V410.204H447.861V416H448.761ZM456.922 416V407.996H456.022V411.08C455.554 410.444 454.846 410.06 454.066 410.06C452.554 410.06 451.486 411.248 451.486 413.108C451.486 414.992 452.554 416.144 454.066 416.144C454.882 416.144 455.59 415.724 456.022 415.136V416H456.922ZM454.294 415.34C453.118 415.34 452.422 414.392 452.422 413.108C452.422 411.824 453.118 410.864 454.294 410.864C455.002 410.864 455.71 411.296 456.022 411.8V414.416C455.71 414.92 455.002 415.34 454.294 415.34ZM461.352 416.144C462.288 416.144 463.068 415.82 463.656 415.244L463.224 414.656C462.756 415.136 462.096 415.4 461.424 415.4C460.176 415.4 459.42 414.488 459.348 413.396H464.028V413.168C464.028 411.428 462.996 410.06 461.244 410.06C459.588 410.06 458.388 411.416 458.388 413.096C458.388 414.908 459.624 416.144 461.352 416.144ZM463.14 412.724H459.336C459.384 411.848 459.996 410.804 461.232 410.804C462.552 410.804 463.128 411.872 463.14 412.724ZM466.386 416V411.896C466.65 411.428 467.406 410.972 467.97 410.972C468.102 410.972 468.21 410.984 468.318 410.996V410.072C467.526 410.072 466.854 410.528 466.386 411.128V410.204H465.486V416H466.386ZM471.295 416.144C472.783 416.144 473.563 415.364 473.563 414.392C473.563 412.136 469.975 412.964 469.975 411.704C469.975 411.188 470.467 410.792 471.259 410.792C472.015 410.792 472.639 411.104 472.987 411.524L473.407 410.9C472.951 410.432 472.255 410.06 471.259 410.06C469.879 410.06 469.111 410.816 469.111 411.728C469.111 413.876 472.699 413.012 472.699 414.416C472.699 414.992 472.207 415.412 471.319 415.412C470.527 415.412 469.795 415.028 469.411 414.584L468.955 415.232C469.543 415.844 470.335 416.144 471.295 416.144Z" fill="#263F97"/>
<path d="M419.144 458V457.112H415.22C417.452 455.348 419.108 453.86 419.108 452.228C419.108 450.632 417.752 449.876 416.42 449.876C415.292 449.876 414.248 450.32 413.636 451.136L414.248 451.772C414.716 451.172 415.46 450.764 416.42 450.764C417.248 450.764 418.1 451.196 418.1 452.228C418.1 453.608 416.528 454.94 413.648 457.196V458H419.144ZM423.727 458.144C425.911 458.144 426.787 455.948 426.787 454.004C426.787 452.048 425.911 449.876 423.727 449.876C421.531 449.876 420.667 452.048 420.667 454.004C420.667 455.948 421.531 458.144 423.727 458.144ZM423.727 457.256C422.203 457.256 421.687 455.6 421.687 454.004C421.687 452.408 422.203 450.764 423.727 450.764C425.251 450.764 425.767 452.408 425.767 454.004C425.767 455.6 425.251 457.256 423.727 457.256ZM435.092 458.144C437.456 458.144 439.076 456.368 439.076 454.004C439.076 451.64 437.456 449.864 435.092 449.864C432.728 449.864 431.12 451.64 431.12 454.004C431.12 456.368 432.728 458.144 435.092 458.144ZM435.092 457.256C433.292 457.256 432.152 455.864 432.152 454.004C432.152 452.132 433.292 450.752 435.092 450.752C436.88 450.752 438.044 452.132 438.044 454.004C438.044 455.864 436.88 457.256 435.092 457.256ZM441.484 458V453.896C441.748 453.428 442.504 452.972 443.068 452.972C443.2 452.972 443.308 452.984 443.416 452.996V452.072C442.624 452.072 441.952 452.528 441.484 453.128V452.204H440.584V458H441.484ZM449.645 458V449.996H448.745V453.08C448.277 452.444 447.569 452.06 446.789 452.06C445.277 452.06 444.209 453.248 444.209 455.108C444.209 456.992 445.277 458.144 446.789 458.144C447.605 458.144 448.313 457.724 448.745 457.136V458H449.645ZM447.017 457.34C445.841 457.34 445.145 456.392 445.145 455.108C445.145 453.824 445.841 452.864 447.017 452.864C447.725 452.864 448.433 453.296 448.745 453.8V456.416C448.433 456.92 447.725 457.34 447.017 457.34ZM454.075 458.144C455.011 458.144 455.791 457.82 456.379 457.244L455.947 456.656C455.479 457.136 454.819 457.4 454.147 457.4C452.899 457.4 452.143 456.488 452.071 455.396H456.751V455.168C456.751 453.428 455.719 452.06 453.967 452.06C452.311 452.06 451.111 453.416 451.111 455.096C451.111 456.908 452.347 458.144 454.075 458.144ZM455.863 454.724H452.059C452.107 453.848 452.719 452.804 453.955 452.804C455.275 452.804 455.851 453.872 455.863 454.724ZM459.109 458V453.896C459.373 453.428 460.129 452.972 460.693 452.972C460.825 452.972 460.933 452.984 461.041 452.996V452.072C460.249 452.072 459.577 452.528 459.109 453.128V452.204H458.209V458H459.109ZM464.018 458.144C465.506 458.144 466.286 457.364 466.286 456.392C466.286 454.136 462.698 454.964 462.698 453.704C462.698 453.188 463.19 452.792 463.982 452.792C464.738 452.792 465.362 453.104 465.71 453.524L466.13 452.9C465.674 452.432 464.978 452.06 463.982 452.06C462.602 452.06 461.834 452.816 461.834 453.728C461.834 455.876 465.422 455.012 465.422 456.416C465.422 456.992 464.93 457.412 464.042 457.412C463.25 457.412 462.518 457.028 462.134 456.584L461.678 457.232C462.266 457.844 463.058 458.144 464.018 458.144Z" fill="#263F97"/>
<path d="M419.144 504V503.112H415.22C417.452 501.348 419.108 499.86 419.108 498.228C419.108 496.632 417.752 495.876 416.42 495.876C415.292 495.876 414.248 496.32 413.636 497.136L414.248 497.772C414.716 497.172 415.46 496.764 416.42 496.764C417.248 496.764 418.1 497.196 418.1 498.228C418.1 499.608 416.528 500.94 413.648 503.196V504H419.144ZM423.727 504.144C425.911 504.144 426.787 501.948 426.787 500.004C426.787 498.048 425.911 495.876 423.727 495.876C421.531 495.876 420.667 498.048 420.667 500.004C420.667 501.948 421.531 504.144 423.727 504.144ZM423.727 503.256C422.203 503.256 421.687 501.6 421.687 500.004C421.687 498.408 422.203 496.764 423.727 496.764C425.251 496.764 425.767 498.408 425.767 500.004C425.767 501.6 425.251 503.256 423.727 503.256ZM435.092 504.144C437.456 504.144 439.076 502.368 439.076 500.004C439.076 497.64 437.456 495.864 435.092 495.864C432.728 495.864 431.12 497.64 431.12 500.004C431.12 502.368 432.728 504.144 435.092 504.144ZM435.092 503.256C433.292 503.256 432.152 501.864 432.152 500.004C432.152 498.132 433.292 496.752 435.092 496.752C436.88 496.752 438.044 498.132 438.044 500.004C438.044 501.864 436.88 503.256 435.092 503.256ZM441.484 504V499.896C441.748 499.428 442.504 498.972 443.068 498.972C443.2 498.972 443.308 498.984 443.416 498.996V498.072C442.624 498.072 441.952 498.528 441.484 499.128V498.204H440.584V504H441.484ZM449.645 504V495.996H448.745V499.08C448.277 498.444 447.569 498.06 446.789 498.06C445.277 498.06 444.209 499.248 444.209 501.108C444.209 502.992 445.277 504.144 446.789 504.144C447.605 504.144 448.313 503.724 448.745 503.136V504H449.645ZM447.017 503.34C445.841 503.34 445.145 502.392 445.145 501.108C445.145 499.824 445.841 498.864 447.017 498.864C447.725 498.864 448.433 499.296 448.745 499.8V502.416C448.433 502.92 447.725 503.34 447.017 503.34ZM454.075 504.144C455.011 504.144 455.791 503.82 456.379 503.244L455.947 502.656C455.479 503.136 454.819 503.4 454.147 503.4C452.899 503.4 452.143 502.488 452.071 501.396H456.751V501.168C456.751 499.428 455.719 498.06 453.967 498.06C452.311 498.06 451.111 499.416 451.111 501.096C451.111 502.908 452.347 504.144 454.075 504.144ZM455.863 500.724H452.059C452.107 499.848 452.719 498.804 453.955 498.804C455.275 498.804 455.851 499.872 455.863 500.724ZM459.109 504V499.896C459.373 499.428 460.129 498.972 460.693 498.972C460.825 498.972 460.933 498.984 461.041 498.996V498.072C460.249 498.072 459.577 498.528 459.109 499.128V498.204H458.209V504H459.109ZM464.018 504.144C465.506 504.144 466.286 503.364 466.286 502.392C466.286 500.136 462.698 500.964 462.698 499.704C462.698 499.188 463.19 498.792 463.982 498.792C464.738 498.792 465.362 499.104 465.71 499.524L466.13 498.9C465.674 498.432 464.978 498.06 463.982 498.06C462.602 498.06 461.834 498.816 461.834 499.728C461.834 501.876 465.422 501.012 465.422 502.416C465.422 502.992 464.93 503.412 464.042 503.412C463.25 503.412 462.518 503.028 462.134 502.584L461.678 503.232C462.266 503.844 463.058 504.144 464.018 504.144Z" fill="#263F97"/>
<defs>
<filter id="filter0_d_2839_1833" x="35.5234" y="288.484" width="116.791" height="63.5156" filterUnits="userSpaceOnUse" color-interpolation-filters="sRGB">
<feFlood flood-opacity="0" result="BackgroundImageFix"/>
<feColorMatrix in="SourceAlpha" type="matrix" values="0 0 0 0 0 0 0 0 0 0 0 0 0 0 0 0 0 0 127 0" result="hardAlpha"/>
<feOffset dx="2" dy="6"/>
<feGaussianBlur stdDeviation="5"/>
<feColorMatrix type="matrix" values="0 0 0 0 0 0 0 0 0 0 0 0 0 0 0 0 0 0 0.05 0"/>
<feBlend mode="normal" in2="BackgroundImageFix" result="effect1_dropShadow_2839_1833"/>
<feBlend mode="normal" in="SourceGraphic" in2="effect1_dropShadow_2839_1833" result="shape"/>
</filter>
<filter id="filter1_d_2839_1833" x="188" y="0" width="389" height="590" filterUnits="userSpaceOnUse" color-interpolation-filters="sRGB">
<feFlood flood-opacity="0" result="BackgroundImageFix"/>
<feColorMatrix in="SourceAlpha" type="matrix" values="0 0 0 0 0 0 0 0 0 0 0 0 0 0 0 0 0 0 127 0" result="hardAlpha"/>
<feOffset dy="4"/>
<feGaussianBlur stdDeviation="12"/>
<feComposite in2="hardAlpha" operator="out"/>
<feColorMatrix type="matrix" values="0 0 0 0 0 0 0 0 0 0 0 0 0 0 0 0 0 0 0.15 0"/>
<feBlend mode="normal" in2="BackgroundImageFix" result="effect1_dropShadow_2839_1833"/>
<feBlend mode="normal" in="SourceGraphic" in2="effect1_dropShadow_2839_1833" result="shape"/>
</filter>
<filter id="filter2_d_2839_1833" x="395" y="90" width="99" height="63" filterUnits="userSpaceOnUse" color-interpolation-filters="sRGB">
<feFlood flood-opacity="0" result="BackgroundImageFix"/>
<feColorMatrix in="SourceAlpha" type="matrix" values="0 0 0 0 0 0 0 0 0 0 0 0 0 0 0 0 0 0 127 0" result="hardAlpha"/>
<feOffset dx="2" dy="6"/>
<feGaussianBlur stdDeviation="5"/>
<feColorMatrix type="matrix" values="0 0 0 0 0 0 0 0 0 0 0 0 0 0 0 0 0 0 0.05 0"/>
<feBlend mode="normal" in2="BackgroundImageFix" result="effect1_dropShadow_2839_1833"/>
<feBlend mode="normal" in="SourceGraphic" in2="effect1_dropShadow_2839_1833" result="shape"/>
</filter>
<filter id="filter3_d_2839_1833" x="227" y="170.758" width="97" height="63" filterUnits="userSpaceOnUse" color-interpolation-filters="sRGB">
<feFlood flood-opacity="0" result="BackgroundImageFix"/>
<feColorMatrix in="SourceAlpha" type="matrix" values="0 0 0 0 0 0 0 0 0 0 0 0 0 0 0 0 0 0 127 0" result="hardAlpha"/>
<feOffset dx="2" dy="6"/>
<feGaussianBlur stdDeviation="5"/>
<feColorMatrix type="matrix" values="0 0 0 0 0 0 0 0 0 0 0 0 0 0 0 0 0 0 0.05 0"/>
<feBlend mode="normal" in2="BackgroundImageFix" result="effect1_dropShadow_2839_1833"/>
<feBlend mode="normal" in="SourceGraphic" in2="effect1_dropShadow_2839_1833" result="shape"/>
</filter>
</defs>
</svg>
