<svg width="33" height="34" viewBox="0 0 33 34" fill="none" xmlns="http://www.w3.org/2000/svg">
<path d="M16.3734 30.0994C19.8108 30.0994 23.1075 28.7338 25.5381 26.3032C27.9687 23.8726 29.3342 20.576 29.3342 17.1385C29.3342 13.7011 27.9687 10.4045 25.5381 7.97384C23.1075 5.54322 19.8108 4.17771 16.3734 4.17771C12.936 4.17771 9.63933 5.54322 7.20871 7.97384C4.77808 10.4045 3.41257 13.7011 3.41257 17.1385C3.41257 20.576 4.77808 23.8726 7.20871 26.3032C9.63933 28.7338 12.936 30.0994 16.3734 30.0994ZM16.3734 33.3396C7.42557 33.3396 0.172363 26.0864 0.172363 17.1385C0.172363 8.1907 7.42557 0.9375 16.3734 0.9375C25.3212 0.9375 32.5744 8.1907 32.5744 17.1385C32.5744 26.0864 25.3212 33.3396 16.3734 33.3396Z" fill="#38446D"/>
<path d="M24.4745 12.1905C23.8783 12.4497 23.2383 12.6279 22.566 12.7057C23.2529 12.3007 23.7778 11.6591 24.0273 10.896C23.3727 11.2775 22.6585 11.5459 21.9147 11.6899C21.6018 11.3619 21.2254 11.1012 20.8084 10.9235C20.3915 10.7457 19.9427 10.6548 19.4894 10.6563C17.6538 10.6563 16.1666 12.1225 16.1666 13.9289C16.1666 14.1849 16.1957 14.4343 16.2524 14.6741C14.9358 14.6116 13.6467 14.2753 12.4673 13.6867C11.2879 13.0982 10.2442 12.2702 9.40265 11.2557C9.10708 11.7532 8.95147 12.3214 8.95226 12.9001C8.95226 14.0342 9.54036 15.0386 10.4314 15.6235C9.90398 15.607 9.38784 15.4665 8.92472 15.2136V15.2541C8.92972 16.0147 9.19819 16.75 9.68441 17.3349C10.1706 17.9198 10.8445 18.3181 11.5914 18.4619C11.1011 18.5916 10.5881 18.6104 10.0896 18.517C10.3069 19.1713 10.7225 19.7417 11.2788 20.1491C11.835 20.5564 12.5043 20.7804 13.1937 20.79C12.011 21.7014 10.5588 22.1938 9.06567 22.1898C8.79835 22.1898 8.53427 22.1736 8.27344 22.1444C9.7971 23.1088 11.5638 23.6196 13.367 23.6171C19.4813 23.6171 22.8236 18.6304 22.8236 14.3047L22.8122 13.8803C23.464 13.4222 24.0272 12.8497 24.4745 12.1905Z" fill="#38446D"/>
</svg>
